<svg width="191" height="222" viewBox="0 0 191 222" fill="none" xmlns="http://www.w3.org/2000/svg">
<g clip-path="url(#clip0_7_52)">
<rect width="191" height="222" fill="white"/>
<path d="M107.172 68.6004L111.846 76.8449C110.835 78.7009 110.023 80.6591 109.425 82.6865L100.28 85.2144C99.8631 85.3295 99.4908 85.5676 99.2115 85.8977C98.9322 86.2277 98.759 86.6343 98.7144 87.0643C98.4248 89.8175 98.4248 92.5935 98.7144 95.3467C98.7588 95.7768 98.932 96.1835 99.2113 96.5135C99.4906 96.8436 99.863 97.0817 100.28 97.1967L109.425 99.7234C110.023 101.751 110.835 103.71 111.846 105.566L107.172 113.81C106.959 114.185 106.864 114.617 106.899 115.047C106.935 115.478 107.099 115.887 107.371 116.223C109.117 118.375 111.082 120.341 113.234 122.087C113.569 122.359 113.979 122.524 114.41 122.56C114.84 122.596 115.271 122.501 115.647 122.287L123.891 117.613C125.746 118.624 127.704 119.436 129.731 120.033L132.259 129.179C132.374 129.596 132.612 129.968 132.941 130.248C133.271 130.527 133.678 130.7 134.107 130.745C136.861 131.035 139.637 131.035 142.391 130.745C142.821 130.7 143.227 130.527 143.557 130.248C143.887 129.968 144.125 129.596 144.239 129.179L146.766 120.033C148.793 119.436 150.752 118.624 152.608 117.613L160.85 122.287C161.226 122.5 161.657 122.595 162.087 122.559C162.518 122.524 162.927 122.36 163.263 122.088C165.415 120.341 167.381 118.376 169.127 116.223C169.399 115.888 169.563 115.478 169.599 115.047C169.634 114.617 169.539 114.186 169.326 113.81L164.652 105.566C165.664 103.71 166.475 101.751 167.073 99.7237L176.218 97.1968C176.635 97.0818 177.008 96.8437 177.287 96.5137C177.566 96.1836 177.739 95.7769 177.784 95.3468C178.072 92.5935 178.072 89.8177 177.784 87.0645C177.739 86.6344 177.566 86.2278 177.287 85.8978C177.007 85.5677 176.635 85.3296 176.218 85.2145L167.073 82.6865C166.475 80.6591 165.664 78.7009 164.652 76.8449L169.326 68.6003C169.54 68.2246 169.635 67.7933 169.599 67.3627C169.563 66.9322 169.398 66.5224 169.126 66.187C167.38 64.0347 165.415 62.0695 163.263 60.3233C162.928 60.0514 162.518 59.8868 162.088 59.8511C161.657 59.8153 161.226 59.9101 160.85 60.1229L152.608 64.7976C150.752 63.7865 148.794 62.9754 146.767 62.3778L144.24 53.2308C144.124 52.8141 143.886 52.4417 143.556 52.1624C143.226 51.8831 142.82 51.7098 142.39 51.6652C139.637 51.3772 136.862 51.3772 134.109 51.6652C133.679 51.7098 133.272 51.8831 132.942 52.1624C132.612 52.4417 132.374 52.8141 132.259 53.2308L129.731 62.3778C127.704 62.9754 125.746 63.7865 123.891 64.7976L115.647 60.1229C115.271 59.9104 114.84 59.8159 114.41 59.8517C113.979 59.8874 113.57 60.0517 113.234 60.3233C111.083 62.0698 109.118 64.0349 107.372 66.187C107.1 66.5224 106.935 66.9321 106.9 67.3627C106.864 67.7932 106.959 68.2246 107.172 68.6004ZM114.831 64.6014L122.835 69.1408C123.166 69.3282 123.542 69.4243 123.922 69.4193C124.303 69.4144 124.675 69.3085 125.002 69.1124C127.177 67.8048 129.535 66.8281 131.998 66.2142C132.367 66.122 132.705 65.9333 132.978 65.6674C133.25 65.4016 133.447 65.0681 133.548 64.7011L136.002 55.8185C137.499 55.722 139 55.722 140.496 55.8185L142.95 64.7011C143.051 65.0681 143.248 65.4016 143.521 65.6674C143.793 65.9333 144.131 66.122 144.501 66.2142C146.963 66.8279 149.321 67.8047 151.496 69.1124C151.822 69.3087 152.194 69.4148 152.575 69.4197C152.956 69.4247 153.331 69.3284 153.662 69.1408L161.667 64.6003C162.794 65.5939 163.857 66.6572 164.85 67.784L160.311 75.7893C160.123 76.1205 160.026 76.4957 160.031 76.8765C160.036 77.2573 160.142 77.6299 160.338 77.9562C161.646 80.132 162.623 82.4901 163.237 84.9531C163.329 85.3225 163.518 85.6607 163.784 85.9332C164.05 86.2057 164.383 86.4027 164.75 86.5041L173.63 88.9584C173.679 89.7129 173.703 90.4642 173.703 91.205C173.703 91.9459 173.679 92.6972 173.63 93.4527L164.75 95.906C164.383 96.0074 164.05 96.2044 163.784 96.4769C163.518 96.7494 163.329 97.0876 163.237 97.457C162.623 99.9201 161.646 102.278 160.338 104.454C160.142 104.78 160.036 105.153 160.031 105.534C160.026 105.914 160.123 106.29 160.311 106.621L164.85 114.627C163.857 115.754 162.794 116.817 161.667 117.81L153.662 113.27C153.331 113.083 152.956 112.987 152.575 112.992C152.195 112.997 151.822 113.102 151.496 113.298C149.321 114.606 146.963 115.583 144.501 116.197C144.131 116.289 143.793 116.478 143.521 116.744C143.248 117.01 143.051 117.343 142.95 117.71L140.496 126.592C139 126.688 137.499 126.688 136.002 126.592L133.548 117.71C133.447 117.343 133.25 117.01 132.978 116.744C132.705 116.478 132.367 116.289 131.998 116.197C129.535 115.583 127.177 114.605 125.002 113.298C124.675 113.102 124.303 112.997 123.922 112.992C123.541 112.987 123.166 113.083 122.835 113.27L114.831 117.81C113.704 116.817 112.641 115.754 111.649 114.627L116.187 106.621C116.375 106.29 116.472 105.914 116.467 105.534C116.462 105.153 116.356 104.78 116.16 104.454C114.852 102.278 113.875 99.9201 113.261 97.457C113.169 97.0876 112.98 96.7494 112.714 96.4769C112.449 96.2044 112.115 96.0074 111.748 95.906L102.867 93.4527C102.819 92.6951 102.795 91.9438 102.795 91.205C102.795 90.4674 102.819 89.7161 102.867 88.9584L111.748 86.5041C112.115 86.4027 112.449 86.2057 112.714 85.9332C112.98 85.6607 113.169 85.3225 113.261 84.9531C113.876 82.4901 114.853 80.132 116.16 77.9562C116.356 77.6299 116.462 77.2573 116.467 76.8765C116.472 76.4957 116.375 76.1205 116.187 75.7893L111.649 67.784C112.641 66.657 113.704 65.594 114.831 64.6014ZM30.9257 67.8564C31.297 69.1893 31.7361 70.5023 32.2414 71.7903C32.3992 72.1924 32.6745 72.5377 33.0314 72.781C33.3883 73.0243 33.8102 73.1545 34.2422 73.1545L43.7309 73.1471C44.8484 74.9417 46.1531 76.6125 47.6234 78.1314L45.3194 87.3236C45.2146 87.7427 45.2385 88.1836 45.3878 88.589C45.5371 88.9944 45.805 89.3454 46.1566 89.5964C48.4141 91.2039 50.8321 92.5729 53.3719 93.6814C53.7679 93.8543 54.2069 93.9037 54.6314 93.8232C55.0559 93.7426 55.4462 93.536 55.7515 93.2301L62.4473 86.5238C64.5062 87.0027 66.6101 87.2616 68.7236 87.2962L73.6001 95.4369C73.7911 95.7553 74.0612 96.0189 74.3843 96.2019C74.7073 96.3848 75.0723 96.481 75.4436 96.481C75.5631 96.481 75.6824 96.4712 75.8002 96.4516C78.5308 95.9947 81.2061 95.2534 83.7824 94.2397C84.1849 94.0818 84.5303 93.8061 84.7736 93.4487C85.0169 93.0914 85.1469 92.6689 85.1464 92.2365L85.139 82.7474C86.9326 81.6292 88.6027 80.3243 90.1216 78.8544L99.3134 81.1587C99.7326 81.2627 100.173 81.2384 100.579 81.0889C100.984 80.9394 101.335 80.6717 101.586 80.3203C103.194 78.0632 104.562 75.6451 105.67 73.1051C105.843 72.709 105.892 72.2701 105.812 71.8456C105.731 71.421 105.525 71.0306 105.219 70.7253L98.5128 64.0284C98.9913 61.9696 99.2505 59.8658 99.2861 57.7524L107.425 52.8751C107.795 52.6528 108.09 52.3239 108.271 51.9314C108.452 51.5389 108.511 51.1009 108.439 50.6747C107.984 47.9434 107.242 45.2676 106.227 42.6914C106.07 42.2892 105.794 41.944 105.437 41.7007C105.081 41.4574 104.659 41.3272 104.227 41.3272L94.7379 41.3346C93.6205 39.54 92.3157 37.8692 90.8455 36.3502L93.1495 27.1581C93.2542 26.739 93.2304 26.298 93.081 25.8927C92.9317 25.4873 92.6638 25.1363 92.3122 24.8853C90.0548 23.2778 87.6368 21.9088 85.097 20.8002C84.7011 20.6271 84.2621 20.5775 83.8375 20.658C83.4129 20.7386 83.0225 20.9454 82.7175 21.2515L76.0216 27.9577C73.9628 27.4789 71.8589 27.22 69.7454 27.1854L64.8688 19.0447C64.6468 18.6737 64.3181 18.3784 63.9255 18.1974C63.533 18.0163 63.0949 17.958 62.6687 18.03C59.9381 18.4869 57.2628 19.2283 54.6865 20.242C54.2841 20.4 53.9387 20.6756 53.6953 21.033C53.452 21.3904 53.3221 21.8128 53.3226 22.2452L53.3299 31.7343C51.5357 32.852 49.8652 34.157 48.3463 35.6273L39.1555 33.3219C38.7363 33.2167 38.2952 33.2404 37.8897 33.39C37.4843 33.5396 37.1334 33.8081 36.883 34.1603C35.2757 36.4182 33.9072 38.8369 32.7995 41.3776C32.6269 41.7735 32.5776 42.2123 32.6581 42.6367C32.7386 43.061 32.9451 43.4513 33.2508 43.7564L39.956 50.4533C39.477 52.512 39.2178 54.6158 39.1828 56.7293L31.0443 61.6066C30.6736 61.8289 30.3786 62.1578 30.1976 62.5503C30.0166 62.9428 29.9581 63.3808 30.0297 63.8071C30.2593 65.1712 30.5583 66.5227 30.9257 67.8564ZM42.4415 59.7881C42.7678 59.5923 43.0362 59.3134 43.2195 58.9799C43.4027 58.6464 43.4941 58.2703 43.4844 57.8899C43.419 55.3521 43.7308 52.8187 44.4098 50.3726C44.5118 50.0057 44.5145 49.6183 44.4175 49.2501C44.3206 48.8818 44.1274 48.546 43.8579 48.277L37.3467 41.7732C38.0028 40.4222 38.7433 39.1139 39.5637 37.856L48.4891 40.0943C48.8586 40.1866 49.2459 40.1792 49.6116 40.0728C49.9774 39.9665 50.3083 39.7649 50.5706 39.4888C52.3179 37.6473 54.3291 36.0757 56.5383 34.8256C56.8696 34.6382 57.1452 34.3661 57.3367 34.0371C57.5283 33.7082 57.629 33.3342 57.6284 32.9536L57.6211 23.7394C58.3356 23.4918 59.0532 23.2672 59.7677 23.0699C60.481 22.8716 61.2124 22.6943 61.952 22.539L66.688 30.4446C66.8814 30.7734 67.1599 31.0438 67.4941 31.2274C67.8284 31.411 68.206 31.5009 68.5871 31.4876C71.1238 31.4236 73.6559 31.7355 76.1013 32.4131C76.4682 32.5163 76.856 32.5195 77.2245 32.4225C77.5931 32.3254 77.929 32.1316 78.1976 31.8612L84.7004 25.348C86.051 26.0043 87.3587 26.7452 88.616 27.5663L86.3791 36.4929C86.2868 36.8625 86.2942 37.2499 86.4005 37.6157C86.5069 37.9815 86.7084 38.3124 86.9845 38.5748C88.8259 40.3213 90.3966 42.3326 91.645 44.5424C91.8323 44.8736 92.1042 45.1491 92.4329 45.3408C92.7616 45.5326 93.1352 45.6336 93.5157 45.6337L102.731 45.6263C102.979 46.343 103.204 47.0607 103.401 47.7732C103.598 48.4846 103.776 49.216 103.931 49.9579L96.0275 54.6935C95.7012 54.8893 95.4328 55.1682 95.2495 55.5017C95.0663 55.8352 94.9749 56.2113 94.9846 56.5917C95.0501 59.1295 94.7382 61.6629 94.0592 64.109C93.9572 64.4759 93.9545 64.8633 94.0515 65.2315C94.1485 65.5998 94.3416 65.9356 94.6111 66.2046L101.123 72.7083C100.467 74.0589 99.7261 75.3669 98.9054 76.6244L89.98 74.3873C89.6107 74.2942 89.2233 74.3012 88.8576 74.4076C88.4919 74.514 88.1612 74.716 87.8995 74.9927C86.1522 76.8337 84.141 78.4046 81.9317 79.6539C81.6003 79.8414 81.3245 80.1137 81.1328 80.4428C80.9411 80.7719 80.8403 81.146 80.8406 81.5269L80.8479 90.7421C80.1334 90.9898 79.4158 91.2144 78.7014 91.4116C77.988 91.6099 77.2567 91.7873 76.517 91.9426L71.781 84.0369C71.59 83.7185 71.3198 83.455 70.9968 83.272C70.6737 83.0891 70.3088 82.9929 69.9376 82.9928L69.882 82.9939C67.3453 83.0575 64.8132 82.7456 62.3677 82.0684C62.0008 81.9658 61.6131 81.9628 61.2447 82.0598C60.8762 82.1568 60.5403 82.3503 60.2714 82.6204L53.7685 89.1336C52.418 88.4773 51.1102 87.7364 49.8529 86.9153L52.0898 77.9887C52.1821 77.6191 52.1748 77.2317 52.0684 76.8659C51.962 76.5002 51.7605 76.1692 51.4844 75.9068C49.643 74.1603 48.0723 72.149 46.8239 69.9393C46.6366 69.6081 46.3647 69.3325 46.036 69.1408C45.7074 68.949 45.3337 68.848 44.9532 68.848H44.9511L35.7382 68.8553C35.4895 68.1386 35.265 67.4209 35.0678 66.7084C34.8705 65.997 34.6932 65.2656 34.538 64.5237L42.4415 59.7881Z" fill="#1F384E"/>
<path d="M80.9257 180.856C81.297 182.189 81.7361 183.502 82.2414 184.79C82.3992 185.192 82.6745 185.538 83.0314 185.781C83.3883 186.024 83.8102 186.154 84.2422 186.154L93.7309 186.147C94.8484 187.942 96.1531 189.612 97.6234 191.131L95.3194 200.324C95.2146 200.743 95.2385 201.184 95.3878 201.589C95.5371 201.994 95.805 202.345 96.1566 202.596C98.4141 204.204 100.832 205.573 103.372 206.681C103.768 206.854 104.207 206.904 104.631 206.823C105.056 206.743 105.446 206.536 105.751 206.23L112.447 199.524C114.506 200.003 116.61 200.262 118.724 200.296L123.6 208.437C123.791 208.755 124.061 209.019 124.384 209.202C124.707 209.385 125.072 209.481 125.444 209.481C125.563 209.481 125.682 209.471 125.8 209.452C128.531 208.995 131.206 208.253 133.782 207.24C134.185 207.082 134.53 206.806 134.774 206.449C135.017 206.091 135.147 205.669 135.146 205.237L135.139 195.747C136.933 194.629 138.603 193.324 140.122 191.854L149.313 194.159C149.733 194.263 150.173 194.238 150.579 194.089C150.984 193.939 151.335 193.672 151.586 193.32C153.194 191.063 154.562 188.645 155.67 186.105C155.843 185.709 155.892 185.27 155.812 184.846C155.731 184.421 155.525 184.031 155.219 183.725L148.513 177.028C148.991 174.97 149.251 172.866 149.286 170.752L157.425 165.875C157.795 165.653 158.09 165.324 158.271 164.931C158.452 164.539 158.511 164.101 158.439 163.675C157.984 160.943 157.242 158.268 156.227 155.691C156.07 155.289 155.794 154.944 155.437 154.701C155.081 154.457 154.659 154.327 154.227 154.327L144.738 154.335C143.621 152.54 142.316 150.869 140.845 149.35L143.149 140.158C143.254 139.739 143.23 139.298 143.081 138.893C142.932 138.487 142.664 138.136 142.312 137.885C140.055 136.278 137.637 134.909 135.097 133.8C134.701 133.627 134.262 133.578 133.837 133.658C133.413 133.739 133.023 133.945 132.717 134.252L126.022 140.958C123.963 140.479 121.859 140.22 119.745 140.185L114.869 132.045C114.647 131.674 114.318 131.378 113.926 131.197C113.533 131.016 113.095 130.958 112.669 131.03C109.938 131.487 107.263 132.228 104.687 133.242C104.284 133.4 103.939 133.676 103.695 134.033C103.452 134.39 103.322 134.813 103.323 135.245L103.33 144.734C101.536 145.852 99.8652 147.157 98.3463 148.627L89.1555 146.322C88.7363 146.217 88.2952 146.24 87.8897 146.39C87.4843 146.54 87.1334 146.808 86.883 147.16C85.2757 149.418 83.9072 151.837 82.7995 154.378C82.6269 154.774 82.5776 155.212 82.6581 155.637C82.7386 156.061 82.9451 156.451 83.2508 156.756L89.956 163.453C89.477 165.512 89.2178 167.616 89.1828 169.729L81.0443 174.607C80.6736 174.829 80.3786 175.158 80.1976 175.55C80.0166 175.943 79.9581 176.381 80.0297 176.807C80.2593 178.171 80.5583 179.523 80.9257 180.856ZM92.4415 172.788C92.7678 172.592 93.0362 172.313 93.2195 171.98C93.4027 171.646 93.4941 171.27 93.4844 170.89C93.419 168.352 93.7308 165.819 94.4098 163.373C94.5118 163.006 94.5145 162.618 94.4175 162.25C94.3206 161.882 94.1274 161.546 93.8579 161.277L87.3467 154.773C88.0028 153.422 88.7433 152.114 89.5637 150.856L98.4891 153.094C98.8586 153.187 99.2459 153.179 99.6116 153.073C99.9774 152.966 100.308 152.765 100.571 152.489C102.318 150.647 104.329 149.076 106.538 147.826C106.87 147.638 107.145 147.366 107.337 147.037C107.528 146.708 107.629 146.334 107.628 145.954L107.621 136.739C108.336 136.492 109.053 136.267 109.768 136.07C110.481 135.872 111.212 135.694 111.952 135.539L116.688 143.445C116.881 143.773 117.16 144.044 117.494 144.227C117.828 144.411 118.206 144.501 118.587 144.488C121.124 144.424 123.656 144.736 126.101 145.413C126.468 145.516 126.856 145.52 127.225 145.422C127.593 145.325 127.929 145.132 128.198 144.861L134.7 138.348C136.051 139.004 137.359 139.745 138.616 140.566L136.379 149.493C136.287 149.862 136.294 150.25 136.401 150.616C136.507 150.981 136.708 151.312 136.985 151.575C138.826 153.321 140.397 155.333 141.645 157.542C141.832 157.874 142.104 158.149 142.433 158.341C142.762 158.533 143.135 158.634 143.516 158.634L152.731 158.626C152.979 159.343 153.204 160.061 153.401 160.773C153.598 161.485 153.776 162.216 153.931 162.958L146.027 167.694C145.701 167.889 145.433 168.168 145.25 168.502C145.066 168.835 144.975 169.211 144.985 169.592C145.05 172.13 144.738 174.663 144.059 177.109C143.957 177.476 143.955 177.863 144.051 178.232C144.148 178.6 144.342 178.936 144.611 179.205L151.123 185.708C150.467 187.059 149.726 188.367 148.905 189.624L139.98 187.387C139.611 187.294 139.223 187.301 138.858 187.408C138.492 187.514 138.161 187.716 137.899 187.993C136.152 189.834 134.141 191.405 131.932 192.654C131.6 192.841 131.325 193.114 131.133 193.443C130.941 193.772 130.84 194.146 130.841 194.527L130.848 203.742C130.133 203.99 129.416 204.214 128.701 204.412C127.988 204.61 127.257 204.787 126.517 204.943L121.781 197.037C121.59 196.719 121.32 196.455 120.997 196.272C120.674 196.089 120.309 195.993 119.938 195.993L119.882 195.994C117.345 196.057 114.813 195.746 112.368 195.068C112.001 194.966 111.613 194.963 111.245 195.06C110.876 195.157 110.54 195.35 110.271 195.62L103.768 202.134C102.418 201.477 101.11 200.736 99.8529 199.915L102.09 190.989C102.182 190.619 102.175 190.232 102.068 189.866C101.962 189.5 101.76 189.169 101.484 188.907C99.643 187.16 98.0723 185.149 96.8239 182.939C96.6366 182.608 96.3647 182.333 96.036 182.141C95.7074 181.949 95.3337 181.848 94.9532 181.848H94.9511L85.7382 181.855C85.4895 181.139 85.265 180.421 85.0678 179.708C84.8705 178.997 84.6932 178.266 84.538 177.524L92.4415 172.788Z" fill="#1F384E"/>
<path d="M20.755 142.657C21.0578 143.744 21.416 144.815 21.8281 145.865C21.9568 146.193 22.1814 146.475 22.4725 146.673C22.7635 146.871 23.1077 146.978 23.46 146.978L31.1991 146.972C32.1105 148.435 33.1747 149.798 34.3738 151.036L32.4946 158.532C32.4092 158.874 32.4287 159.234 32.5505 159.564C32.6723 159.895 32.8907 160.181 33.1775 160.386C35.0187 161.697 36.9909 162.813 39.0624 163.717C39.3854 163.858 39.7434 163.898 40.0896 163.833C40.4358 163.767 40.7542 163.598 41.0032 163.349L46.4644 157.88C48.1436 158.271 49.8595 158.482 51.5833 158.51L55.5607 165.149C55.7164 165.408 55.9368 165.623 56.2003 165.772C56.4638 165.922 56.7614 166 57.0642 166C57.1617 166 57.259 165.992 57.3551 165.976C59.5822 165.603 61.7642 164.999 63.8655 164.172C64.1937 164.043 64.4754 163.819 64.6739 163.527C64.8724 163.236 64.9783 162.891 64.9779 162.539L64.972 154.801C66.4348 153.889 67.797 152.824 69.0358 151.626L76.5327 153.505C76.8746 153.59 77.2341 153.57 77.5646 153.448C77.8951 153.326 78.1813 153.108 78.3862 152.821C79.6974 150.981 80.8138 149.009 81.7176 146.937C81.8584 146.614 81.8987 146.256 81.833 145.91C81.7674 145.564 81.5989 145.246 81.3495 144.997L75.8798 139.535C76.27 137.856 76.4814 136.141 76.5104 134.417L83.1483 130.44C83.4506 130.259 83.6912 129.991 83.8388 129.671C83.9865 129.35 84.0342 128.993 83.9758 128.646C83.6042 126.418 82.9996 124.236 82.1719 122.135C82.0432 121.808 81.8186 121.526 81.5275 121.328C81.2364 121.129 80.8923 121.023 80.54 121.023L72.8009 121.029C71.8895 119.566 70.8253 118.203 69.6262 116.964L71.5053 109.468C71.5908 109.127 71.5713 108.767 71.4495 108.436C71.3277 108.106 71.1092 107.82 70.8225 107.615C68.9813 106.304 67.0092 105.188 64.9377 104.284C64.6147 104.142 64.2567 104.102 63.9104 104.168C63.5641 104.233 63.2457 104.402 62.9969 104.652L57.5357 110.12C55.8565 109.73 54.1406 109.519 52.4168 109.491L48.4394 102.852C48.2583 102.549 47.9902 102.309 47.67 102.161C47.3498 102.013 46.9926 101.966 46.6449 102.024C44.4178 102.397 42.2358 103.002 40.1346 103.828C39.8064 103.957 39.5246 104.182 39.3262 104.473C39.1277 104.765 39.0217 105.109 39.0221 105.462L39.0281 113.2C37.5647 114.112 36.2022 115.176 34.9634 116.375L27.4673 114.495C27.1254 114.409 26.7656 114.428 26.4349 114.55C26.1043 114.672 25.8181 114.891 25.6138 115.178C24.3029 117.02 23.1868 118.992 22.2833 121.064C22.1425 121.387 22.1023 121.745 22.168 122.091C22.2336 122.437 22.4021 122.755 22.6514 123.004L28.1202 128.465C27.7295 130.144 27.5181 131.86 27.4896 133.583L20.8517 137.561C20.5494 137.742 20.3088 138.01 20.1612 138.33C20.0136 138.65 19.9658 139.007 20.0242 139.355C20.2115 140.467 20.4554 141.57 20.755 142.657ZM30.1474 136.078C30.4135 135.918 30.6325 135.69 30.7819 135.418C30.9314 135.147 31.0059 134.84 30.998 134.53C30.9446 132.46 31.199 130.394 31.7528 128.399C31.836 128.1 31.8382 127.784 31.7591 127.484C31.68 127.184 31.5225 126.91 31.3027 126.69L25.9921 121.387C26.5272 120.285 27.1311 119.218 27.8002 118.192L35.0799 120.018C35.3812 120.093 35.6972 120.087 35.9955 120C36.2937 119.913 36.5636 119.749 36.7776 119.524C38.2027 118.022 39.8431 116.74 41.6449 115.721C41.9152 115.568 42.1399 115.346 42.2961 115.078C42.4524 114.81 42.5345 114.505 42.534 114.194L42.528 106.68C43.1108 106.478 43.6961 106.295 44.2788 106.134C44.8606 105.973 45.4571 105.828 46.0604 105.701L49.9231 112.148C50.0808 112.416 50.308 112.637 50.5806 112.787C50.8532 112.936 51.1612 113.01 51.472 112.999C53.5409 112.947 55.6062 113.201 57.6007 113.754C57.8999 113.838 58.2162 113.84 58.5168 113.761C58.8174 113.682 59.0914 113.524 59.3104 113.304L64.6142 107.992C65.7157 108.527 66.7824 109.132 67.8078 109.801L65.9834 117.081C65.9081 117.382 65.9141 117.698 66.0008 117.996C66.0876 118.295 66.252 118.564 66.4772 118.778C67.979 120.203 69.2601 121.843 70.2783 123.645C70.4311 123.915 70.6528 124.14 70.9209 124.296C71.189 124.452 71.4937 124.535 71.804 124.535L79.3199 124.529C79.5227 125.113 79.7058 125.699 79.8667 126.28C80.0276 126.86 80.1722 127.456 80.2988 128.061L73.8527 131.923C73.5866 132.083 73.3676 132.31 73.2182 132.582C73.0687 132.854 72.9942 133.161 73.0021 133.471C73.0555 135.54 72.8011 137.606 72.2474 139.601C72.1641 139.9 72.1619 140.216 72.241 140.517C72.3201 140.817 72.4777 141.091 72.6975 141.31L78.0089 146.614C77.4735 147.715 76.8693 148.782 76.1999 149.807L68.9203 147.983C68.6191 147.907 68.3031 147.913 68.0048 147.999C67.7066 148.086 67.4368 148.251 67.2234 148.477C65.7983 149.978 64.1579 151.259 62.356 152.278C62.0857 152.431 61.8608 152.653 61.7044 152.921C61.5481 153.189 61.4658 153.495 61.4661 153.805L61.4721 161.32C60.8893 161.522 60.304 161.705 59.7213 161.866C59.1395 162.028 58.543 162.172 57.9397 162.299L54.077 155.852C53.9212 155.592 53.7009 155.378 53.4374 155.228C53.1739 155.079 52.8763 155.001 52.5735 155.001L52.5281 155.002C50.4592 155.053 48.394 154.799 46.3994 154.247C46.1002 154.163 45.784 154.161 45.4835 154.24C45.1829 154.319 44.909 154.477 44.6897 154.697L39.3858 160.008C38.2843 159.473 37.2177 158.869 36.1923 158.199L38.0166 150.92C38.092 150.618 38.086 150.303 37.9992 150.004C37.9125 149.706 37.7481 149.436 37.5229 149.222C36.021 147.798 34.7399 146.158 33.7217 144.356C33.569 144.086 33.3472 143.861 33.0791 143.705C32.8111 143.548 32.5063 143.466 32.196 143.466H32.1942L24.6801 143.472C24.4773 142.887 24.2942 142.302 24.1333 141.721C23.9725 141.141 23.8278 140.544 23.7012 139.939L30.1474 136.078Z" fill="#1F384E"/>
<path d="M20.755 142.657C21.0578 143.744 21.416 144.815 21.8281 145.865C21.9568 146.193 22.1814 146.475 22.4725 146.673C22.7635 146.871 23.1077 146.978 23.46 146.978L31.1991 146.972C32.1105 148.435 33.1747 149.798 34.3738 151.036L32.4946 158.532C32.4092 158.874 32.4287 159.234 32.5505 159.564C32.6723 159.895 32.8907 160.181 33.1775 160.386C35.0187 161.697 36.9909 162.813 39.0624 163.717C39.3854 163.858 39.7434 163.898 40.0896 163.833C40.4358 163.767 40.7542 163.598 41.0032 163.349L46.4644 157.88C48.1436 158.271 49.8595 158.482 51.5833 158.51L55.5607 165.149C55.7164 165.408 55.9368 165.623 56.2003 165.772C56.4638 165.922 56.7614 166 57.0642 166C57.1617 166 57.259 165.992 57.3551 165.976C59.5822 165.603 61.7642 164.999 63.8655 164.172C64.1937 164.043 64.4754 163.819 64.6739 163.527C64.8724 163.236 64.9783 162.891 64.9779 162.539L64.972 154.801C66.4348 153.889 67.797 152.824 69.0358 151.626L76.5327 153.505C76.8746 153.59 77.2341 153.57 77.5646 153.448C77.8951 153.326 78.1813 153.108 78.3862 152.821C79.6974 150.981 80.8138 149.009 81.7176 146.937C81.8584 146.614 81.8987 146.256 81.833 145.91C81.7674 145.564 81.5989 145.246 81.3495 144.997L75.8798 139.535C76.27 137.856 76.4814 136.141 76.5104 134.417L83.1483 130.44C83.4506 130.259 83.6912 129.991 83.8388 129.671C83.9865 129.35 84.0342 128.993 83.9758 128.646C83.6042 126.418 82.9996 124.236 82.1719 122.135C82.0432 121.808 81.8186 121.526 81.5275 121.328C81.2364 121.129 80.8923 121.023 80.54 121.023L72.8009 121.029C71.8895 119.566 70.8253 118.203 69.6262 116.964L71.5053 109.468C71.5908 109.127 71.5713 108.767 71.4495 108.436C71.3277 108.106 71.1092 107.82 70.8225 107.615C68.9813 106.304 67.0092 105.188 64.9377 104.284C64.6147 104.142 64.2567 104.102 63.9104 104.168C63.5641 104.233 63.2457 104.402 62.9969 104.652L57.5357 110.12C55.8565 109.73 54.1406 109.519 52.4168 109.491L48.4394 102.852C48.2583 102.549 47.9902 102.309 47.67 102.161C47.3498 102.013 46.9926 101.966 46.6449 102.024C44.4178 102.397 42.2358 103.002 40.1346 103.828C39.8064 103.957 39.5246 104.182 39.3262 104.473C39.1277 104.765 39.0217 105.109 39.0221 105.462L39.0281 113.2C37.5647 114.112 36.2022 115.176 34.9634 116.375L27.4673 114.495C27.1254 114.409 26.7656 114.428 26.4349 114.55C26.1043 114.672 25.8181 114.891 25.6138 115.178C24.3029 117.02 23.1868 118.992 22.2833 121.064C22.1425 121.387 22.1023 121.745 22.168 122.091C22.2336 122.437 22.4021 122.755 22.6514 123.004L28.1202 128.465C27.7295 130.144 27.5181 131.86 27.4896 133.583L20.8517 137.561C20.5494 137.742 20.3088 138.01 20.1612 138.33C20.0136 138.65 19.9658 139.007 20.0242 139.355C20.2115 140.467 20.4554 141.57 20.755 142.657ZM30.1474 136.078C30.4135 135.918 30.6325 135.69 30.7819 135.418C30.9314 135.147 31.0059 134.84 30.998 134.53C30.9446 132.46 31.199 130.394 31.7528 128.399C31.836 128.1 31.8382 127.784 31.7591 127.484C31.68 127.184 31.5225 126.91 31.3027 126.69L25.9921 121.387C26.5272 120.285 27.1311 119.218 27.8002 118.192L35.0799 120.018C35.3812 120.093 35.6972 120.087 35.9955 120C36.2937 119.913 36.5636 119.749 36.7776 119.524C38.2027 118.022 39.8431 116.74 41.6449 115.721C41.9152 115.568 42.1399 115.346 42.2961 115.078C42.4524 114.81 42.5345 114.505 42.534 114.194L42.528 106.68C43.1108 106.478 43.6961 106.295 44.2788 106.134C44.8606 105.973 45.4571 105.828 46.0604 105.701L49.9231 112.148C50.0808 112.416 50.308 112.637 50.5806 112.787C50.8532 112.936 51.1612 113.01 51.472 112.999C53.5409 112.947 55.6062 113.201 57.6007 113.754C57.8999 113.838 58.2162 113.84 58.5168 113.761C58.8174 113.682 59.0914 113.524 59.3104 113.304L64.6142 107.992C65.7157 108.527 66.7824 109.132 67.8078 109.801L65.9834 117.081C65.9081 117.382 65.9141 117.698 66.0008 117.996C66.0876 118.295 66.252 118.564 66.4772 118.778C67.979 120.203 69.2601 121.843 70.2783 123.645C70.4311 123.915 70.6528 124.14 70.9209 124.296C71.189 124.452 71.4937 124.535 71.804 124.535L79.3199 124.529C79.5227 125.113 79.7058 125.699 79.8667 126.28C80.0276 126.86 80.1722 127.456 80.2988 128.061L73.8527 131.923C73.5866 132.083 73.3676 132.31 73.2182 132.582C73.0687 132.854 72.9942 133.161 73.0021 133.471C73.0555 135.54 72.8011 137.606 72.2474 139.601C72.1641 139.9 72.1619 140.216 72.241 140.517C72.3201 140.817 72.4777 141.091 72.6975 141.31L78.0089 146.614C77.4735 147.715 76.8693 148.782 76.1999 149.807L68.9203 147.983C68.6191 147.907 68.3031 147.913 68.0048 147.999C67.7066 148.086 67.4368 148.251 67.2234 148.477C65.7983 149.978 64.1579 151.259 62.356 152.278C62.0857 152.431 61.8608 152.653 61.7044 152.921C61.5481 153.189 61.4658 153.495 61.4661 153.805L61.4721 161.32C60.8893 161.522 60.304 161.705 59.7213 161.866C59.1395 162.028 58.543 162.172 57.9397 162.299L54.077 155.852C53.9212 155.592 53.7009 155.378 53.4374 155.228C53.1739 155.079 52.8763 155.001 52.5735 155.001L52.5281 155.002C50.4592 155.053 48.394 154.799 46.3994 154.247C46.1002 154.163 45.784 154.161 45.4835 154.24C45.1829 154.319 44.909 154.477 44.6897 154.697L39.3858 160.008C38.2843 159.473 37.2177 158.869 36.1923 158.199L38.0166 150.92C38.092 150.618 38.086 150.303 37.9992 150.004C37.9125 149.706 37.7481 149.436 37.5229 149.222C36.021 147.798 34.7399 146.158 33.7217 144.356C33.569 144.086 33.3472 143.861 33.0791 143.705C32.8111 143.548 32.5063 143.466 32.196 143.466H32.1942L24.6801 143.472C24.4773 142.887 24.2942 142.302 24.1333 141.721C23.9725 141.141 23.8278 140.544 23.7012 139.939L30.1474 136.078Z" fill="#1F384E"/>
<path d="M47.791 134.631L49.0522 135.031C48.8589 135.734 48.5366 136.257 48.0854 136.6C47.6372 136.94 47.0674 137.11 46.376 137.11C45.5205 137.11 44.8174 136.818 44.2666 136.235C43.7158 135.649 43.4404 134.85 43.4404 133.836C43.4404 132.764 43.7173 131.932 44.271 131.34C44.8247 130.745 45.5527 130.448 46.4551 130.448C47.2431 130.448 47.8833 130.681 48.3755 131.146C48.6684 131.422 48.8882 131.817 49.0346 132.333L47.7471 132.641C47.6709 132.307 47.5112 132.043 47.268 131.85C47.0278 131.656 46.7348 131.56 46.3891 131.56C45.9116 131.56 45.5234 131.731 45.2246 132.074C44.9287 132.417 44.7807 132.972 44.7807 133.739C44.7807 134.554 44.9272 135.134 45.2202 135.479C45.5132 135.825 45.894 135.998 46.3628 135.998C46.7085 135.998 47.0058 135.888 47.2549 135.668C47.5039 135.449 47.6826 135.103 47.791 134.631ZM49.5732 134.904L50.8389 134.781C50.915 135.206 51.0688 135.518 51.3003 135.717C51.5347 135.916 51.8496 136.016 52.2451 136.016C52.6641 136.016 52.979 135.928 53.1899 135.752C53.4038 135.573 53.5107 135.365 53.5107 135.128C53.5107 134.976 53.4653 134.847 53.3745 134.741C53.2866 134.633 53.1313 134.539 52.9087 134.46C52.7563 134.407 52.4092 134.313 51.8672 134.179C51.1699 134.006 50.6807 133.793 50.3994 133.542C50.0039 133.187 49.8062 132.755 49.8062 132.245C49.8062 131.917 49.8984 131.611 50.083 131.327C50.2705 131.04 50.5386 130.821 50.8872 130.672C51.2388 130.522 51.6621 130.448 52.1572 130.448C52.9658 130.448 53.5737 130.625 53.981 130.979C54.3911 131.334 54.6064 131.807 54.627 132.399L53.3262 132.456C53.2705 132.125 53.1504 131.888 52.9658 131.744C52.7842 131.598 52.5103 131.524 52.144 131.524C51.7661 131.524 51.4702 131.602 51.2563 131.757C51.1187 131.857 51.0498 131.99 51.0498 132.157C51.0498 132.31 51.1143 132.44 51.2432 132.548C51.4072 132.686 51.8057 132.83 52.4385 132.979C53.0713 133.128 53.5386 133.284 53.8403 133.445C54.145 133.603 54.3823 133.821 54.5522 134.1C54.7251 134.375 54.8115 134.716 54.8115 135.124C54.8115 135.493 54.709 135.838 54.5039 136.161C54.2988 136.483 54.0088 136.723 53.6338 136.881C53.2588 137.037 52.7915 137.114 52.2319 137.114C51.4175 137.114 50.792 136.927 50.3555 136.552C49.9189 136.174 49.6582 135.625 49.5732 134.904ZM55.3721 133.818C55.3721 133.162 55.4702 132.611 55.6665 132.166C55.813 131.838 56.0122 131.543 56.2642 131.283C56.5191 131.022 56.7974 130.829 57.0991 130.703C57.5005 130.533 57.9634 130.448 58.4878 130.448C59.437 130.448 60.1958 130.742 60.7642 131.331C61.3355 131.92 61.6211 132.739 61.6211 133.788C61.6211 134.828 61.3384 135.642 60.773 136.231C60.2075 136.817 59.4517 137.11 58.5054 137.11C57.5474 137.11 56.7857 136.818 56.2202 136.235C55.6548 135.649 55.3721 134.844 55.3721 133.818ZM56.7124 133.774C56.7124 134.504 56.8809 135.058 57.2178 135.436C57.5547 135.811 57.9824 135.998 58.501 135.998C59.0196 135.998 59.4444 135.812 59.7754 135.44C60.1094 135.065 60.2764 134.504 60.2764 133.757C60.2764 133.019 60.1138 132.468 59.7886 132.104C59.4663 131.741 59.0371 131.56 58.501 131.56C57.9649 131.56 57.5327 131.744 57.2046 132.113C56.8765 132.479 56.7124 133.033 56.7124 133.774Z" fill="#1F384E"/>
<path d="M116.841 91.6313V90.5459H119.645V93.1123C119.373 93.376 118.977 93.6089 118.459 93.811C117.943 94.0103 117.42 94.1099 116.89 94.1099C116.216 94.1099 115.629 93.9692 115.128 93.688C114.627 93.4038 114.25 92.9995 113.998 92.4751C113.746 91.9478 113.62 91.375 113.62 90.7568C113.62 90.0859 113.761 89.4897 114.042 88.9683C114.323 88.4468 114.735 88.0469 115.277 87.7686C115.69 87.5547 116.204 87.4478 116.819 87.4478C117.619 87.4478 118.243 87.6162 118.692 87.9531C119.143 88.2871 119.433 88.75 119.562 89.3418L118.27 89.5835C118.179 89.2671 118.007 89.0181 117.756 88.8364C117.507 88.6519 117.194 88.5596 116.819 88.5596C116.251 88.5596 115.798 88.7397 115.462 89.1001C115.128 89.4604 114.961 89.9951 114.961 90.7041C114.961 91.4688 115.131 92.043 115.47 92.4268C115.81 92.8076 116.256 92.998 116.806 92.998C117.079 92.998 117.351 92.9453 117.624 92.8398C117.899 92.7314 118.135 92.6011 118.331 92.4487V91.6313H116.841ZM120.285 91.6006C120.285 91.1904 120.386 90.7935 120.588 90.4097C120.79 90.0259 121.076 89.7329 121.445 89.5308C121.817 89.3286 122.232 89.2275 122.689 89.2275C123.395 89.2275 123.973 89.4575 124.424 89.9175C124.876 90.3745 125.101 90.9531 125.101 91.6533C125.101 92.3594 124.873 92.9453 124.416 93.4111C123.962 93.874 123.389 94.1055 122.697 94.1055C122.27 94.1055 121.861 94.0088 121.471 93.8154C121.085 93.6221 120.79 93.3394 120.588 92.9673C120.386 92.5923 120.285 92.1367 120.285 91.6006ZM121.55 91.6665C121.55 92.1294 121.66 92.4839 121.88 92.73C122.1 92.9761 122.371 93.0991 122.693 93.0991C123.015 93.0991 123.285 92.9761 123.502 92.73C123.721 92.4839 123.831 92.1265 123.831 91.6577C123.831 91.2007 123.721 90.8491 123.502 90.603C123.285 90.3569 123.015 90.2339 122.693 90.2339C122.371 90.2339 122.1 90.3569 121.88 90.603C121.66 90.8491 121.55 91.2036 121.55 91.6665ZM127.086 94L125.205 89.333H126.501L127.38 91.7148L127.635 92.5103C127.702 92.3081 127.745 92.1748 127.762 92.1104C127.803 91.9785 127.847 91.8467 127.894 91.7148L128.782 89.333H130.052L128.197 94H127.086ZM133.245 92.5146L134.475 92.7212C134.317 93.1724 134.067 93.5166 133.724 93.7539C133.384 93.9883 132.958 94.1055 132.445 94.1055C131.634 94.1055 131.033 93.8403 130.643 93.3101C130.336 92.8853 130.182 92.3491 130.182 91.7017C130.182 90.9282 130.384 90.3232 130.788 89.8867C131.193 89.4473 131.704 89.2275 132.322 89.2275C133.016 89.2275 133.564 89.4575 133.966 89.9175C134.367 90.3745 134.559 91.0762 134.541 92.0225H131.447C131.456 92.3887 131.556 92.6743 131.746 92.8794C131.937 93.0815 132.174 93.1826 132.458 93.1826C132.652 93.1826 132.814 93.1299 132.946 93.0244C133.078 92.9189 133.177 92.749 133.245 92.5146ZM133.315 91.2666C133.306 90.9092 133.214 90.6382 133.038 90.4536C132.863 90.2661 132.649 90.1724 132.397 90.1724C132.127 90.1724 131.905 90.2705 131.729 90.4668C131.553 90.6631 131.467 90.9297 131.469 91.2666H133.315ZM136.464 94H135.229V89.333H136.376V89.9966C136.573 89.6831 136.748 89.4766 136.904 89.377C137.062 89.2773 137.24 89.2275 137.44 89.2275C137.721 89.2275 137.992 89.3052 138.253 89.4604L137.87 90.5371C137.662 90.4023 137.469 90.335 137.29 90.335C137.117 90.335 136.971 90.3833 136.851 90.48C136.731 90.5737 136.635 90.7451 136.565 90.9941C136.498 91.2432 136.464 91.7646 136.464 92.5586V94ZM142.764 94H141.529V91.6182C141.529 91.1143 141.503 90.7891 141.45 90.6426C141.397 90.4932 141.311 90.3774 141.191 90.2954C141.073 90.2134 140.931 90.1724 140.764 90.1724C140.551 90.1724 140.359 90.231 140.189 90.3481C140.019 90.4653 139.902 90.6206 139.837 90.814C139.776 91.0073 139.745 91.3647 139.745 91.8862V94H138.51V89.333H139.657V90.0186C140.064 89.4912 140.577 89.2275 141.195 89.2275C141.468 89.2275 141.717 89.2773 141.942 89.377C142.168 89.4736 142.338 89.5981 142.452 89.7505C142.569 89.9028 142.65 90.0757 142.694 90.269C142.74 90.4624 142.764 90.7393 142.764 91.0996V94ZM143.658 89.333H144.797V89.9702C145.204 89.4751 145.689 89.2275 146.251 89.2275C146.55 89.2275 146.809 89.2891 147.029 89.4121C147.249 89.5352 147.429 89.7212 147.57 89.9702C147.775 89.7212 147.996 89.5352 148.233 89.4121C148.47 89.2891 148.724 89.2275 148.993 89.2275C149.336 89.2275 149.626 89.2979 149.864 89.4385C150.101 89.5762 150.278 89.7798 150.395 90.0493C150.48 90.2485 150.523 90.5708 150.523 91.0161V94H149.288V91.3325C149.288 90.8696 149.245 90.5708 149.16 90.436C149.046 90.2603 148.87 90.1724 148.633 90.1724C148.46 90.1724 148.298 90.2251 148.145 90.3306C147.993 90.436 147.883 90.5913 147.816 90.7964C147.748 90.9985 147.715 91.3193 147.715 91.7588V94H146.48V91.4424C146.48 90.9883 146.458 90.6953 146.414 90.5635C146.37 90.4316 146.301 90.3335 146.207 90.269C146.116 90.2046 145.992 90.1724 145.834 90.1724C145.643 90.1724 145.472 90.2236 145.32 90.3262C145.167 90.4287 145.057 90.5767 144.99 90.77C144.926 90.9634 144.893 91.2842 144.893 91.7324V94H143.658V89.333ZM154.19 92.5146L155.421 92.7212C155.263 93.1724 155.012 93.5166 154.669 93.7539C154.329 93.9883 153.903 94.1055 153.39 94.1055C152.579 94.1055 151.978 93.8403 151.589 93.3101C151.281 92.8853 151.127 92.3491 151.127 91.7017C151.127 90.9282 151.329 90.3232 151.734 89.8867C152.138 89.4473 152.649 89.2275 153.267 89.2275C153.962 89.2275 154.51 89.4575 154.911 89.9175C155.312 90.3745 155.504 91.0762 155.487 92.0225H152.393C152.402 92.3887 152.501 92.6743 152.692 92.8794C152.882 93.0815 153.119 93.1826 153.404 93.1826C153.597 93.1826 153.76 93.1299 153.891 93.0244C154.023 92.9189 154.123 92.749 154.19 92.5146ZM154.261 91.2666C154.252 90.9092 154.159 90.6382 153.984 90.4536C153.808 90.2661 153.594 90.1724 153.342 90.1724C153.073 90.1724 152.85 90.2705 152.674 90.4668C152.498 90.6631 152.412 90.9297 152.415 91.2666H154.261ZM160.472 94H159.238V91.6182C159.238 91.1143 159.211 90.7891 159.159 90.6426C159.106 90.4932 159.019 90.3774 158.899 90.2954C158.782 90.2134 158.64 90.1724 158.473 90.1724C158.259 90.1724 158.067 90.231 157.897 90.3481C157.727 90.4653 157.61 90.6206 157.546 90.814C157.484 91.0073 157.453 91.3647 157.453 91.8862V94H156.219V89.333H157.366V90.0186C157.773 89.4912 158.285 89.2275 158.904 89.2275C159.176 89.2275 159.425 89.2773 159.651 89.377C159.876 89.4736 160.046 89.5981 160.16 89.7505C160.278 89.9028 160.358 90.0757 160.402 90.269C160.449 90.4624 160.472 90.7393 160.472 91.0996V94ZM163.599 89.333V90.3174H162.756V92.1982C162.756 92.5791 162.763 92.8018 162.778 92.8662C162.795 92.9277 162.832 92.979 162.888 93.02C162.946 93.061 163.016 93.0815 163.098 93.0815C163.213 93.0815 163.378 93.042 163.595 92.9629L163.701 93.9209C163.413 94.0439 163.088 94.1055 162.725 94.1055C162.502 94.1055 162.302 94.0688 162.123 93.9956C161.944 93.9194 161.812 93.8228 161.727 93.7056C161.645 93.5854 161.588 93.4243 161.556 93.2222C161.53 93.0786 161.516 92.7886 161.516 92.3521V90.3174H160.95V89.333H161.516V88.4058L162.756 87.6851V89.333H163.599Z" fill="#1F384E"/>
<path d="M102.939 166.558H105.317C105.853 166.558 106.262 166.599 106.543 166.681C106.921 166.792 107.245 166.99 107.514 167.274C107.784 167.558 107.989 167.907 108.129 168.32C108.27 168.73 108.34 169.237 108.34 169.84C108.34 170.371 108.274 170.828 108.143 171.211C107.981 171.68 107.751 172.06 107.453 172.35C107.227 172.569 106.922 172.741 106.539 172.864C106.251 172.955 105.868 173 105.387 173H102.939V166.558ZM104.24 167.647V171.915H105.211C105.575 171.915 105.837 171.894 105.998 171.853C106.209 171.8 106.383 171.711 106.521 171.585C106.662 171.459 106.776 171.252 106.864 170.965C106.952 170.675 106.996 170.281 106.996 169.783C106.996 169.285 106.952 168.903 106.864 168.636C106.776 168.37 106.653 168.162 106.495 168.012C106.336 167.863 106.136 167.762 105.893 167.709C105.711 167.668 105.355 167.647 104.825 167.647H104.24ZM111.872 171.515L113.102 171.721C112.944 172.172 112.693 172.517 112.351 172.754C112.011 172.988 111.584 173.105 111.072 173.105C110.26 173.105 109.66 172.84 109.27 172.31C108.962 171.885 108.809 171.349 108.809 170.702C108.809 169.928 109.011 169.323 109.415 168.887C109.819 168.447 110.331 168.228 110.949 168.228C111.643 168.228 112.191 168.458 112.592 168.917C112.994 169.375 113.186 170.076 113.168 171.022H110.074C110.083 171.389 110.183 171.674 110.373 171.879C110.563 172.082 110.801 172.183 111.085 172.183C111.278 172.183 111.441 172.13 111.573 172.024C111.705 171.919 111.804 171.749 111.872 171.515ZM111.942 170.267C111.933 169.909 111.841 169.638 111.665 169.454C111.489 169.266 111.275 169.172 111.023 169.172C110.754 169.172 110.531 169.271 110.355 169.467C110.18 169.663 110.093 169.93 110.096 170.267H111.942ZM113.368 168.333H114.054V167.981C114.054 167.589 114.095 167.296 114.177 167.103C114.262 166.909 114.416 166.752 114.638 166.632C114.864 166.509 115.148 166.448 115.491 166.448C115.842 166.448 116.187 166.5 116.523 166.606L116.356 167.467C116.16 167.42 115.971 167.397 115.79 167.397C115.611 167.397 115.482 167.439 115.403 167.524C115.327 167.606 115.289 167.766 115.289 168.003V168.333H116.211V169.304H115.289V173H114.054V169.304H113.368V168.333ZM119.338 171.515L120.569 171.721C120.411 172.172 120.16 172.517 119.817 172.754C119.478 172.988 119.051 173.105 118.539 173.105C117.727 173.105 117.126 172.84 116.737 172.31C116.429 171.885 116.275 171.349 116.275 170.702C116.275 169.928 116.478 169.323 116.882 168.887C117.286 168.447 117.797 168.228 118.416 168.228C119.11 168.228 119.658 168.458 120.059 168.917C120.46 169.375 120.652 170.076 120.635 171.022H117.541C117.55 171.389 117.649 171.674 117.84 171.879C118.03 172.082 118.268 172.183 118.552 172.183C118.745 172.183 118.908 172.13 119.04 172.024C119.171 171.919 119.271 171.749 119.338 171.515ZM119.409 170.267C119.4 169.909 119.308 169.638 119.132 169.454C118.956 169.266 118.742 169.172 118.49 169.172C118.221 169.172 117.998 169.271 117.822 169.467C117.646 169.663 117.56 169.93 117.563 170.267H119.409ZM125.621 173H124.386V170.618C124.386 170.114 124.359 169.789 124.307 169.643C124.254 169.493 124.167 169.377 124.047 169.295C123.93 169.213 123.788 169.172 123.621 169.172C123.407 169.172 123.215 169.231 123.045 169.348C122.876 169.465 122.758 169.621 122.694 169.814C122.632 170.007 122.602 170.365 122.602 170.886V173H121.367V168.333H122.514V169.019C122.921 168.491 123.434 168.228 124.052 168.228C124.324 168.228 124.573 168.277 124.799 168.377C125.024 168.474 125.194 168.598 125.309 168.75C125.426 168.903 125.506 169.076 125.55 169.269C125.597 169.462 125.621 169.739 125.621 170.1V173ZM130.677 169.713L129.46 169.933C129.418 169.689 129.325 169.506 129.178 169.383C129.035 169.26 128.847 169.199 128.616 169.199C128.308 169.199 128.062 169.306 127.877 169.52C127.696 169.73 127.605 170.085 127.605 170.583C127.605 171.137 127.697 171.528 127.882 171.756C128.069 171.985 128.32 172.099 128.633 172.099C128.868 172.099 129.06 172.033 129.209 171.901C129.358 171.767 129.464 171.537 129.525 171.211L130.738 171.418C130.612 171.975 130.371 172.395 130.013 172.679C129.656 172.963 129.177 173.105 128.576 173.105C127.894 173.105 127.349 172.89 126.941 172.459C126.537 172.029 126.335 171.433 126.335 170.671C126.335 169.9 126.539 169.301 126.946 168.874C127.353 168.443 127.904 168.228 128.598 168.228C129.167 168.228 129.618 168.351 129.952 168.597C130.289 168.84 130.53 169.212 130.677 169.713ZM134.05 171.515L135.28 171.721C135.122 172.172 134.872 172.517 134.529 172.754C134.189 172.988 133.763 173.105 133.25 173.105C132.439 173.105 131.838 172.84 131.448 172.31C131.141 171.885 130.987 171.349 130.987 170.702C130.987 169.928 131.189 169.323 131.593 168.887C131.998 168.447 132.509 168.228 133.127 168.228C133.821 168.228 134.369 168.458 134.771 168.917C135.172 169.375 135.364 170.076 135.346 171.022H132.252C132.261 171.389 132.361 171.674 132.551 171.879C132.742 172.082 132.979 172.183 133.263 172.183C133.457 172.183 133.619 172.13 133.751 172.024C133.883 171.919 133.982 171.749 134.05 171.515ZM134.12 170.267C134.111 169.909 134.019 169.638 133.843 169.454C133.668 169.266 133.454 169.172 133.202 169.172C132.932 169.172 132.71 169.271 132.534 169.467C132.358 169.663 132.272 169.93 132.274 170.267H134.12Z" fill="#1F384E"/>
<path d="M153.005 209.443L148.449 204.887L150.385 202.951C150.872 202.464 151.266 202.153 151.569 202.016C151.871 201.875 152.194 201.843 152.535 201.92C152.877 201.996 153.183 202.169 153.452 202.439C153.794 202.78 153.976 203.164 153.999 203.588C154.02 204.011 153.859 204.451 153.517 204.909C153.832 204.826 154.123 204.79 154.39 204.8C154.66 204.808 155.081 204.88 155.655 205.015L157.1 205.347L156 206.447L154.344 206.121C153.753 206.003 153.369 205.942 153.191 205.938C153.011 205.931 152.855 205.96 152.725 206.025C152.592 206.087 152.42 206.223 152.209 206.435L152.023 206.621L153.924 208.523L153.005 209.443ZM151.295 205.894L151.976 205.213C152.417 204.772 152.674 204.478 152.747 204.331C152.819 204.184 152.841 204.034 152.812 203.88C152.783 203.727 152.7 203.582 152.563 203.445C152.41 203.292 152.245 203.21 152.069 203.2C151.893 203.185 151.718 203.24 151.544 203.365C151.459 203.429 151.23 203.647 150.857 204.02L150.14 204.738L151.295 205.894ZM158.264 202.083L159.28 201.359C159.487 201.789 159.554 202.21 159.479 202.62C159.404 203.026 159.186 203.41 158.823 203.773C158.25 204.347 157.637 204.584 156.987 204.485C156.469 204.402 155.981 204.131 155.523 203.674C154.976 203.127 154.692 202.556 154.669 201.961C154.644 201.365 154.85 200.848 155.287 200.411C155.778 199.92 156.328 199.695 156.937 199.737C157.544 199.776 158.176 200.136 158.833 200.818L156.645 203.005C156.91 203.258 157.183 203.39 157.462 203.4C157.74 203.408 157.979 203.312 158.18 203.111C158.317 202.974 158.395 202.822 158.413 202.654C158.432 202.487 158.382 202.296 158.264 202.083ZM157.431 201.15C157.172 200.904 156.915 200.777 156.661 200.771C156.404 200.763 156.186 200.848 156.008 201.026C155.817 201.217 155.729 201.444 155.744 201.707C155.758 201.97 155.886 202.219 156.126 202.455L157.431 201.15ZM160.892 201.991L162.01 201.114C162.143 201.214 162.261 201.255 162.364 201.239C162.509 201.218 162.671 201.119 162.849 200.94C163.077 200.713 163.214 200.507 163.259 200.325C163.29 200.203 163.275 200.071 163.213 199.931C163.167 199.831 163.047 199.684 162.852 199.489L162.371 199.008C162.466 199.625 162.315 200.133 161.917 200.53C161.474 200.974 160.935 201.137 160.301 201.021C159.802 200.928 159.332 200.661 158.89 200.22C158.337 199.666 158.047 199.111 158.02 198.554C157.995 197.995 158.181 197.517 158.577 197.121C158.985 196.713 159.5 196.556 160.124 196.649L159.661 196.186L160.478 195.369L163.44 198.33C163.829 198.72 164.088 199.043 164.216 199.3C164.345 199.557 164.406 199.798 164.4 200.024C164.394 200.25 164.324 200.491 164.192 200.748C164.061 201.003 163.848 201.278 163.551 201.574C162.992 202.134 162.499 202.434 162.072 202.475C161.648 202.519 161.288 202.394 160.994 202.099C160.965 202.07 160.931 202.034 160.892 201.991ZM159.736 199.275C160.086 199.625 160.41 199.815 160.708 199.844C161.006 199.868 161.255 199.781 161.454 199.583C161.667 199.369 161.765 199.106 161.746 198.793C161.725 198.478 161.551 198.157 161.224 197.83C160.882 197.488 160.558 197.305 160.251 197.28C159.945 197.255 159.684 197.35 159.468 197.566C159.259 197.775 159.168 198.03 159.195 198.33C159.222 198.626 159.402 198.941 159.736 199.275ZM160.707 194.245L159.899 193.437L160.772 192.564L161.58 193.372L160.707 194.245ZM164.454 197.993L161.154 194.693L162.027 193.82L165.328 197.12L164.454 197.993ZM164.136 194.918C163.846 194.628 163.637 194.276 163.508 193.861C163.38 193.447 163.375 193.038 163.493 192.634C163.613 192.228 163.835 191.863 164.158 191.54C164.657 191.041 165.229 190.794 165.873 190.801C166.515 190.805 167.084 191.054 167.579 191.549C168.078 192.049 168.331 192.625 168.337 193.277C168.343 193.926 168.102 194.494 167.613 194.983C167.311 195.286 166.953 195.506 166.541 195.645C166.131 195.782 165.723 195.79 165.317 195.67C164.909 195.548 164.515 195.297 164.136 194.918ZM165.078 194.07C165.405 194.397 165.733 194.57 166.063 194.589C166.392 194.607 166.671 194.503 166.899 194.275C167.126 194.047 167.23 193.769 167.209 193.442C167.191 193.113 167.016 192.782 166.684 192.451C166.361 192.127 166.035 191.957 165.705 191.938C165.378 191.917 165.1 192.021 164.872 192.249C164.645 192.477 164.54 192.755 164.559 193.085C164.577 193.414 164.75 193.742 165.078 194.07ZM172.736 189.711L171.863 190.584L170.179 188.9C169.822 188.544 169.574 188.333 169.433 188.266C169.29 188.198 169.147 188.177 169.004 188.204C168.863 188.229 168.734 188.301 168.616 188.419C168.464 188.57 168.37 188.747 168.333 188.95C168.295 189.153 168.322 189.346 168.414 189.528C168.507 189.708 168.738 189.983 169.106 190.351L170.601 191.846L169.728 192.719L166.428 189.419L167.239 188.608L167.724 189.093C167.639 188.432 167.815 187.883 168.252 187.446C168.445 187.253 168.656 187.112 168.886 187.023C169.114 186.932 169.322 186.9 169.51 186.927C169.701 186.952 169.88 187.017 170.048 187.123C170.218 187.226 170.43 187.406 170.685 187.66L172.736 189.711ZM171.793 186.068L170.858 186.717C170.628 186.309 170.545 185.92 170.609 185.549C170.673 185.178 170.92 184.778 171.349 184.349C171.738 183.96 172.075 183.716 172.359 183.619C172.64 183.52 172.891 183.503 173.111 183.569C173.33 183.631 173.63 183.852 174.009 184.231L175.019 185.26C175.309 185.55 175.536 185.751 175.702 185.863C175.868 185.97 176.068 186.065 176.302 186.145L175.438 187.009C175.357 186.974 175.243 186.916 175.096 186.835C175.03 186.798 174.985 186.774 174.963 186.764C174.958 187.058 174.908 187.326 174.81 187.569C174.713 187.811 174.568 188.028 174.375 188.221C174.036 188.561 173.675 188.737 173.294 188.749C172.915 188.76 172.584 188.624 172.303 188.342C172.116 188.156 171.995 187.946 171.939 187.711C171.881 187.475 171.894 187.239 171.976 187.003C172.059 186.763 172.223 186.462 172.467 186.102C172.799 185.617 173.01 185.263 173.101 185.039L173.014 184.952C172.846 184.784 172.686 184.707 172.533 184.719C172.377 184.729 172.185 184.85 171.955 185.08C171.799 185.235 171.709 185.387 171.684 185.536C171.657 185.683 171.694 185.861 171.793 186.068ZM173.67 185.608C173.595 185.757 173.463 185.979 173.272 186.273C173.082 186.567 172.974 186.776 172.949 186.9C172.916 187.095 172.961 187.255 173.086 187.379C173.208 187.501 173.359 187.561 173.539 187.559C173.72 187.557 173.88 187.486 174.021 187.345C174.178 187.187 174.277 186.985 174.316 186.739C174.343 186.554 174.316 186.389 174.235 186.242C174.184 186.144 174.053 185.991 173.844 185.782L173.67 185.608ZM176.785 185.662L172.23 181.107L173.103 180.233L177.658 184.789L176.785 185.662ZM149.527 221.149C149.063 220.685 148.743 220.226 148.567 219.772C148.438 219.436 148.371 219.087 148.365 218.725C148.361 218.36 148.421 218.027 148.545 217.724C148.709 217.32 148.976 216.933 149.347 216.562C150.018 215.891 150.763 215.563 151.581 215.577C152.401 215.589 153.182 215.967 153.924 216.708C154.659 217.444 155.035 218.219 155.052 219.036C155.066 219.85 154.739 220.591 154.07 221.26C153.393 221.938 152.648 222.27 151.836 222.258C151.022 222.243 150.252 221.874 149.527 221.149ZM150.444 220.17C150.96 220.686 151.47 220.958 151.976 220.987C152.479 221.014 152.914 220.844 153.281 220.477C153.647 220.111 153.816 219.679 153.787 219.182C153.758 218.68 153.48 218.166 152.951 217.637C152.429 217.115 151.925 216.841 151.438 216.814C150.953 216.785 150.521 216.96 150.142 217.339C149.763 217.718 149.588 218.154 149.617 218.647C149.644 219.138 149.92 219.646 150.444 220.17ZM157.555 217.62L156.682 218.493L153.382 215.193L154.193 214.382L154.662 214.851C154.579 214.491 154.558 214.22 154.597 214.04C154.638 213.858 154.729 213.696 154.87 213.555C155.069 213.357 155.316 213.22 155.61 213.145L156.101 214.177C155.859 214.229 155.674 214.318 155.548 214.444C155.426 214.566 155.356 214.704 155.34 214.858C155.321 215.009 155.375 215.197 155.501 215.423C155.63 215.647 155.975 216.039 156.536 216.601L157.555 217.62ZM159.145 216.465L160.263 215.589C160.396 215.689 160.514 215.73 160.618 215.713C160.763 215.693 160.924 215.593 161.102 215.415C161.33 215.187 161.467 214.982 161.513 214.8C161.544 214.678 161.528 214.546 161.466 214.405C161.42 214.306 161.3 214.159 161.106 213.964L160.624 213.482C160.719 214.1 160.568 214.607 160.17 215.005C159.727 215.448 159.188 215.612 158.554 215.496C158.055 215.403 157.585 215.135 157.144 214.694C156.591 214.141 156.3 213.586 156.274 213.029C156.249 212.469 156.434 211.992 156.83 211.596C157.238 211.188 157.754 211.031 158.377 211.124L157.914 210.661L158.732 209.844L161.693 212.805C162.082 213.194 162.341 213.518 162.47 213.774C162.598 214.031 162.659 214.273 162.653 214.498C162.647 214.724 162.577 214.966 162.445 215.222C162.314 215.477 162.101 215.753 161.805 216.049C161.245 216.608 160.752 216.909 160.326 216.95C159.901 216.994 159.541 216.868 159.247 216.574C159.218 216.545 159.184 216.509 159.145 216.465ZM157.989 213.75C158.339 214.1 158.663 214.289 158.961 214.318C159.26 214.343 159.508 214.256 159.707 214.057C159.921 213.844 160.018 213.581 159.999 213.268C159.979 212.953 159.805 212.632 159.477 212.305C159.135 211.963 158.811 211.779 158.505 211.755C158.198 211.73 157.937 211.825 157.722 212.04C157.512 212.25 157.421 212.504 157.448 212.805C157.475 213.101 157.655 213.416 157.989 213.75ZM161.067 209.522L160.132 210.171C159.902 209.763 159.819 209.374 159.883 209.003C159.947 208.632 160.194 208.232 160.623 207.803C161.012 207.414 161.349 207.17 161.632 207.073C161.914 206.974 162.165 206.957 162.384 207.023C162.604 207.086 162.903 207.306 163.282 207.685L164.292 208.714C164.582 209.004 164.81 209.205 164.976 209.317C165.142 209.424 165.342 209.519 165.576 209.599L164.712 210.463C164.631 210.428 164.517 210.37 164.37 210.289C164.304 210.252 164.259 210.228 164.236 210.218C164.232 210.512 164.182 210.78 164.084 211.023C163.987 211.265 163.842 211.482 163.649 211.675C163.309 212.015 162.949 212.191 162.568 212.203C162.189 212.214 161.858 212.078 161.577 211.796C161.39 211.61 161.269 211.4 161.213 211.166C161.155 210.929 161.167 210.693 161.25 210.457C161.333 210.217 161.497 209.916 161.741 209.556C162.073 209.071 162.284 208.717 162.375 208.493L162.288 208.406C162.12 208.238 161.96 208.161 161.806 208.173C161.651 208.183 161.458 208.304 161.228 208.534C161.073 208.689 160.983 208.841 160.958 208.99C160.931 209.137 160.967 209.315 161.067 209.522ZM162.944 209.062C162.869 209.211 162.737 209.433 162.546 209.727C162.355 210.021 162.248 210.23 162.223 210.355C162.19 210.549 162.235 210.709 162.36 210.833C162.482 210.955 162.633 211.015 162.813 211.013C162.993 211.011 163.154 210.94 163.295 210.799C163.452 210.641 163.551 210.439 163.59 210.193C163.617 210.009 163.59 209.843 163.509 209.696C163.458 209.598 163.327 209.445 163.118 209.236L162.944 209.062ZM169.061 206.114L168.188 206.987L166.503 205.303C166.147 204.947 165.899 204.736 165.758 204.669C165.615 204.601 165.472 204.58 165.329 204.607C165.188 204.632 165.059 204.704 164.94 204.822C164.789 204.973 164.695 205.15 164.658 205.353C164.62 205.556 164.647 205.749 164.738 205.931C164.832 206.111 165.063 206.386 165.431 206.754L166.926 208.249L166.053 209.122L162.753 205.822L163.564 205.011L164.049 205.496C163.964 204.835 164.14 204.286 164.577 203.849C164.77 203.656 164.981 203.515 165.211 203.426C165.439 203.335 165.647 203.303 165.835 203.33C166.026 203.355 166.205 203.42 166.373 203.526C166.543 203.629 166.755 203.809 167.01 204.063L169.061 206.114ZM166.011 201.669L165.203 200.861L166.076 199.988L166.884 200.796L166.011 201.669ZM169.759 205.416L166.459 202.116L167.332 201.243L170.632 204.543L169.759 205.416ZM170.988 204.187L170.307 203.507L170.124 200.85C170.095 200.415 170.08 200.1 170.08 199.905C169.985 200.013 169.856 200.151 169.692 200.319L168.533 201.49L167.809 200.766L170.537 198.038L171.156 198.656L171.348 201.372L171.386 202.298C171.613 202.041 171.756 201.884 171.814 201.826L173.166 200.474L173.934 201.241L170.988 204.187ZM172.689 197.899L171.754 198.549C171.524 198.141 171.441 197.751 171.505 197.38C171.57 197.01 171.816 196.61 172.245 196.181C172.634 195.791 172.971 195.548 173.255 195.451C173.537 195.351 173.787 195.335 174.007 195.401C174.226 195.463 174.526 195.684 174.905 196.063L175.915 197.091C176.205 197.381 176.433 197.582 176.598 197.694C176.764 197.802 176.964 197.896 177.198 197.977L176.334 198.841C176.254 198.806 176.14 198.748 175.993 198.667C175.926 198.63 175.882 198.606 175.859 198.595C175.855 198.89 175.804 199.158 175.707 199.4C175.609 199.643 175.464 199.86 175.272 200.053C174.932 200.392 174.571 200.569 174.19 200.581C173.811 200.591 173.481 200.456 173.199 200.174C173.013 199.987 172.891 199.777 172.835 199.543C172.777 199.307 172.79 199.071 172.873 198.835C172.956 198.594 173.119 198.294 173.364 197.933C173.695 197.449 173.906 197.094 173.998 196.871L173.911 196.784C173.743 196.616 173.582 196.538 173.429 196.551C173.274 196.561 173.081 196.681 172.851 196.911C172.696 197.066 172.605 197.219 172.581 197.368C172.554 197.515 172.59 197.692 172.689 197.899ZM174.566 197.439C174.492 197.589 174.359 197.81 174.168 198.104C173.978 198.399 173.87 198.608 173.845 198.732C173.812 198.927 173.858 199.086 173.982 199.211C174.104 199.333 174.255 199.393 174.436 199.391C174.616 199.389 174.776 199.317 174.917 199.176C175.075 199.019 175.173 198.817 175.213 198.57C175.239 198.386 175.213 198.22 175.132 198.073C175.08 197.976 174.949 197.823 174.74 197.613L174.566 197.439ZM175.895 192.68L176.591 193.376L175.994 193.973L177.324 195.303C177.594 195.572 177.756 195.724 177.812 195.76C177.868 195.791 177.93 195.801 177.999 195.791C178.069 195.778 178.133 195.743 178.191 195.685C178.272 195.604 178.361 195.459 178.458 195.25L179.21 195.853C179.094 196.143 178.908 196.416 178.651 196.673C178.494 196.831 178.326 196.947 178.148 197.021C177.967 197.094 177.806 197.119 177.663 197.096C177.52 197.069 177.366 196.995 177.2 196.875C177.08 196.792 176.865 196.597 176.557 196.288L175.118 194.849L174.717 195.25L174.021 194.554L174.422 194.153L173.766 193.497L174.133 192.112L175.298 193.277L175.895 192.68ZM175.862 191.818L175.054 191.01L175.928 190.137L176.736 190.945L175.862 191.818ZM179.61 195.565L176.31 192.265L177.183 191.392L180.483 194.692L179.61 195.565ZM179.292 192.49C179.002 192.2 178.792 191.848 178.664 191.434C178.535 191.019 178.53 190.61 178.648 190.206C178.768 189.8 178.99 189.436 179.313 189.113C179.813 188.613 180.384 188.367 181.029 188.373C181.671 188.377 182.239 188.627 182.735 189.122C183.234 189.621 183.487 190.197 183.493 190.85C183.499 191.498 183.258 192.067 182.769 192.556C182.466 192.858 182.109 193.079 181.697 193.217C181.287 193.354 180.878 193.362 180.472 193.242C180.064 193.12 179.671 192.869 179.292 192.49ZM180.233 191.642C180.56 191.969 180.889 192.142 181.218 192.161C181.548 192.18 181.826 192.075 182.054 191.847C182.282 191.619 182.386 191.342 182.365 191.014C182.346 190.685 182.171 190.354 181.84 190.023C181.516 189.7 181.19 189.529 180.861 189.51C180.533 189.49 180.256 189.593 180.028 189.821C179.8 190.049 179.696 190.328 179.714 190.657C179.733 190.986 179.906 191.315 180.233 191.642ZM187.891 187.284L187.018 188.157L185.334 186.473C184.978 186.116 184.729 185.905 184.588 185.839C184.445 185.77 184.302 185.75 184.16 185.777C184.019 185.801 183.889 185.873 183.771 185.991C183.62 186.142 183.526 186.319 183.488 186.522C183.451 186.725 183.478 186.918 183.569 187.1C183.662 187.281 183.893 187.555 184.262 187.924L185.757 189.418L184.884 190.292L181.583 186.992L182.394 186.181L182.879 186.665C182.794 186.004 182.97 185.455 183.408 185.018C183.6 184.826 183.811 184.685 184.041 184.596C184.269 184.505 184.477 184.472 184.666 184.499C184.857 184.524 185.036 184.59 185.204 184.695C185.373 184.799 185.586 184.978 185.841 185.233L187.891 187.284ZM187.34 185.952L188.083 184.942C188.29 185.075 188.495 185.128 188.698 185.104C188.899 185.077 189.102 184.961 189.307 184.756C189.533 184.53 189.661 184.318 189.692 184.122C189.711 183.987 189.672 183.871 189.574 183.774C189.508 183.707 189.432 183.673 189.347 183.671C189.263 183.673 189.127 183.732 188.94 183.848C188.081 184.397 187.492 184.702 187.175 184.762C186.736 184.845 186.358 184.728 186.041 184.411C185.755 184.125 185.628 183.772 185.659 183.351C185.69 182.931 185.943 182.483 186.417 182.009C186.869 181.557 187.278 181.295 187.645 181.222C188.011 181.15 188.38 181.216 188.751 181.421L188.08 182.397C187.916 182.304 187.75 182.273 187.582 182.304C187.417 182.333 187.243 182.439 187.06 182.621C186.83 182.851 186.698 183.048 186.663 183.211C186.642 183.323 186.668 183.415 186.74 183.488C186.803 183.55 186.884 183.574 186.986 183.559C187.123 183.539 187.476 183.349 188.045 182.991C188.617 182.63 189.072 182.434 189.41 182.403C189.747 182.376 190.055 182.502 190.333 182.779C190.635 183.082 190.769 183.468 190.733 183.938C190.698 184.409 190.433 184.891 189.938 185.386C189.488 185.836 189.041 186.101 188.596 186.182C188.152 186.261 187.734 186.184 187.34 185.952Z" fill="#1F384E"/>
<path d="M4.78909 44.6581L0.233639 40.1027L1.15343 39.1829L5.70888 43.7383L4.78909 44.6581ZM9.3929 40.0543L8.51972 40.9275L6.8355 39.2433C6.47919 38.887 6.2306 38.6757 6.08973 38.6094C5.94679 38.541 5.80385 38.5203 5.6609 38.5472C5.52004 38.5721 5.39056 38.6436 5.27248 38.7616C5.12125 38.9129 5.02699 39.09 4.98971 39.293C4.95242 39.496 4.97935 39.6887 5.0705 39.871C5.16372 40.0512 5.3947 40.3257 5.76345 40.6945L7.25811 42.1891L6.38493 43.0623L3.08487 39.7622L3.8959 38.9512L4.38065 39.436C4.29572 38.7751 4.47181 38.2261 4.90891 37.789C5.10157 37.5964 5.31288 37.4555 5.54282 37.3664C5.7707 37.2753 5.9789 37.2432 6.16741 37.2701C6.358 37.295 6.53719 37.3602 6.70499 37.4659C6.87486 37.5694 7.0872 37.7486 7.34201 38.0034L9.3929 40.0543ZM8.30394 34.5432L9 35.2392L8.40337 35.8358L9.73334 37.1658C10.0027 37.4351 10.1653 37.5874 10.2212 37.6226C10.2771 37.6537 10.3393 37.664 10.4076 37.6537C10.4781 37.6412 10.5423 37.606 10.6003 37.548C10.6811 37.4672 10.7702 37.3222 10.8675 37.113L11.6195 37.7158C11.5035 38.0058 11.3171 38.2793 11.0602 38.5362C10.9028 38.6936 10.735 38.8096 10.5568 38.8842C10.3766 38.9567 10.215 38.9816 10.072 38.9588C9.92911 38.9319 9.77477 38.8583 9.60905 38.7382C9.48889 38.6553 9.27448 38.4595 8.96581 38.1509L7.52709 36.7121L7.12623 37.113L6.43017 36.4169L6.83103 36.0161L6.17537 35.3604L6.54204 33.9745L7.70732 35.1398L8.30394 34.5432ZM12.8798 34.4668L13.8959 33.7428C14.1031 34.1737 14.1693 34.5942 14.0948 35.0044C14.0202 35.4105 13.8016 35.7947 13.4391 36.1573C12.8653 36.7311 12.2531 36.9683 11.6026 36.8689C11.0847 36.786 10.5969 36.5157 10.139 36.0578C9.59214 35.5109 9.3073 34.9402 9.28451 34.3457C9.25965 33.749 9.46577 33.2322 9.90288 32.7951C10.3939 32.3041 10.9439 32.0793 11.5529 32.1208C12.1599 32.1601 12.7917 32.5206 13.4484 33.2021L11.2608 35.3897C11.526 35.6425 11.7984 35.774 12.0781 35.7844C12.3557 35.7927 12.5949 35.6963 12.7959 35.4954C12.9326 35.3587 13.0103 35.2064 13.0289 35.0386C13.0476 34.8708 12.9979 34.6802 12.8798 34.4668ZM12.047 33.5346C11.788 33.2881 11.5312 33.1617 11.2764 33.1555C11.0195 33.1472 10.802 33.2322 10.6238 33.4103C10.4332 33.6009 10.3452 33.8278 10.3597 34.0908C10.3742 34.3539 10.5016 34.6036 10.7419 34.8397L12.047 33.5346ZM16.2064 33.2408L15.3333 34.114L12.0332 30.8139L12.8442 30.0029L13.3134 30.4721C13.2306 30.1116 13.2088 29.8413 13.2482 29.6611C13.2896 29.4788 13.3808 29.3172 13.5216 29.1763C13.7205 28.9774 13.967 28.8407 14.2612 28.7661L14.7522 29.7978C14.5098 29.8496 14.3254 29.9387 14.1991 30.065C14.0768 30.1872 14.0074 30.325 13.9909 30.4783C13.9722 30.6295 14.0261 30.818 14.1524 31.0439C14.2809 31.2676 14.6258 31.6602 15.1872 32.2216L16.2064 33.2408ZM20.6611 28.7861L19.7879 29.6593L18.1037 27.9751C17.7474 27.6188 17.4988 27.4075 17.3579 27.3412C17.215 27.2728 17.072 27.2521 16.9291 27.279C16.7882 27.3039 16.6587 27.3754 16.5407 27.4935C16.3894 27.6447 16.2952 27.8218 16.2579 28.0248C16.2206 28.2278 16.2475 28.4205 16.3387 28.6028C16.4319 28.783 16.6629 29.0575 17.0316 29.4263L18.5263 30.9209L17.6531 31.7941L14.3531 28.494L15.1641 27.683L15.6488 28.1678C15.5639 27.5069 15.74 26.958 16.1771 26.5208C16.3698 26.3282 16.5811 26.1873 16.811 26.0982C17.0389 26.0071 17.2471 25.975 17.4356 26.0019C17.6262 26.0268 17.8054 26.092 17.9732 26.1977C18.1431 26.3013 18.3554 26.4804 18.6102 26.7353L20.6611 28.7861ZM19.7182 25.1425L18.7828 25.792C18.5529 25.3839 18.47 24.9944 18.5343 24.6236C18.5985 24.2528 18.845 23.853 19.2738 23.4241C19.6633 23.0347 19.9999 22.7913 20.2837 22.6939C20.5655 22.5945 20.8161 22.5779 21.0357 22.6442C21.2553 22.7063 21.5546 22.9269 21.9338 23.306L22.9437 24.3346C23.2337 24.6246 23.4616 24.8256 23.6273 24.9374C23.793 25.0452 23.9929 25.1394 24.227 25.2202L23.3632 26.0841C23.2824 26.0488 23.1684 25.9908 23.0213 25.9101C22.9551 25.8728 22.9105 25.8489 22.8877 25.8386C22.8836 26.1327 22.8328 26.401 22.7355 26.6434C22.6381 26.8858 22.4931 27.1033 22.3004 27.296C21.9607 27.6357 21.6002 27.8118 21.219 27.8242C20.8399 27.8346 20.5095 27.6989 20.2278 27.4171C20.0413 27.2307 19.9202 27.0204 19.8642 26.7863C19.8062 26.5502 19.8186 26.314 19.9015 26.0779C19.9844 25.8375 20.148 25.5372 20.3925 25.1767C20.7239 24.692 20.9352 24.3377 21.0264 24.114L20.9394 24.027C20.7716 23.8592 20.611 23.7815 20.4577 23.7939C20.3024 23.8043 20.1097 23.9244 19.8798 24.1544C19.7244 24.3097 19.6343 24.462 19.6094 24.6112C19.5825 24.7582 19.6187 24.9354 19.7182 25.1425ZM21.595 24.6826C21.5205 24.8318 21.3879 25.0534 21.1973 25.3476C21.0067 25.6418 20.899 25.851 20.8741 25.9753C20.841 26.17 20.8866 26.3296 21.0109 26.4538C21.1331 26.5761 21.2843 26.6361 21.4645 26.6341C21.6448 26.632 21.8053 26.5605 21.9462 26.4197C22.1036 26.2622 22.202 26.0602 22.2414 25.8137C22.2683 25.6293 22.2414 25.4636 22.1606 25.3165C22.1088 25.2192 21.9783 25.0659 21.7691 24.8566L21.595 24.6826ZM22.9236 19.9235L23.6197 20.6195L23.0231 21.2161L24.3531 22.5461C24.6224 22.8154 24.785 22.9677 24.8409 23.0029C24.8968 23.034 24.959 23.0443 25.0274 23.034C25.0978 23.0215 25.162 22.9863 25.22 22.9283C25.3008 22.8475 25.3899 22.7025 25.4873 22.4933L26.2392 23.0961C26.1232 23.3861 25.9368 23.6596 25.6799 23.9165C25.5225 24.0739 25.3547 24.1899 25.1765 24.2645C24.9963 24.337 24.8347 24.3619 24.6918 24.3391C24.5488 24.3121 24.3945 24.2386 24.2288 24.1184C24.1086 24.0356 23.8942 23.8398 23.5855 23.5311L22.1468 22.0924L21.7459 22.4933L21.0499 21.7972L21.4507 21.3964L20.7951 20.7407L21.1617 19.3548L22.327 20.5201L22.9236 19.9235ZM22.8912 19.061L22.0833 18.253L22.9565 17.3799L23.7644 18.1878L22.8912 19.061ZM26.6387 22.8085L23.3387 19.5084L24.2119 18.6352L27.5119 21.9353L26.6387 22.8085ZM26.3204 19.7335C26.0304 19.4435 25.8212 19.0913 25.6927 18.677C25.5643 18.2627 25.5591 17.8536 25.6772 17.4496C25.7973 17.0436 26.019 16.679 26.3422 16.3558C26.8414 15.8565 27.4132 15.61 28.0574 15.6162C28.6996 15.6204 29.2683 15.87 29.7634 16.3651C30.2627 16.8644 30.5154 17.4403 30.5216 18.0928C30.5278 18.7412 30.2865 19.3099 29.7976 19.7988C29.4951 20.1012 29.1378 20.3219 28.7255 20.4607C28.3154 20.5974 27.9073 20.6057 27.5012 20.4855C27.0931 20.3633 26.6995 20.1126 26.3204 19.7335ZM27.262 18.8852C27.5893 19.2125 27.9176 19.3855 28.247 19.4041C28.5764 19.4228 28.855 19.3182 29.0829 19.0903C29.3108 18.8624 29.4143 18.5848 29.3936 18.2575C29.375 17.9281 29.1999 17.5977 28.8685 17.2663C28.5453 16.9431 28.219 16.7722 27.8896 16.7535C27.5623 16.7328 27.2847 16.8364 27.0569 17.0643C26.829 17.2921 26.7244 17.5708 26.743 17.9002C26.7617 18.2295 26.9346 18.5579 27.262 18.8852ZM34.9203 14.5269L34.0472 15.4001L32.3629 13.7159C32.0066 13.3595 31.758 13.1482 31.6172 13.0819C31.4742 13.0136 31.3313 12.9929 31.1883 13.0198C31.0475 13.0447 30.918 13.1161 30.7999 13.2342C30.6487 13.3854 30.5544 13.5626 30.5171 13.7656C30.4799 13.9686 30.5068 14.1613 30.5979 14.3436C30.6912 14.5238 30.9221 14.7983 31.2909 15.167L32.7855 16.6617L31.9124 17.5349L28.6123 14.2348L29.4233 13.4238L29.9081 13.9085C29.8232 13.2477 29.9992 12.6987 30.4364 12.2616C30.629 12.0689 30.8403 11.9281 31.0703 11.839C31.2981 11.7478 31.5063 11.7157 31.6949 11.7427C31.8854 11.7675 32.0646 11.8328 32.2324 11.9384C32.4023 12.042 32.6146 12.2212 32.8694 12.476L34.9203 14.5269ZM33.9774 10.8833L33.0421 11.5327C32.8121 11.1246 32.7293 10.7352 32.7935 10.3643C32.8577 9.99352 33.1042 9.5937 33.5331 9.16488C33.9225 8.77542 34.2592 8.53201 34.543 8.43464C34.8247 8.3352 35.0754 8.31863 35.295 8.38492C35.5145 8.44707 35.8139 8.6677 36.193 9.0468L37.2029 10.0754C37.4929 10.3654 37.7208 10.5663 37.8865 10.6782C38.0523 10.7859 38.2522 10.8802 38.4863 10.961L37.6224 11.8248C37.5416 11.7896 37.4277 11.7316 37.2806 11.6508C37.2143 11.6135 37.1698 11.5897 37.147 11.5793C37.1428 11.8735 37.0921 12.1418 36.9947 12.3842C36.8973 12.6265 36.7523 12.844 36.5597 13.0367C36.2199 13.3764 35.8595 13.5525 35.4783 13.565C35.0992 13.5753 34.7688 13.4396 34.487 13.1579C34.3006 12.9714 34.1794 12.7612 34.1235 12.5271C34.0655 12.2909 34.0779 12.0548 34.1608 11.8186C34.2436 11.5783 34.4073 11.2779 34.6517 10.9175C34.9832 10.4327 35.1945 10.0785 35.2856 9.85472L35.1986 9.76772C35.0308 9.59992 34.8703 9.52223 34.717 9.53466C34.5616 9.54502 34.369 9.66517 34.139 9.89512C33.9836 10.0505 33.8935 10.2028 33.8687 10.3519C33.8417 10.499 33.878 10.6761 33.9774 10.8833ZM35.8543 10.4234C35.7797 10.5725 35.6471 10.7942 35.4565 11.0884C35.266 11.3825 35.1582 11.5918 35.1334 11.7161C35.1002 11.9108 35.1458 12.0703 35.2701 12.1946C35.3923 12.3168 35.5436 12.3769 35.7238 12.3748C35.904 12.3728 36.0646 12.3013 36.2054 12.1604C36.3629 12.003 36.4613 11.801 36.5006 11.5545C36.5276 11.3701 36.5006 11.2044 36.4198 11.0573C36.368 10.9599 36.2375 10.8066 36.0283 10.5974L35.8543 10.4234ZM38.9697 10.4776L34.4142 5.92212L35.2874 5.04894L39.8428 9.60439L38.9697 10.4776ZM6.527 51.1486C6.06296 50.6846 5.7429 50.2257 5.56681 49.772C5.43837 49.4364 5.37105 49.0874 5.36483 48.7249C5.36069 48.3602 5.42077 48.0267 5.54506 47.7243C5.70872 47.3203 5.97595 46.9329 6.34677 46.5621C7.01797 45.8909 7.76271 45.5625 8.58099 45.5771C9.40135 45.5895 10.1823 45.9665 10.924 46.7081C11.6594 47.4436 12.0354 48.2194 12.052 49.0356C12.0665 49.8497 11.7392 50.5914 11.07 51.2605C10.3926 51.9379 9.64787 52.2704 8.8358 52.258C8.02166 52.2435 7.25206 51.8737 6.527 51.1486ZM7.44368 50.1698C7.95951 50.6856 8.47016 50.958 8.97563 50.987C9.47903 51.014 9.91407 50.8441 10.2807 50.4774C10.6474 50.1108 10.8163 49.6788 10.7873 49.1816C10.7582 48.6803 10.4796 48.1655 9.95136 47.6373C9.42932 47.1152 8.92488 46.8407 8.43805 46.8138C7.9533 46.7848 7.52137 46.9598 7.14227 47.3389C6.76316 47.7181 6.58811 48.1541 6.61712 48.6472C6.64405 49.1381 6.91957 49.6457 7.44368 50.1698ZM14.5552 47.62L13.682 48.4932L10.3819 45.1931L11.193 44.3821L11.6622 44.8513C11.5793 44.4908 11.5576 44.2205 11.5969 44.0403C11.6383 43.858 11.7295 43.6964 11.8704 43.5555C12.0692 43.3566 12.3158 43.2199 12.6099 43.1453L13.1009 44.177C12.8585 44.2288 12.6741 44.3178 12.5478 44.4442C12.4256 44.5664 12.3562 44.7042 12.3396 44.8575C12.3209 45.0087 12.3748 45.1972 12.5012 45.423C12.6296 45.6468 12.9745 46.0394 13.5359 46.6008L14.5552 47.62ZM16.1448 46.4654L17.2635 45.5891C17.396 45.6885 17.5141 45.73 17.6177 45.7134C17.7627 45.6927 17.9243 45.5933 18.1024 45.4151C18.3303 45.1872 18.4671 44.9821 18.5126 44.7998C18.5437 44.6776 18.5282 44.5461 18.466 44.4052C18.4204 44.3058 18.3003 44.1587 18.1056 43.9639L17.6239 43.4823C17.7192 44.0996 17.568 44.6072 17.1702 45.0049C16.7269 45.4482 16.1883 45.6119 15.5544 45.4959C15.0551 45.4027 14.5849 45.1354 14.1436 44.6942C13.5905 44.1411 13.3005 43.5859 13.2735 43.0286C13.2487 42.4693 13.4341 41.9918 13.8298 41.5961C14.2379 41.188 14.7537 41.0305 15.3773 41.1238L14.9143 40.6608L15.7315 39.8435L18.6929 42.8049C19.0823 43.1943 19.3413 43.5175 19.4697 43.7744C19.5981 44.0313 19.6593 44.2726 19.653 44.4984C19.6468 44.7242 19.5774 44.9656 19.4448 45.2224C19.3143 45.4772 19.101 45.7528 18.8047 46.049C18.2454 46.6083 17.7523 46.9087 17.3256 46.9502C16.9009 46.9937 16.5415 46.8683 16.2473 46.5742C16.2183 46.5452 16.1841 46.5089 16.1448 46.4654ZM14.9888 43.7495C15.3389 44.0996 15.6631 44.2892 15.9614 44.3182C16.2598 44.343 16.5084 44.256 16.7072 44.0572C16.9206 43.8438 17.018 43.5807 16.9993 43.2679C16.9786 42.953 16.8046 42.6319 16.4773 42.3046C16.1355 41.9628 15.8113 41.7794 15.5047 41.7546C15.1981 41.7297 14.937 41.825 14.7216 42.0405C14.5124 42.2497 14.4212 42.5045 14.4481 42.8049C14.4751 43.1011 14.6553 43.416 14.9888 43.7495ZM18.0669 39.5217L17.1316 40.1712C16.9016 39.7631 16.8188 39.3736 16.883 39.0028C16.9472 38.632 17.1937 38.2321 17.6225 37.8033C18.012 37.4139 18.3486 37.1704 18.6324 37.0731C18.9142 36.9736 19.1648 36.9571 19.3844 37.0234C19.604 37.0855 19.9034 37.3061 20.2825 37.6852L21.2924 38.7138C21.5824 39.0038 21.8103 39.2048 21.976 39.3166C22.1417 39.4244 22.3417 39.5186 22.5757 39.5994L21.7119 40.4633C21.6311 40.428 21.5172 40.37 21.3701 40.2892C21.3038 40.252 21.2592 40.2281 21.2365 40.2178C21.2323 40.5119 21.1816 40.7802 21.0842 41.0226C20.9868 41.265 20.8418 41.4825 20.6492 41.6751C20.3094 42.0149 19.949 42.191 19.5678 42.2034C19.1887 42.2138 18.8583 42.0781 18.5765 41.7963C18.3901 41.6099 18.2689 41.3996 18.2129 41.1655C18.1549 40.9294 18.1674 40.6932 18.2502 40.457C18.3331 40.2167 18.4968 39.9164 18.7412 39.5559C19.0727 39.0711 19.284 38.7169 19.3751 38.4932L19.2881 38.4062C19.1203 38.2384 18.9598 38.1607 18.8065 38.1731C18.6511 38.1835 18.4584 38.3036 18.2285 38.5336C18.0731 38.6889 17.983 38.8412 17.9581 38.9904C17.9312 39.1374 17.9675 39.3146 18.0669 39.5217ZM19.9438 39.0618C19.8692 39.211 19.7366 39.4326 19.546 39.7268C19.3554 40.021 19.2477 40.2302 19.2229 40.3545C19.1897 40.5492 19.2353 40.7087 19.3596 40.833C19.4818 40.9553 19.633 41.0153 19.8133 41.0133C19.9935 41.0112 20.154 40.9397 20.2949 40.7989C20.4524 40.6414 20.5508 40.4394 20.5901 40.1929C20.617 40.0085 20.5901 39.8428 20.5093 39.6957C20.4575 39.5984 20.327 39.4451 20.1178 39.2358L19.9438 39.0618ZM26.0609 36.1143L25.1877 36.9874L23.5035 35.3032C23.1472 34.9469 22.8986 34.7356 22.7577 34.6693C22.6148 34.601 22.4718 34.5802 22.3289 34.6072C22.188 34.632 22.0585 34.7035 21.9405 34.8216C21.7892 34.9728 21.695 35.1499 21.6577 35.353C21.6204 35.556 21.6473 35.7486 21.7385 35.9309C21.8317 36.1112 22.0627 36.3856 22.4314 36.7544L23.9261 38.249L23.0529 39.1222L19.7529 35.8222L20.5639 35.0111L21.0486 35.4959C20.9637 34.835 21.1398 34.2861 21.5769 33.849C21.7696 33.6563 21.9809 33.5154 22.2108 33.4264C22.4387 33.3352 22.6469 33.3031 22.8354 33.33C23.026 33.3549 23.2052 33.4201 23.373 33.5258C23.5428 33.6294 23.7552 33.8086 24.01 34.0634L26.0609 36.1143ZM23.0112 31.6689L22.2032 30.861L23.0764 29.9878L23.8843 30.7958L23.0112 31.6689ZM26.7587 35.4165L23.4586 32.1164L24.3318 31.2432L27.6319 34.5433L26.7587 35.4165ZM27.9878 34.1873L27.3073 33.5068L27.124 30.85C27.095 30.4149 27.0805 30.1 27.0805 29.9053C26.9852 30.013 26.8557 30.1508 26.6921 30.3186L25.533 31.4901L24.809 30.7661L27.5373 28.0378L28.1556 28.6561L28.3483 31.372L28.3856 32.298C28.6135 32.0411 28.7564 31.8837 28.8144 31.8257L30.1661 30.474L30.9337 31.2415L27.9878 34.1873ZM29.6893 27.8993L28.754 28.5487C28.5241 28.1406 28.4412 27.7512 28.5054 27.3803C28.5696 27.0095 28.8162 26.6097 29.245 26.1809C29.6344 25.7914 29.9711 25.548 30.2549 25.4506C30.5366 25.3512 30.7873 25.3346 31.0069 25.4009C31.2265 25.4631 31.5258 25.6837 31.9049 26.0628L32.9148 27.0914C33.2048 27.3814 33.4327 27.5823 33.5984 27.6942C33.7642 27.8019 33.9641 27.8962 34.1982 27.977L33.3343 28.8408C33.2535 28.8056 33.1396 28.7476 32.9925 28.6668C32.9262 28.6295 32.8817 28.6057 32.8589 28.5953C32.8547 28.8895 32.804 29.1578 32.7066 29.4002C32.6093 29.6425 32.4642 29.8601 32.2716 30.0527C31.9318 30.3925 31.5714 30.5685 31.1902 30.581C30.8111 30.5913 30.4807 30.4556 30.1989 30.1739C30.0125 29.9875 29.8913 29.7772 29.8354 29.5431C29.7774 29.3069 29.7898 29.0708 29.8727 28.8346C29.9555 28.5943 30.1192 28.2939 30.3636 27.9335C30.6951 27.4487 30.9064 27.0945 30.9976 26.8707L30.9105 26.7837C30.7427 26.6159 30.5822 26.5382 30.4289 26.5507C30.2735 26.561 30.0809 26.6812 29.8509 26.9111C29.6955 27.0665 29.6054 27.2188 29.5806 27.3679C29.5536 27.515 29.5899 27.6921 29.6893 27.8993ZM31.5662 27.4394C31.4916 27.5885 31.359 27.8102 31.1685 28.1044C30.9779 28.3985 30.8701 28.6078 30.8453 28.7321C30.8121 28.9268 30.8577 29.0863 30.982 29.2106C31.1042 29.3328 31.2555 29.3929 31.4357 29.3908C31.6159 29.3888 31.7765 29.3173 31.9173 29.1764C32.0748 29.019 32.1732 28.817 32.2125 28.5705C32.2395 28.3861 32.2125 28.2204 32.1318 28.0733C32.08 27.9759 31.9495 27.8226 31.7402 27.6134L31.5662 27.4394ZM32.8948 22.6802L33.5909 23.3763L32.9942 23.9729L34.3242 25.3029C34.5935 25.5722 34.7561 25.7244 34.8121 25.7597C34.868 25.7907 34.9302 25.8011 34.9985 25.7907C35.069 25.7783 35.1332 25.7431 35.1912 25.6851C35.272 25.6043 35.361 25.4593 35.4584 25.25L36.2104 25.8529C36.0944 26.1429 35.9079 26.4164 35.6511 26.6732C35.4936 26.8307 35.3258 26.9467 35.1477 27.0213C34.9674 27.0938 34.8059 27.1186 34.6629 27.0958C34.52 27.0689 34.3656 26.9954 34.1999 26.8752C34.0798 26.7923 33.8653 26.5966 33.5567 26.2879L32.118 24.8492L31.7171 25.25L31.021 24.554L31.4219 24.1531L30.7662 23.4975L31.1329 22.1116L32.2982 23.2768L32.8948 22.6802ZM32.8624 21.8177L32.0544 21.0098L32.9276 20.1366L33.7355 20.9445L32.8624 21.8177ZM36.6099 25.5653L33.3098 22.2652L34.183 21.392L37.4831 24.6921L36.6099 25.5653ZM36.2916 22.4903C36.0015 22.2003 35.7923 21.8481 35.6639 21.4338C35.5354 21.0195 35.5303 20.6103 35.6483 20.2064C35.7685 19.8003 35.9901 19.4357 36.3133 19.1125C36.8126 18.6133 37.3843 18.3668 38.0286 18.373C38.6708 18.3771 39.2395 18.6268 39.7346 19.1219C40.2338 19.6211 40.4866 20.197 40.4928 20.8496C40.499 21.498 40.2576 22.0667 39.7688 22.5555C39.4663 22.858 39.1089 23.0786 38.6967 23.2174C38.2865 23.3542 37.8784 23.3624 37.4724 23.2423C37.0643 23.1201 36.6707 22.8694 36.2916 22.4903ZM37.2331 21.642C37.5604 21.9693 37.8888 22.1423 38.2182 22.1609C38.5475 22.1796 38.8262 22.0749 39.054 21.8471C39.2819 21.6192 39.3855 21.3416 39.3648 21.0143C39.3461 20.6849 39.1711 20.3545 38.8396 20.023C38.5165 19.6998 38.1902 19.5289 37.8608 19.5103C37.5335 19.4896 37.2559 19.5932 37.028 19.821C36.8001 20.0489 36.6955 20.3275 36.7142 20.6569C36.7328 20.9863 36.9058 21.3147 37.2331 21.642ZM44.8915 17.2837L44.0183 18.1568L42.3341 16.4726C41.9778 16.1163 41.7292 15.905 41.5883 15.8387C41.4454 15.7703 41.3024 15.7496 41.1595 15.7766C41.0186 15.8014 40.8892 15.8729 40.7711 15.991C40.6199 16.1422 40.5256 16.3193 40.4883 16.5223C40.451 16.7254 40.4779 16.918 40.5691 17.1003C40.6623 17.2805 40.8933 17.555 41.262 17.9238L42.7567 19.4184L41.8835 20.2916L38.5835 16.9916L39.3945 16.1805L39.8793 16.6653C39.7943 16.0044 39.9704 15.4555 40.4075 15.0184C40.6002 14.8257 40.8115 14.6848 41.0414 14.5957C41.2693 14.5046 41.4775 14.4725 41.666 14.4994C41.8566 14.5243 42.0358 14.5895 42.2036 14.6952C42.3735 14.7988 42.5858 14.978 42.8406 15.2328L44.8915 17.2837ZM44.3401 15.9519L45.0828 14.942C45.2899 15.0746 45.495 15.1285 45.698 15.1036C45.899 15.0767 46.102 14.9607 46.3071 14.7556C46.5329 14.5298 46.6613 14.3185 46.6924 14.1217C46.7111 13.987 46.6717 13.871 46.5743 13.7737C46.508 13.7074 46.4324 13.6732 46.3475 13.6711C46.2626 13.6732 46.1269 13.7322 45.9404 13.8482C45.0807 14.3972 44.4924 14.7017 44.1754 14.7618C43.7362 14.8447 43.3582 14.7276 43.0412 14.4107C42.7553 14.1248 42.6279 13.7716 42.659 13.351C42.6901 12.9305 42.9428 12.483 43.4172 12.0087C43.8688 11.557 44.278 11.295 44.6446 11.2225C45.0113 11.15 45.3801 11.2163 45.7509 11.4214L45.0797 12.3971C44.916 12.3039 44.7503 12.2728 44.5825 12.3039C44.4168 12.3329 44.2427 12.4385 44.0604 12.6208C43.8305 12.8508 43.6979 13.0476 43.6627 13.2112C43.642 13.3231 43.6679 13.4153 43.7404 13.4878C43.8025 13.5499 43.8844 13.5737 43.9859 13.5592C44.1226 13.5385 44.4758 13.349 45.0455 12.9906C45.6173 12.6301 46.072 12.4344 46.4096 12.4033C46.7473 12.3764 47.0549 12.5017 47.3325 12.7793C47.635 13.0817 47.7686 13.4681 47.7334 13.9383C47.6982 14.4086 47.433 14.8913 46.9379 15.3864C46.4884 15.8359 46.0409 16.1011 45.5955 16.1819C45.1522 16.2606 44.7337 16.184 44.3401 15.9519Z" fill="#1F384E"/>
<path d="M58.8569 53.9038L60.1225 53.7808C60.1987 54.2056 60.3525 54.5176 60.5839 54.7168C60.8183 54.916 61.1333 55.0156 61.5288 55.0156C61.9477 55.0156 62.2627 54.9277 62.4736 54.752C62.6875 54.5732 62.7944 54.3652 62.7944 54.1279C62.7944 53.9756 62.749 53.8467 62.6582 53.7412C62.5703 53.6328 62.415 53.5391 62.1923 53.46C62.04 53.4072 61.6928 53.3135 61.1508 53.1787C60.4536 53.0059 59.9643 52.7935 59.6831 52.5415C59.2876 52.187 59.0898 51.7549 59.0898 51.2451C59.0898 50.917 59.1821 50.6108 59.3667 50.3267C59.5542 50.0396 59.8222 49.8213 60.1709 49.6719C60.5224 49.5225 60.9458 49.4478 61.4409 49.4478C62.2495 49.4478 62.8574 49.625 63.2646 49.9795C63.6748 50.334 63.8901 50.8071 63.9106 51.3989L62.6098 51.4561C62.5542 51.125 62.434 50.8877 62.2495 50.7441C62.0678 50.5977 61.7939 50.5244 61.4277 50.5244C61.0498 50.5244 60.7539 50.6021 60.54 50.7573C60.4023 50.8569 60.3335 50.9902 60.3335 51.1572C60.3335 51.3096 60.3979 51.4399 60.5268 51.5483C60.6909 51.686 61.0893 51.8296 61.7221 51.979C62.3549 52.1284 62.8222 52.2837 63.124 52.4448C63.4287 52.603 63.666 52.8213 63.8359 53.0996C64.0087 53.375 64.0952 53.7163 64.0952 54.1235C64.0952 54.4927 63.9926 54.8384 63.7876 55.1606C63.5825 55.4829 63.2924 55.7231 62.9174 55.8813C62.5424 56.0366 62.0752 56.1143 61.5156 56.1143C60.7011 56.1143 60.0756 55.9268 59.6391 55.5518C59.2026 55.1738 58.9419 54.6245 58.8569 53.9038ZM67.0508 51.333V52.3174H66.207V54.1982C66.207 54.5791 66.2143 54.8018 66.229 54.8662C66.2466 54.9277 66.2832 54.979 66.3388 55.02C66.3974 55.061 66.4678 55.0815 66.5498 55.0815C66.664 55.0815 66.8296 55.042 67.0464 54.9629L67.1518 55.9209C66.8647 56.0439 66.5395 56.1055 66.1763 56.1055C65.9536 56.1055 65.7529 56.0688 65.5742 55.9956C65.3955 55.9194 65.2637 55.8228 65.1787 55.7056C65.0967 55.5854 65.0395 55.4243 65.0073 55.2222C64.9809 55.0786 64.9678 54.7886 64.9678 54.3521V52.3174H64.4009V51.333H64.9678V50.4058L66.207 49.6851V51.333H67.0508ZM68.5605 52.7568L67.4399 52.5547C67.5659 52.1035 67.7827 51.7695 68.0903 51.5527C68.3979 51.3359 68.855 51.2275 69.4614 51.2275C70.0122 51.2275 70.4224 51.2935 70.6919 51.4253C70.9614 51.5542 71.1504 51.7197 71.2588 51.9219C71.3701 52.1211 71.4258 52.4888 71.4258 53.0249L71.4126 54.4663C71.4126 54.8765 71.4316 55.1797 71.4697 55.376C71.5107 55.5693 71.5854 55.7773 71.6938 56H70.4722C70.4399 55.918 70.4004 55.7964 70.3535 55.6353C70.333 55.562 70.3184 55.5137 70.3096 55.4902C70.0986 55.6953 69.873 55.8491 69.6328 55.9517C69.3926 56.0542 69.1362 56.1055 68.8638 56.1055C68.3833 56.1055 68.0039 55.9751 67.7256 55.7144C67.4502 55.4536 67.3125 55.124 67.3125 54.7256C67.3125 54.4619 67.3755 54.2275 67.5015 54.0225C67.6274 53.8145 67.8032 53.6562 68.0288 53.5479C68.2573 53.4365 68.5854 53.3398 69.0132 53.2578C69.5903 53.1494 69.9902 53.0483 70.2129 52.9546V52.8315C70.2129 52.5942 70.1543 52.4258 70.0371 52.3262C69.9199 52.2236 69.6987 52.1724 69.3735 52.1724C69.1538 52.1724 68.9824 52.2163 68.8594 52.3042C68.7363 52.3892 68.6367 52.54 68.5605 52.7568ZM70.2129 53.7588C70.0547 53.8115 69.8042 53.8745 69.4614 53.9478C69.1187 54.021 68.8945 54.0928 68.7891 54.1631C68.6279 54.2773 68.5474 54.4224 68.5474 54.5981C68.5474 54.771 68.6118 54.9204 68.7407 55.0464C68.8696 55.1724 69.0337 55.2354 69.2329 55.2354C69.4556 55.2354 69.668 55.1621 69.8701 55.0156C70.0195 54.9043 70.1177 54.7681 70.1646 54.6069C70.1968 54.5015 70.2129 54.3008 70.2129 54.0049V53.7588ZM74.5176 51.333V52.3174H73.6738V54.1982C73.6738 54.5791 73.6812 54.8018 73.6958 54.8662C73.7134 54.9277 73.75 54.979 73.8057 55.02C73.8643 55.061 73.9346 55.0815 74.0166 55.0815C74.1309 55.0815 74.2964 55.042 74.5132 54.9629L74.6187 55.9209C74.3316 56.0439 74.0064 56.1055 73.6431 56.1055C73.4204 56.1055 73.2197 56.0688 73.041 55.9956C72.8623 55.9194 72.7305 55.8228 72.6455 55.7056C72.5635 55.5854 72.5064 55.4243 72.4741 55.2222C72.4478 55.0786 72.4346 54.7886 72.4346 54.3521V52.3174H71.8677V51.333H72.4346V50.4058L73.6738 49.6851V51.333H74.5176ZM77.8072 54.5146L79.0376 54.7212C78.8794 55.1724 78.6289 55.5166 78.2862 55.7539C77.9463 55.9883 77.5201 56.1055 77.0074 56.1055C76.1958 56.1055 75.5953 55.8403 75.2056 55.3101C74.898 54.8853 74.7442 54.3491 74.7442 53.7017C74.7442 52.9282 74.9463 52.3232 75.3506 51.8867C75.7549 51.4473 76.2662 51.2275 76.8843 51.2275C77.5787 51.2275 78.1265 51.4575 78.5279 51.9175C78.9292 52.3745 79.1211 53.0762 79.1036 54.0225H76.0098C76.0186 54.3887 76.1182 54.6743 76.3086 54.8794C76.4991 55.0815 76.7364 55.1826 77.0205 55.1826C77.2139 55.1826 77.3765 55.1299 77.5083 55.0244C77.6402 54.9189 77.7398 54.749 77.8072 54.5146ZM77.8775 53.2666C77.8687 52.9092 77.7764 52.6382 77.6006 52.4536C77.4248 52.2661 77.211 52.1724 76.959 52.1724C76.6895 52.1724 76.4668 52.2705 76.2911 52.4668C76.1153 52.6631 76.0288 52.9297 76.0318 53.2666H77.8775ZM52.4987 62.9038L53.7643 62.7808C53.8405 63.2056 53.9943 63.5176 54.2258 63.7168C54.4601 63.916 54.7751 64.0156 55.1706 64.0156C55.5895 64.0156 55.9045 63.9277 56.1154 63.752C56.3293 63.5732 56.4362 63.3652 56.4362 63.1279C56.4362 62.9756 56.3908 62.8467 56.3 62.7412C56.2121 62.6328 56.0568 62.5391 55.8342 62.46C55.6818 62.4072 55.3346 62.3135 54.7927 62.1787C54.0954 62.0059 53.6061 61.7935 53.3249 61.5415C52.9294 61.187 52.7316 60.7549 52.7316 60.2451C52.7316 59.917 52.8239 59.6108 53.0085 59.3267C53.196 59.0396 53.464 58.8213 53.8127 58.6719C54.1642 58.5225 54.5876 58.4478 55.0827 58.4478C55.8913 58.4478 56.4992 58.625 56.9064 58.9795C57.3166 59.334 57.5319 59.8071 57.5524 60.3989L56.2516 60.4561C56.196 60.125 56.0759 59.8877 55.8913 59.7441C55.7096 59.5977 55.4357 59.5244 55.0695 59.5244C54.6916 59.5244 54.3957 59.6021 54.1818 59.7573C54.0441 59.8569 53.9753 59.9902 53.9753 60.1572C53.9753 60.3096 54.0397 60.4399 54.1686 60.5483C54.3327 60.686 54.7311 60.8296 55.3639 60.979C55.9968 61.1284 56.464 61.2837 56.7658 61.4448C57.0705 61.603 57.3078 61.8213 57.4777 62.0996C57.6506 62.375 57.737 62.7163 57.737 63.1235C57.737 63.4927 57.6345 63.8384 57.4294 64.1606C57.2243 64.4829 56.9343 64.7231 56.5593 64.8813C56.1843 65.0366 55.717 65.1143 55.1574 65.1143C54.3429 65.1143 53.7175 64.9268 53.2809 64.5518C52.8444 64.1738 52.5837 63.6245 52.4987 62.9038ZM61.2551 63.5146L62.4855 63.7212C62.3273 64.1724 62.0769 64.5166 61.7341 64.7539C61.3942 64.9883 60.968 65.1055 60.4553 65.1055C59.6437 65.1055 59.0432 64.8403 58.6535 64.3101C58.3459 63.8853 58.1921 63.3491 58.1921 62.7017C58.1921 61.9282 58.3942 61.3232 58.7985 60.8867C59.2028 60.4473 59.7141 60.2275 60.3322 60.2275C61.0266 60.2275 61.5744 60.4575 61.9758 60.9175C62.3771 61.3745 62.569 62.0762 62.5515 63.0225H59.4577C59.4665 63.3887 59.5661 63.6743 59.7565 63.8794C59.947 64.0815 60.1843 64.1826 60.4685 64.1826C60.6618 64.1826 60.8244 64.1299 60.9562 64.0244C61.0881 63.9189 61.1877 63.749 61.2551 63.5146ZM61.3254 62.2666C61.3166 61.9092 61.2243 61.6382 61.0485 61.4536C60.8728 61.2661 60.6589 61.1724 60.4069 61.1724C60.1374 61.1724 59.9147 61.2705 59.739 61.4668C59.5632 61.6631 59.4768 61.9297 59.4797 62.2666H61.3254ZM67.3615 61.7129L66.1443 61.9326C66.1032 61.6895 66.0095 61.5063 65.863 61.3833C65.7195 61.2603 65.532 61.1987 65.3005 61.1987C64.9929 61.1987 64.7468 61.3057 64.5622 61.5195C64.3806 61.7305 64.2898 62.085 64.2898 62.583C64.2898 63.1367 64.3821 63.5278 64.5666 63.7563C64.7541 63.9849 65.0046 64.0991 65.3181 64.0991C65.5525 64.0991 65.7444 64.0332 65.8938 63.9014C66.0432 63.7666 66.1487 63.5366 66.2102 63.2114L67.4231 63.418C67.2971 63.9746 67.0554 64.395 66.698 64.6792C66.3405 64.9634 65.8615 65.1055 65.261 65.1055C64.5783 65.1055 64.0334 64.8901 63.6262 64.4595C63.2219 64.0288 63.0197 63.4326 63.0197 62.6709C63.0197 61.9004 63.2234 61.3013 63.6306 60.8735C64.0378 60.4429 64.5886 60.2275 65.2829 60.2275C65.8513 60.2275 66.3025 60.3506 66.6364 60.5967C66.9734 60.8398 67.2151 61.2119 67.3615 61.7129ZM71.1037 65V64.3013C70.9338 64.5503 70.7097 64.7466 70.4314 64.8901C70.156 65.0337 69.8645 65.1055 69.5569 65.1055C69.2434 65.1055 68.9621 65.0366 68.7131 64.8989C68.4641 64.7612 68.2839 64.5679 68.1726 64.3188C68.0613 64.0698 68.0056 63.7256 68.0056 63.2861V60.333H69.2405V62.4775C69.2405 63.1338 69.2624 63.5366 69.3064 63.686C69.3533 63.8325 69.4368 63.9497 69.5569 64.0376C69.677 64.1226 69.8293 64.165 70.0139 64.165C70.2248 64.165 70.4138 64.1079 70.5808 63.9937C70.7478 63.8765 70.8621 63.7329 70.9236 63.563C70.9851 63.3901 71.0159 62.9697 71.0159 62.3018V60.333H72.2507V65H71.1037ZM74.4461 65H73.2112V60.333H74.3582V60.9966C74.5545 60.6831 74.7302 60.4766 74.8855 60.377C75.0437 60.2773 75.2224 60.2275 75.4216 60.2275C75.7029 60.2275 75.9739 60.3052 76.2346 60.4604L75.8523 61.5371C75.6443 61.4023 75.4509 61.335 75.2722 61.335C75.0994 61.335 74.9529 61.3833 74.8328 61.48C74.7127 61.5737 74.6174 61.7451 74.5471 61.9941C74.4797 62.2432 74.4461 62.7646 74.4461 63.5586V65ZM76.5008 59.7002V58.5576H77.7356V59.7002H76.5008ZM76.5008 65V60.333H77.7356V65H76.5008ZM80.8758 60.333V61.3174H80.032V63.1982C80.032 63.5791 80.0394 63.8018 80.054 63.8662C80.0716 63.9277 80.1082 63.979 80.1639 64.02C80.2225 64.061 80.2928 64.0815 80.3748 64.0815C80.4891 64.0815 80.6546 64.042 80.8714 63.9629L80.9769 64.9209C80.6897 65.0439 80.3645 65.1055 80.0013 65.1055C79.7786 65.1055 79.5779 65.0688 79.3992 64.9956C79.2205 64.9194 79.0887 64.8228 79.0037 64.7056C78.9217 64.5854 78.8645 64.4243 78.8323 64.2222C78.806 64.0786 78.7928 63.7886 78.7928 63.3521V61.3174H78.2259V60.333H78.7928V59.4058L80.032 58.6851V60.333H80.8758ZM80.8782 60.333H82.1922L83.3084 63.6465L84.3983 60.333H85.6771L84.0291 64.8242L83.7347 65.6372C83.6263 65.9097 83.5223 66.1177 83.4227 66.2612C83.326 66.4048 83.2132 66.5205 83.0843 66.6084C82.9583 66.6992 82.8016 66.7695 82.6141 66.8193C82.4295 66.8691 82.22 66.894 81.9857 66.894C81.7484 66.894 81.5154 66.8691 81.2869 66.8193L81.1771 65.8525C81.3704 65.8906 81.5447 65.9097 81.7 65.9097C81.9871 65.9097 82.1995 65.8247 82.3372 65.6548C82.4749 65.4878 82.5804 65.2739 82.6536 65.0132L80.8782 60.333Z" fill="#1F384E"/>
</g>
<defs>
<clipPath id="clip0_7_52">
<rect width="191" height="222" fill="white"/>
</clipPath>
</defs>
</svg>
