<svg width="87" height="76" viewBox="0 0 87 76" fill="none" xmlns="http://www.w3.org/2000/svg">
<rect width="87" height="76" fill="white"/>
<path fill-rule="evenodd" clip-rule="evenodd" d="M0.0579969 59.3361C0.154054 58.8964 0.404165 58.4892 0.775707 58.2304C0.902575 58.1417 0.938822 58.1291 1.07656 58.0603L17.3882 50.8218C17.7253 50.6915 17.8268 50.6626 18.2454 50.6698C18.4194 50.6897 18.4194 50.6897 18.5916 50.7277L45.7776 57.9662C46.1582 58.0875 46.4862 58.3263 46.7218 58.6303L46.7273 58.6376C46.807 58.7425 46.8777 58.8565 46.9357 58.9778C47.0009 59.1117 47.0499 59.2528 47.0807 59.3976C47.1024 59.5008 47.1169 59.6057 47.1224 59.7143V66.9528C47.0897 67.6766 46.6638 68.3245 45.9824 68.6321L27.8584 75.8706C27.5865 75.9665 27.3056 76.019 27.0229 75.9937C26.8724 75.9792 26.8362 75.9665 26.6876 75.9321L1.31399 68.6936C0.560031 68.4403 0.0380604 67.7581 0 66.9528V59.7143C0.0054372 59.584 0.0253737 59.4573 0.0579969 59.3361ZM3.6248 65.5883L27.0881 72.2821L43.4976 65.7277V62.3871L27.8584 68.6321C27.5865 68.728 27.3056 68.7805 27.0229 68.7552C26.8724 68.7407 26.8362 68.728 26.6876 68.6936L3.6248 62.1139C3.6248 63.272 3.6248 64.4302 3.6248 65.5883ZM7.11004 59.3433L27.0881 65.0436L39.5683 60.0581L18.2744 54.3886L7.11004 59.3433ZM50.7472 10.9758C50.6565 10.0293 51.1586 8.94537 51.8002 8.19437C53.2229 6.52771 55.434 5.67176 57.6162 5.03477C61.2845 3.96348 65.0796 3.61241 68.9799 3.61603C72.9146 3.6287 76.8693 4.00872 80.5938 5.17593C83.5298 6.09702 86.7632 7.67139 86.9843 10.5776C86.997 10.7459 87.006 10.8346 86.9951 10.9649V54.2854C86.9879 54.4338 86.9625 54.5786 86.9208 54.7161C86.8375 55.5214 86.4478 56.3991 85.8171 57.0885C83.9159 59.166 80.9707 59.9948 78.1271 60.6101C72.563 61.8135 66.7162 61.8551 61.1431 60.9032C58.3955 60.4345 55.6225 59.7668 53.3027 58.2376C51.9397 57.3401 50.7707 56.01 50.7472 54.3198C50.7472 54.3198 50.7472 54.318 50.749 54.3108L50.7472 54.2854V10.9758ZM54.372 15.4365V54.1859C54.459 54.7831 55.0462 55.0781 55.5917 55.3984C57.9098 56.7592 60.69 57.2405 63.3959 57.5771C68.3981 58.1996 73.549 58.0802 78.408 56.8243C79.9105 56.4353 81.4401 55.963 82.6653 55.0618C82.9571 54.8482 83.3359 54.6003 83.3703 54.2909V54.2872V15.4853C81.7773 16.3123 79.9322 16.7883 78.1271 17.1791C72.5612 18.3825 66.7162 18.4242 61.1431 17.4723C58.8069 17.0742 56.4508 16.5313 54.372 15.4365ZM16.3623 5.06373C16.3986 4.84838 16.4765 4.63666 16.6034 4.44122C16.7611 4.19873 16.9767 3.99605 17.2287 3.85309C17.3229 3.7988 17.3501 3.78975 17.4516 3.74632L26.5136 0.127079C26.7746 0.0311695 27.0482 -0.0104505 27.3328 0.00221683C27.4053 0.0112649 27.4597 0.00945505 27.6844 0.0655533L40.3712 3.6848C40.3875 3.69203 40.4038 3.69565 40.4165 3.70108C40.4382 3.70651 40.46 3.71375 40.4799 3.72099C40.5162 3.73366 40.5488 3.74632 40.6032 3.76985C40.6775 3.80242 40.7464 3.84042 40.8134 3.88205C41.3263 4.20597 41.6562 4.80133 41.6852 5.42565V41.6181C41.6526 42.3419 41.2266 42.9898 40.5452 43.2974L31.4832 46.9167C30.8706 47.1338 30.8235 47.1012 30.3124 46.9782L17.6256 43.3589C16.8716 43.1056 16.3497 42.4234 16.3116 41.6181V5.42565C16.317 5.30079 16.3352 5.17954 16.3623 5.06373ZM28.9984 10.4093L19.9364 7.82521C19.9364 18.6341 19.9364 29.4429 19.9364 40.2536L28.9984 42.8378V10.4093ZM32.6232 10.27V42.5645L38.0604 40.393V8.09846L32.6232 10.27ZM83.3703 10.8618C83.354 10.5053 82.9843 10.3116 82.6653 10.0782C80.8856 8.76802 78.5675 8.26857 76.3201 7.8614C70.7017 6.8462 64.7951 6.88783 59.2618 8.33371C57.5872 8.77345 55.7748 9.26748 54.6348 10.4582C54.6076 10.4854 54.5822 10.5143 54.5586 10.5433C54.4553 10.6627 54.4046 10.8201 54.3828 10.9197C54.4227 11.0807 54.5659 11.1857 54.6891 11.3051C55.3923 11.9982 56.3493 12.4036 57.3062 12.7619C60.6646 14.0214 64.3293 14.3959 67.9631 14.4647C72.4017 14.5498 76.978 14.262 81.0469 12.5176C81.9241 12.1412 82.9444 11.7503 83.3414 10.9378C83.354 10.9124 83.3631 10.8889 83.3703 10.8672V10.8618ZM23.7189 5.13973L30.7129 7.13574L34.2779 5.71157L27.2839 3.71556L23.7189 5.13973Z" fill="#1F384E"/>
</svg>
