<svg width="90" height="90" viewBox="0 0 90 90" fill="none" xmlns="http://www.w3.org/2000/svg">
<rect width="90" height="89" fill="white"/>
<path d="M44.7363 18.4219C41.0273 18.4219 37.7051 16.2422 36.2988 12.8848C35.7363 11.5664 35.4727 10.3711 35.4727 9.1406C35.4727 4.0957 39.6387 0 44.7363 0C49.834 0 54 4.0957 54 9.1406C54 10.3711 53.7363 11.5664 53.1738 12.8848C51.75 16.2598 48.4453 18.4219 44.7363 18.4219ZM44.7363 4.06055C41.8535 4.06055 39.498 6.3457 39.498 9.1582C39.498 9.8437 39.6563 10.4941 40.0078 11.3203C40.7988 13.2012 42.6445 14.3965 44.7363 14.3965C46.8281 14.3965 48.6738 13.2012 49.4648 11.3379C49.834 10.4941 49.9746 9.8437 49.9746 9.1582C49.9746 6.3457 47.6191 4.06055 44.7363 4.06055Z" fill="#1F384E"/>
<path d="M57.3574 36.5625H32.0977C30.9902 36.5625 30.0762 35.666 30.0762 34.541V30.9199C30.0762 22.8516 36.6504 16.2773 44.7187 16.2773C52.7871 16.2773 59.3613 22.8516 59.3613 30.9199V34.541C59.3789 35.666 58.4648 36.5625 57.3574 36.5625ZM34.1191 32.5371H55.3359V30.9199C55.3359 25.0664 50.5723 20.3027 44.7187 20.3027C38.8652 20.3027 34.1016 25.0664 34.1016 30.9199V32.5371H34.1191Z" fill="#1F384E"/>
<path d="M44.7363 71.0859C39.7969 71.0859 35.6309 66.9551 35.4727 61.875C35.4727 56.6895 39.6211 52.541 44.7363 52.541C49.8516 52.541 54 56.707 54 61.8047C54 66.9199 49.834 71.0859 44.7363 71.0859ZM44.7363 56.5664C41.8008 56.5664 39.498 58.8691 39.498 61.8047C39.5859 64.6699 41.9414 67.043 44.7363 67.043C47.6719 67.043 49.9746 64.7402 49.9746 61.8047C49.9746 58.8691 47.6719 56.5664 44.7363 56.5664Z" fill="#1F384E"/>
<path d="M14.502 45.0176C13.1836 45.0176 11.7773 44.7012 10.6523 44.1387C7.52341 42.75 5.37891 39.4277 5.37891 35.8945C5.37891 30.8496 9.47461 26.7539 14.5195 26.7539C14.8359 26.7539 15.3633 26.7539 15.9082 26.9121C20.4258 27.3867 23.7832 31.1484 23.7832 35.7539C23.7832 40.8691 19.6172 45.0176 14.502 45.0176ZM14.625 30.7793C14.5723 30.7793 14.5371 30.7793 14.502 30.7793C11.7422 30.7793 9.40431 33.1172 9.40431 35.877C9.40431 37.8105 10.6172 39.709 12.375 40.4824C13.0254 40.8164 13.7988 40.9746 14.5195 40.9746C17.3672 40.9746 19.7578 38.584 19.7578 35.7363C19.7578 33.1699 17.8418 31.0781 15.3105 30.9023C15.1172 30.8848 14.9238 30.8496 14.748 30.7793C14.6953 30.7793 14.6602 30.7793 14.625 30.7793Z" fill="#1F384E"/>
<path d="M27.2637 63.0176H2.02148C0.91406 63.0176 0 62.1211 0 60.9961V57.375C0 50.6426 4.5 44.8066 10.9336 43.1895C11.9707 42.8906 13.2363 42.7324 14.5195 42.7324C18.457 42.7324 22.2715 44.2617 24.9434 46.9512C27.7031 49.7109 29.3027 53.5078 29.3027 57.375V60.9961C29.2852 62.1211 28.3887 63.0176 27.2637 63.0176ZM4.02539 58.9922H25.2422V57.375C25.2422 54.5801 24.082 51.8203 22.0781 49.7988C20.1445 47.8652 17.3848 46.7578 14.502 46.7578C13.5879 46.7578 12.709 46.8633 11.9707 47.0918C7.2598 48.2695 4.02539 52.4883 4.02539 57.375V58.9922Z" fill="#1F384E"/>
<path d="M87.9785 63.0176H62.7363C61.6289 63.0176 60.7148 62.1211 60.7148 60.9961V57.375C60.7148 49.3066 67.2891 42.7324 75.3574 42.7324C76.4473 42.7324 77.502 42.8906 78.3809 43.0312C81.3867 43.6992 83.8477 45 85.7813 46.9512C88.5586 49.8867 90 53.4727 90 57.375V60.9961C90 62.1211 89.1035 63.0176 87.9785 63.0176ZM64.7402 58.9922H85.957V57.375C85.957 54.5273 84.8848 51.8906 82.8809 49.7637C81.5273 48.4102 79.7344 47.4609 77.5898 46.9863C76.9746 46.8809 76.1484 46.7578 75.3398 46.7578C69.4863 46.7578 64.7227 51.5215 64.7227 57.375V58.9922H64.7402Z" fill="#1F384E"/>
<path d="M75.3574 45.0176C70.3301 45.0176 66.2168 40.8516 66.2168 35.7539C66.2168 31.377 69.2051 27.7207 73.5117 26.8066C74.1797 26.6133 74.8828 26.6133 75.498 26.6133C80.5254 26.6133 84.6387 30.709 84.6387 35.7539C84.6387 39.709 82.1953 43.1719 78.5566 44.3848C77.6426 44.6836 76.623 45.0176 75.3574 45.0176ZM75.498 30.6562C75.2168 30.6562 74.7773 30.6562 74.6367 30.6914C74.5664 30.709 74.4961 30.7266 74.4082 30.7441C71.9297 31.2363 70.2598 33.2578 70.2598 35.7539C70.2598 38.6367 72.5449 40.9922 75.3574 40.9922C75.9727 40.9922 76.5703 40.7988 77.2734 40.5527C79.2598 39.8848 80.5957 37.9512 80.5957 35.7539C80.5957 32.9941 78.2578 30.6562 75.498 30.6562Z" fill="#1F384E"/>
<path d="M57.3574 89.0859H32.0977C30.9902 89.0859 30.0762 88.1895 30.0762 87.0645V83.4434C30.0762 80.4902 30.9375 77.6426 32.5723 75.1992C35.2969 71.1914 39.7969 68.8008 44.5957 68.8008C48.4629 68.8008 52.207 70.3301 54.8789 73.0195C55.4414 73.582 56.0918 74.2324 56.6191 75.0937C58.4473 77.6953 59.3613 80.5078 59.3613 83.4434V87.0645C59.3789 88.1719 58.4648 89.0859 57.3574 89.0859ZM34.1191 85.043H55.3359V83.4258C55.3359 81.2812 54.668 79.2949 53.2793 77.3262C53.2441 77.291 53.2266 77.2383 53.1914 77.2031C52.9102 76.7461 52.4707 76.3066 52.0137 75.8496C50.1152 73.9512 47.3379 72.8086 44.5781 72.8086C41.0625 72.8086 37.8984 74.4961 35.8945 77.4316C34.7168 79.1895 34.1016 81.2637 34.1016 83.4258V85.043H34.1191Z" fill="#1F384E"/>
<path d="M34.3828 78.7324C34.1719 78.7324 33.9609 78.6973 33.7676 78.627C25.4707 75.9551 18.2461 69.9785 13.957 62.2441C13.6055 61.6113 13.623 60.8555 13.9746 60.2402C14.3437 59.625 14.9941 59.2559 15.7148 59.2559H25.2598V57.6387C25.2598 54.7559 24.1523 51.9961 22.2187 50.0625C20.2852 48.1289 17.5254 47.0215 14.6426 47.0215C13.7285 47.0215 12.8496 47.127 12.1113 47.3555C11.4961 47.5313 10.8457 47.4082 10.3535 47.0215C9.84382 46.6348 9.54492 46.0371 9.54492 45.4219V45.0176C9.54492 44.1738 9.54492 43.1016 9.70312 42.1348C9.80862 41.4844 10.2305 40.9219 10.8281 40.6406C11.4258 40.3594 12.1113 40.377 12.6914 40.7109C13.2012 41.0098 13.7461 41.1152 14.6426 41.1152C17.5781 41.1152 19.8809 38.8125 19.8809 35.877C19.8809 33.3106 18 31.1484 15.416 30.7441C14.7656 30.6387 14.2031 30.2344 13.9219 29.6543C13.623 29.0742 13.6406 28.3711 13.957 27.8086C18.8789 18.6855 27.5977 12.252 37.8984 10.1426C38.8301 9.9492 39.7969 10.4414 40.166 11.3379C40.957 13.2012 42.8027 14.3965 44.8945 14.3965C46.9863 14.3965 48.832 13.2012 49.623 11.3379C49.9922 10.459 50.9238 9.9668 51.8555 10.1426C62.0156 12.0938 70.7871 18.5273 75.9375 27.791C76.2539 28.3535 76.2715 29.0215 76.0078 29.6016C75.7441 30.1816 75.2168 30.6035 74.584 30.7441C72.1582 31.2539 70.418 33.3633 70.418 35.7539C70.418 38.6016 72.7559 40.9922 75.5156 40.9922C76.2187 40.9922 76.7109 40.9043 77.168 40.6758C77.8008 40.3594 78.5391 40.3945 79.1367 40.7637C79.7344 41.1328 80.0859 41.7832 80.0859 42.4863V45.1758C80.0859 45.8262 79.7695 46.4238 79.2422 46.8105C78.7148 47.1797 78.0293 47.2852 77.4316 47.0918C76.9394 46.9336 76.1484 46.9336 75.375 46.9336C69.5215 46.9336 64.7578 51.6973 64.7578 57.5508V59.168H73.7578C74.4785 59.168 75.1289 59.5371 75.498 60.1523C75.8672 60.7676 75.8672 61.5234 75.5156 62.1562C71.2441 69.8379 64.2129 75.6563 55.7227 78.5391C54.8262 78.8379 53.8418 78.4863 53.3496 77.6602C53.0684 77.2031 52.6641 76.7812 52.1719 76.3066C50.1855 74.3203 47.6191 73.2656 44.7363 73.2656C41.2207 73.2656 38.0566 74.9531 36.0527 77.8887C35.666 78.416 35.0508 78.7324 34.3828 78.7324ZM19.3711 63.2988C22.957 68.3086 27.9844 72.2109 33.6621 74.3555C36.4219 71.1211 40.4473 69.2227 44.7187 69.2227C48.6387 69.2227 52.2949 70.7168 55.002 73.4414C55.248 73.6875 55.4941 73.9336 55.7578 74.2148C61.5762 71.9648 66.5332 68.1328 70.084 63.1758H62.7187C61.6113 63.1758 60.6973 62.2793 60.6973 61.1543V57.5332C60.6973 51.082 64.8984 45.5801 70.7168 43.6465C68.1152 41.9941 66.3398 39.0586 66.3398 35.7715C66.3398 32.3965 68.2559 29.3379 71.1562 27.7559C66.7617 21.0234 60.0996 16.2598 52.4707 14.4141C50.8008 16.9102 47.9707 18.4395 44.8418 18.4395C41.7305 18.4395 38.8828 16.9102 37.2305 14.4316C29.5488 16.3828 22.957 21.0938 18.7207 27.6328C21.832 29.1445 23.8887 32.291 23.8887 35.8945C23.8887 39.2344 22.1133 42.1699 19.459 43.8047C21.5684 44.5078 23.502 45.6855 25.0488 47.2324C27.7207 49.9043 29.2676 53.7188 29.2676 57.6563V61.2773C29.2676 62.3848 28.3711 63.2988 27.2461 63.2988H19.3711Z" fill="#1F384E"/>
</svg>
