<svg width="77" height="75" viewBox="0 0 77 75" fill="none" xmlns="http://www.w3.org/2000/svg">
<rect width="76" height="74" fill="white"/>
<path d="M42.5197 60.2666L43.1603 56.012C44.9734 55.5526 46.7139 54.8395 48.3336 53.8725L51.7905 56.4229C52.1531 56.6888 52.6487 56.6526 52.9751 56.3383L57.5682 51.7452C57.8825 51.4309 57.9187 50.9233 57.6528 50.5606L55.1024 47.1037C56.0694 45.484 56.7825 43.7435 57.2418 41.9304L61.4965 41.3019C61.9437 41.2414 62.2701 40.8546 62.2701 40.4074V33.9166C62.2701 33.4694 61.9437 33.0826 61.4965 33.0222L57.2418 32.3936C56.7825 30.5685 56.0573 28.84 55.1024 27.2203L57.6528 23.7634C57.9187 23.4008 57.8825 22.9052 57.5682 22.5788L52.9751 17.9857C52.6608 17.6714 52.1531 17.6352 51.7905 17.9011L48.3336 20.4515C46.7139 19.4845 44.9854 18.7714 43.1603 18.3121L42.5197 14.0574C42.4471 13.6102 42.0724 13.2838 41.6252 13.2838H35.1344C34.6872 13.2838 34.3004 13.6102 34.2399 14.0574L33.5993 18.3121C31.7862 18.7714 30.0457 19.4845 28.426 20.4515L24.9691 17.9011C24.6065 17.6352 24.1109 17.6714 23.7845 17.9857L19.1914 22.5788C18.8771 22.8931 18.8409 23.4008 19.1068 23.7634L21.6572 27.2203C20.6902 28.8279 19.9771 30.5685 19.5178 32.3936L15.2631 33.0222C14.8159 33.0826 14.4895 33.4694 14.4895 33.9166V40.4074C14.4895 40.8546 14.8159 41.2414 15.2631 41.3019L19.5178 41.9304C19.9771 43.7435 20.6902 45.484 21.6572 47.1037L19.1068 50.5606C18.8409 50.9233 18.8771 51.4188 19.1914 51.7452L23.7845 56.3383C24.0988 56.6526 24.6065 56.6888 24.9691 56.4229L28.426 53.8725C30.0457 54.8395 31.7742 55.5526 33.5993 56.012L34.2399 60.2666C34.3125 60.7139 34.6872 61.0402 35.1344 61.0402H41.6252C42.0724 61.0402 42.4471 60.7139 42.5197 60.2666ZM41.4439 55.1417L40.8395 59.2271H35.908L35.3036 55.1417C35.2432 54.767 34.9652 54.4648 34.6026 54.3923C32.5719 53.9451 30.638 53.1473 28.8732 52.0232C28.559 51.8177 28.148 51.8298 27.8458 52.0595L24.5219 54.5131L21.0287 51.02L23.4824 47.696C23.712 47.3938 23.7241 46.9828 23.5186 46.6686C22.3824 44.9038 21.5847 42.982 21.1495 40.9393C21.0649 40.5766 20.7748 40.2865 20.4001 40.2382L16.3147 39.6338V34.7023L20.4001 34.0979C20.7748 34.0375 21.077 33.7595 21.1495 33.3969C21.5968 31.3541 22.3945 29.4202 23.5186 27.6675C23.7241 27.3533 23.712 26.9423 23.4824 26.6401L21.0287 23.3162L24.5219 19.835L27.8458 22.2887C28.148 22.5063 28.559 22.5305 28.8732 22.325C30.638 21.2009 32.5598 20.4031 34.6026 19.9559C34.9652 19.8713 35.2553 19.5812 35.3036 19.2065L35.908 15.121H40.8395L41.4439 19.2065C41.5043 19.5812 41.7823 19.8834 42.145 19.9559C44.1756 20.4031 46.1095 21.2009 47.8743 22.325C48.1885 22.5305 48.5995 22.5184 48.9017 22.2887L52.2257 19.835L55.7068 23.3162L53.2531 26.6401C53.0234 26.9423 53.0113 27.3533 53.2168 27.6675C54.3409 29.4323 55.1387 31.3541 55.5859 33.3969C55.6705 33.7595 55.9606 34.0496 56.3353 34.0979L60.4208 34.7023V39.6338L56.3353 40.2382C55.9606 40.2986 55.6584 40.5766 55.5859 40.9393C55.1387 42.9699 54.3409 44.9038 53.2168 46.6686C53.0113 46.9828 53.0234 47.3938 53.2531 47.696L55.7068 51.02L52.2257 54.5131L48.9017 52.0595C48.5995 51.8298 48.1885 51.8177 47.8743 52.0232C46.1095 53.1473 44.1877 53.9451 42.145 54.3923C41.7823 54.4648 41.5043 54.767 41.4439 55.1417Z" fill="#1F384E"/>
<path d="M38.3737 27.4983C33.0433 27.4983 28.704 31.8376 28.704 37.1681C28.704 42.4985 33.0433 46.8378 38.3737 46.8378C43.7042 46.8378 48.0435 42.4985 48.0435 37.1681C48.0435 31.8376 43.7042 27.4983 38.3737 27.4983ZM38.3737 45.0247C34.0344 45.0247 30.5171 41.4953 30.5171 37.1681C30.5171 32.8409 34.0465 29.3114 38.3737 29.3114C42.7009 29.3114 46.2304 32.8409 46.2304 37.1681C46.2304 41.4953 42.713 45.0247 38.3737 45.0247Z" fill="#1F384E"/>
<path d="M38.3738 70.1056C20.5452 70.1056 5.99222 55.8669 5.46038 38.1713L7.5152 40.2261C7.69651 40.4074 7.92616 40.492 8.15582 40.492C8.38548 40.492 8.61513 40.4074 8.79644 40.2261C9.14697 39.8756 9.14697 39.2954 8.79644 38.9449L5.17029 35.3187C4.81976 34.9682 4.23958 34.9682 3.88905 35.3187L0.262896 38.9449C-0.087632 39.2954 -0.087632 39.8756 0.262896 40.2261C0.613424 40.5766 1.19361 40.5766 1.54414 40.2261L3.6473 38.1229C4.15497 56.846 19.5298 71.9187 38.3738 71.9187C38.8693 71.9187 39.2803 71.5077 39.2803 71.0121C39.2803 70.5166 38.8693 70.1056 38.3738 70.1056Z" fill="#1F384E"/>
<path d="M76.4846 34.11C76.1341 33.7595 75.5539 33.7595 75.2034 34.11L73.1002 36.2132C72.5925 17.4901 57.2177 2.41743 38.3738 2.41743C37.8782 2.41743 37.4672 2.8284 37.4672 3.32397C37.4672 3.81955 37.8782 4.23051 38.3738 4.23051C56.2023 4.23051 70.7553 18.4692 71.2871 36.1648L69.2323 34.11C68.8818 33.7595 68.3016 33.7595 67.9511 34.11C67.6005 34.4605 67.6005 35.0407 67.9511 35.3912L71.5772 39.0174C71.7585 39.1987 71.9882 39.2833 72.2178 39.2833C72.4475 39.2833 72.6772 39.1987 72.8585 39.0174L76.4846 35.3912C76.8351 35.0407 76.8351 34.4605 76.4846 34.11Z" fill="#1F384E"/>
<path d="M1.22992 23.7392C1.18157 23.9689 1.22992 24.2227 1.35079 24.4161L5.27912 30.5201C5.54504 30.9432 6.11314 31.064 6.53619 30.7981L9.46128 28.9125C10.7667 29.9641 12.2655 30.7619 13.9094 31.2937C14.0061 31.3299 14.1028 31.342 14.1874 31.342C14.5742 31.342 14.9247 31.1003 15.0456 30.7135C15.2027 30.2421 14.9368 29.7224 14.4654 29.5652C12.8336 29.0334 11.3711 28.1994 10.1261 27.0994C9.8239 26.8335 9.37667 26.7973 9.03823 27.0148L6.31862 28.7675L3.38144 24.1985L6.08896 22.458C6.4274 22.2404 6.58454 21.8173 6.46367 21.4306C6.10105 20.2581 5.91974 19.0494 5.91974 17.8286C5.91974 16.6078 6.10105 15.3991 6.46367 14.2266C6.58454 13.8398 6.4274 13.4168 6.08896 13.1992L3.38144 11.4586L6.31862 6.88969L9.03823 8.64233C9.37667 8.8599 9.8239 8.82364 10.1261 8.55772C11.5282 7.32483 13.1479 6.44246 14.9368 5.9348C15.3236 5.82602 15.6016 5.4634 15.6016 5.06453V1.81308H21.0408V5.04035C21.0408 5.45131 21.3067 5.80184 21.7056 5.91063C23.4945 6.41829 25.1142 7.30065 26.5163 8.53354C26.8185 8.79946 27.2657 8.83572 27.6041 8.61815L30.3237 6.86551L33.0192 11.0598C33.2851 11.4828 33.8532 11.6037 34.2762 11.3378C34.6993 11.0718 34.8202 10.5038 34.5422 10.0807L31.3512 5.12496C31.0852 4.70191 30.5171 4.58104 30.0941 4.84696L27.169 6.73256C25.8757 5.70515 24.401 4.8953 22.8418 4.36347V0.906538C22.8418 0.410964 22.4308 0 21.9352 0H14.6829C14.1874 0 13.7764 0.410964 13.7764 0.906538V4.37556C12.2172 4.90739 10.7425 5.70515 9.4492 6.74464L6.5241 4.85904C6.10105 4.59313 5.54504 4.714 5.27912 5.13705L1.35079 11.2411C1.21783 11.4466 1.18157 11.6883 1.22992 11.918C1.27827 12.1476 1.42331 12.3531 1.6288 12.486L4.52972 14.3596C4.23963 15.4958 4.09458 16.6561 4.09458 17.8286C4.09458 19.001 4.25171 20.1614 4.52972 21.2976L1.61671 23.1711C1.42331 23.3041 1.27827 23.5095 1.22992 23.7392Z" fill="#1F384E"/>
<path d="M18.3091 11.4828C20.5814 11.4828 22.6967 12.7157 23.8208 14.698C24.0625 15.1331 24.6186 15.2903 25.0537 15.0364C25.4888 14.7826 25.646 14.2387 25.3921 13.8036C23.9417 11.2532 21.2221 9.66974 18.297 9.66974C13.8005 9.66974 10.1381 13.3322 10.1381 17.8286C10.1381 21.5635 12.6764 24.815 16.3026 25.7336C16.3751 25.7578 16.4476 25.7578 16.5201 25.7578C16.919 25.7578 17.2937 25.4798 17.4025 25.0688C17.5234 24.5853 17.2333 24.0897 16.7498 23.9689C13.9214 23.2557 11.9512 20.7295 11.9512 17.8286C11.9633 14.3233 14.8038 11.4828 18.3091 11.4828Z" fill="#1F384E"/>
<path d="M75.3967 49.9079L71.4684 43.8039C71.3355 43.5984 71.13 43.4534 70.9003 43.405C70.6707 43.3567 70.4168 43.405 70.2234 43.5259L67.2983 45.4115C65.9929 44.3599 64.4941 43.5622 62.8503 43.0303C62.3789 42.8732 61.8591 43.1391 61.702 43.6105C61.5448 44.0819 61.8108 44.6017 62.2822 44.7588C63.9139 45.2906 65.3765 46.1247 66.6215 47.2246C66.9236 47.4905 67.3709 47.5268 67.7093 47.3092L70.4289 45.5566L73.3661 50.1255L70.6586 51.8661C70.3201 52.0836 70.163 52.5067 70.2839 52.8935C70.6465 54.0659 70.8278 55.2746 70.8278 56.4955C70.8278 57.7163 70.6465 58.925 70.2839 60.0974C70.163 60.4842 70.3201 60.9073 70.6586 61.1248L73.3661 62.8654L70.4289 67.4343L67.7093 65.6817C67.3709 65.4641 66.9236 65.5004 66.6215 65.7663C65.2193 66.9992 63.5997 67.8937 61.8108 68.3892C61.424 68.498 61.146 68.8606 61.146 69.2595V72.4868H55.7067V69.2595C55.7067 68.8485 55.4408 68.498 55.0419 68.3892C53.253 67.8816 51.6334 66.9992 50.2312 65.7663C49.9291 65.5004 49.4818 65.4641 49.1434 65.6817L46.4238 67.4343L43.7283 63.2401C43.4624 62.817 42.8943 62.6962 42.4713 62.9621C42.0482 63.228 41.9274 63.7961 42.2054 64.2192L45.3964 69.1749C45.5293 69.3804 45.7348 69.5254 45.9645 69.5738C46.2062 69.6221 46.448 69.5738 46.6534 69.4529L49.5785 67.5673C50.884 68.6068 52.3344 69.4046 53.9057 69.9364V73.4296C53.9057 73.9252 54.3167 74.3361 54.8123 74.3361H62.0646C62.5602 74.3361 62.9711 73.9252 62.9711 73.4296V69.9606C64.5425 69.4287 65.9929 68.6431 67.2983 67.5915L70.2234 69.4771C70.4289 69.61 70.6707 69.6463 70.9003 69.5979C71.13 69.5496 71.3355 69.4046 71.4684 69.1991L75.3967 63.095C75.6627 62.672 75.5418 62.116 75.1308 61.838L72.2178 59.9766C72.5079 58.8404 72.653 57.68 72.653 56.5075C72.653 55.3351 72.5079 54.1747 72.2178 53.0385L75.1308 51.165C75.5418 50.8991 75.6627 50.331 75.3967 49.9079Z" fill="#1F384E"/>
<path d="M58.4385 62.8533C56.1661 62.8533 54.0508 61.6204 52.9267 59.6381C52.6729 59.203 52.129 59.0458 51.6938 59.2997C51.2587 59.5414 51.1016 60.0974 51.3554 60.5326C52.8059 63.083 55.5255 64.6664 58.4506 64.6664C62.947 64.6664 66.6094 61.004 66.6094 56.5075C66.6094 52.7726 64.0711 49.5211 60.445 48.6025C59.9615 48.4816 59.4659 48.7717 59.345 49.2552C59.2242 49.7387 59.5142 50.2343 59.9977 50.3552C62.8261 51.0683 64.7963 53.5945 64.7963 56.4954C64.7843 60.0128 61.9438 62.8533 58.4385 62.8533Z" fill="#1F384E"/>
</svg>
