<svg width="90" height="89" viewBox="0 0 90 89" fill="none" xmlns="http://www.w3.org/2000/svg">
<rect width="90" height="89" fill="white"/>
<path d="M45 0C20.7232 0 1 19.7232 1 44C1 68.277 20.7232 88 45 88C45.265 88.0037 45.5281 87.9548 45.7741 87.856C46.02 87.7571 46.2439 87.6104 46.4326 87.4243C46.6213 87.2382 46.7712 87.0165 46.8735 86.772C46.9758 86.5275 47.0285 86.2651 47.0285 86C47.0285 85.7349 46.9758 85.4725 46.8735 85.228C46.7712 84.9835 46.6213 84.7618 46.4326 84.5757C46.2439 84.3896 46.02 84.2429 45.7741 84.144C45.5281 84.0452 45.265 83.9963 45 84C22.8849 84 5 66.1152 5 44C5 21.885 22.8849 4 45 4C67.1151 4 85 21.885 85 44C85 53.9391 81.3648 63.009 75.375 70L75.5938 65.7188C75.6121 65.4349 75.5697 65.1505 75.4694 64.8843C75.3691 64.6182 75.2132 64.3765 75.0121 64.1754C74.811 63.9743 74.5693 63.8184 74.3032 63.7181C74.037 63.6178 73.7526 63.5754 73.4688 63.5938C72.9816 63.6315 72.5252 63.8462 72.1855 64.1974C71.8459 64.5486 71.6465 65.0119 71.625 65.5L71.125 75.3438C71.1086 75.6603 71.1676 75.9762 71.2973 76.2654C71.4269 76.5547 71.6234 76.809 71.8707 77.0073C72.1179 77.2057 72.4087 77.3425 72.7191 77.4064C73.0296 77.4703 73.3508 77.4596 73.6562 77.375L84.0312 74.375C84.2848 74.3021 84.5214 74.1799 84.7276 74.0153C84.9337 73.8507 85.1054 73.647 85.2325 73.4159C85.3597 73.1848 85.44 72.9308 85.4688 72.6686C85.4975 72.4064 85.4742 72.141 85.4001 71.8879C85.326 71.6347 85.2026 71.3986 85.037 71.1933C84.8714 70.9879 84.6668 70.8173 84.4351 70.6913C84.2034 70.5652 83.949 70.4862 83.6866 70.4587C83.4243 70.4313 83.1591 70.4559 82.9062 70.5312L79.2812 71.5938C85.3653 64.0501 89 54.4368 89 44C89 19.7232 69.2768 0 45 0ZM38.4375 15.0312C37.9402 15.0781 37.4785 15.3093 37.1431 15.6795C36.8076 16.0496 36.6228 16.5318 36.625 17.0312V21.4062C36.0325 21.6226 35.4474 21.8645 34.875 22.125L31.7812 19.0312C31.5952 18.8433 31.3738 18.694 31.1297 18.5921C30.8857 18.4903 30.6238 18.4378 30.3594 18.4378C30.0949 18.4378 29.8331 18.4903 29.589 18.5921C29.3449 18.694 29.1235 18.8433 28.9375 19.0312L19.9375 28C19.7495 28.186 19.6003 28.4074 19.4984 28.6515C19.3965 28.8956 19.3441 29.1574 19.3441 29.4219C19.3441 29.6863 19.3965 29.9482 19.4984 30.1922C19.6003 30.4363 19.7495 30.6577 19.9375 30.8438L23.0312 33.9062C22.7679 34.4797 22.5309 35.0626 22.3125 35.6562H17.9062C17.3758 35.6563 16.8672 35.867 16.4921 36.2421C16.117 36.6172 15.9063 37.1258 15.9062 37.6562V50.3438C15.9063 50.8742 16.117 51.3828 16.4921 51.7579C16.8672 52.133 17.3758 52.3437 17.9062 52.3438H22.3125C22.5282 52.928 22.7719 53.4978 23.0312 54.0625L19.9375 57.125C19.7495 57.311 19.6003 57.5324 19.4984 57.7765C19.3965 58.0206 19.3441 58.2824 19.3441 58.5469C19.3441 58.8113 19.3965 59.0732 19.4984 59.3172C19.6003 59.5613 19.7495 59.7827 19.9375 59.9688L28.9375 68.9375C29.1235 69.1255 29.3449 69.2747 29.589 69.3766C29.8331 69.4785 30.0949 69.5309 30.3594 69.5309C30.6238 69.5309 30.8857 69.4785 31.1297 69.3766C31.3738 69.2747 31.5952 69.1255 31.7812 68.9375L34.875 65.875C35.4452 66.1344 36.0349 66.3469 36.625 66.5625V70.9375C36.6251 71.4679 36.8358 71.9766 37.2108 72.3517C37.5859 72.7267 38.0946 72.9374 38.625 72.9375H51.375C51.9054 72.9374 52.4141 72.7267 52.7892 72.3517C53.1642 71.9766 53.3749 71.4679 53.375 70.9375V66.5625C53.9688 66.3456 54.5514 66.105 55.125 65.8438C55.4619 66.1788 55.8187 66.5388 56.2188 66.9375C57.2247 67.9401 58.2188 68.9375 58.2188 68.9375C58.4048 69.1255 58.6262 69.2747 58.8703 69.3766C59.1143 69.4785 59.3762 69.5309 59.6406 69.5309C59.9051 69.5309 60.1669 69.4785 60.411 69.3766C60.6551 69.2747 60.8765 69.1255 61.0625 68.9375L70.0625 59.9688C70.2505 59.7827 70.3997 59.5613 70.5016 59.3172C70.6035 59.0732 70.6559 58.8113 70.6559 58.5469C70.6559 58.2824 70.6035 58.0206 70.5016 57.7765C70.3997 57.5324 70.2505 57.311 70.0625 57.125C70.0625 57.125 69.0393 56.1255 68.0312 55.125C67.6418 54.7385 67.2988 54.3911 66.9688 54.0625C67.2281 53.4978 67.4718 52.928 67.6875 52.3438H72.0938C72.6242 52.3437 73.1328 52.133 73.5079 51.7579C73.883 51.3828 74.0937 50.8742 74.0938 50.3438V37.6562C74.0937 37.1258 73.883 36.6172 73.5079 36.2421C73.1328 35.867 72.6242 35.6563 72.0938 35.6562H67.6875C67.4691 35.0626 67.2321 34.4797 66.9688 33.9062C67.2987 33.5777 67.6419 33.2301 68.0312 32.8438C69.039 31.8437 70.0625 30.8438 70.0625 30.8438C70.2505 30.6577 70.3997 30.4363 70.5016 30.1922C70.6035 29.9482 70.6559 29.6863 70.6559 29.4219C70.6559 29.1574 70.6035 28.8956 70.5016 28.6515C70.3997 28.4074 70.2505 28.186 70.0625 28L61.0625 19.0312C60.8765 18.8433 60.6551 18.694 60.411 18.5921C60.1669 18.4903 59.9051 18.4378 59.6406 18.4378C59.3762 18.4378 59.1143 18.4903 58.8703 18.5921C58.6262 18.694 58.4048 18.8433 58.2188 19.0312C58.2188 19.0312 57.2243 20.0596 56.2188 21.0625C55.8303 21.45 55.4865 21.7966 55.1562 22.125C54.5755 21.8598 53.9765 21.6259 53.375 21.4062V17.0312C53.3749 16.5008 53.1642 15.9922 52.7892 15.6171C52.4141 15.242 51.9054 15.0313 51.375 15.0312H38.625C38.5625 15.0283 38.5 15.0283 38.4375 15.0312ZM40.625 19.0312H49.375V22.7188C49.3711 23.1541 49.5093 23.5789 49.7688 23.9286C50.0282 24.2783 50.3947 24.5338 50.8125 24.6562C52.1566 25.0555 53.4605 25.5754 54.6562 26.2188H56.5625C56.5625 26.2188 56.7431 26.0907 56.7812 26.0625C56.8575 26.0061 56.8862 25.986 56.9062 25.9688C56.9464 25.9343 56.9553 25.9499 56.9688 25.9375C56.9956 25.9126 57.0115 25.894 57.0312 25.875C57.0708 25.8369 57.1296 25.7757 57.1875 25.7188C57.3033 25.6049 57.4657 25.4391 57.6562 25.25C58.0373 24.8718 58.5273 24.3776 59.0312 23.875C59.3281 23.5789 59.3542 23.5517 59.625 23.2812L65.8125 29.4062C65.5407 29.6756 65.5164 29.7047 65.2188 30C64.7136 30.5013 64.2242 30.9954 63.8438 31.375C63.6535 31.5648 63.49 31.7278 63.375 31.8438C63.3175 31.9017 63.258 31.9595 63.2188 32C63.1991 32.0202 63.1829 32.0338 63.1562 32.0625C63.1429 32.0768 63.1307 32.0818 63.0938 32.125C63.0753 32.1466 63.0586 32.1696 63 32.25C62.9707 32.2902 62.8438 32.4688 62.8438 32.4688L62.75 34.1562C62.787 34.2317 62.8288 34.3048 62.875 34.375C63.5209 35.5635 64.0366 36.8829 64.4375 38.2188C64.56 38.6366 64.8154 39.003 65.1651 39.2625C65.5148 39.5219 65.9396 39.6602 66.375 39.6562H70.0938V48.3438H66.375C65.9436 48.3378 65.5218 48.4716 65.1726 48.725C64.8234 48.9784 64.5656 49.338 64.4375 49.75C64.0366 51.0859 63.5209 52.405 62.875 53.5938V55.5C62.875 55.5 63.0027 55.7118 63.0312 55.75C63.0883 55.826 63.1076 55.8238 63.125 55.8438C63.1598 55.8837 63.1437 55.8932 63.1562 55.9062C63.1813 55.9333 63.1996 55.9488 63.2188 55.9688C63.2571 56.0078 63.3178 56.0678 63.375 56.125C63.4894 56.2403 63.6537 56.4041 63.8438 56.5938C64.2239 56.9728 64.7136 57.4672 65.2188 57.9688C65.5164 58.2641 65.5407 58.293 65.8125 58.5625L59.625 64.6875C59.3542 64.4175 59.328 64.3895 59.0312 64.0938C58.5275 63.5917 58.0365 63.0965 57.6562 62.7188C57.4661 62.5299 57.3016 62.3627 57.1875 62.25C57.1304 62.194 57.0986 62.16 57.0625 62.125C57.0445 62.107 57.0197 62.0805 57 62.0625C56.9902 62.0525 56.9936 62.0522 56.9688 62.0312C56.9563 62.0203 56.9182 62.0038 56.875 61.9688C56.8534 61.9508 56.75 61.875 56.75 61.875L55.5938 61.5C55.2655 61.5051 54.9435 61.591 54.6562 61.75C53.4605 62.3933 52.1568 62.913 50.8125 63.3125C50.3947 63.435 50.0282 63.6904 49.7688 64.0401C49.5093 64.3898 49.3711 64.8146 49.375 65.25V68.9375H40.625V65.25C40.6289 64.8146 40.4907 64.3898 40.2312 64.0401C39.9718 63.6904 39.6053 63.435 39.1875 63.3125C37.8432 62.913 36.5395 62.3933 35.3438 61.75C34.964 61.5427 34.5272 61.4642 34.099 61.5261C33.6708 61.5881 33.2742 61.7873 32.9688 62.0938L30.375 64.6875L24.1875 58.5625L26.7812 55.9688C27.0877 55.6633 27.2869 55.2667 27.3489 54.8385C27.4108 54.4103 27.3323 53.9735 27.125 53.5938C26.4791 52.405 25.9634 51.0859 25.5625 49.75C25.4344 49.338 25.1766 48.9784 24.8274 48.725C24.4782 48.4716 24.0564 48.3378 23.625 48.3438H19.9062V39.6562H23.625C24.0604 39.6602 24.4852 39.5219 24.8349 39.2625C25.1846 39.003 25.44 38.6366 25.5625 38.2188C25.9634 36.8829 26.4791 35.5635 27.125 34.375C27.3248 33.9987 27.3992 33.5683 27.3374 33.1468C27.2756 32.7252 27.0807 32.3344 26.7812 32.0312L24.1875 29.4375L30.375 23.2812L32.9688 25.875C33.2742 26.1815 33.6708 26.3806 34.099 26.4426C34.5272 26.5046 34.964 26.426 35.3438 26.2188C36.5395 25.5754 37.8434 25.0555 39.1875 24.6562C39.6053 24.5338 39.9718 24.2783 40.2312 23.9286C40.4907 23.5789 40.6289 23.1541 40.625 22.7188V19.0312ZM45 30.875C37.7646 30.875 31.8438 36.7846 31.8438 44C31.8438 51.2156 37.7646 57.0938 45 57.0938C52.2354 57.0938 58.1562 51.2156 58.1562 44C58.1562 36.7846 52.2354 30.875 45 30.875ZM45 34.875C50.0844 34.875 54.1562 38.9573 54.1562 44C54.1562 49.043 50.0844 53.0938 45 53.0938C39.9155 53.0938 35.8438 49.043 35.8438 44C35.8438 38.9573 39.9156 34.875 45 34.875Z" fill="#1F384E"/>
</svg>
