<svg width="87" height="89" viewBox="0 0 87 89" fill="none" xmlns="http://www.w3.org/2000/svg">
<rect width="87" height="89" fill="white"/>
<path d="M62.35 0H0V13.05H4.35V62.35H29.812L21.112 85.55C20.9793 85.825 20.906 86.1249 20.8969 86.4301C20.8877 86.7353 20.943 87.039 21.059 87.3214C21.1749 87.6039 21.3491 87.8587 21.5701 88.0694C21.7911 88.2801 22.054 88.4419 22.3417 88.5443C22.6293 88.6467 22.9353 88.6873 23.2398 88.6636C23.5442 88.6399 23.8402 88.5524 24.1085 88.4067C24.3769 88.261 24.6116 88.0605 24.7973 87.8181C24.983 87.5758 25.1156 87.297 25.1865 87L29 76.85H57.275C57.4916 76.8486 57.7067 76.8143 57.913 76.7485L61.7555 87C61.8264 87.297 61.959 87.5758 62.1447 87.8181C62.3304 88.0605 62.5651 88.261 62.8335 88.4067C63.1018 88.5524 63.3978 88.6399 63.7022 88.6636C64.0067 88.6873 64.3127 88.6467 64.6003 88.5443C64.888 88.4419 65.1509 88.2801 65.3719 88.0694C65.5929 87.8587 65.7671 87.6039 65.883 87.3214C65.999 87.039 66.0543 86.7353 66.0451 86.4301C66.036 86.1249 65.9627 85.825 65.83 85.55L57.13 62.35H82.65V13.05H87V0H62.35ZM56.3325 72.5H30.6675L34.452 62.35H52.548L56.3325 72.5ZM78.3 58H8.7V13.05H78.3V58ZM82.65 8.7H4.35V4.35H82.65V8.7Z" fill="#1F384E"/>
<path d="M66.4825 21.0685L68.962 22.5185L52.5045 24.186C52.2079 24.2157 51.9277 24.336 51.702 24.5306C51.4763 24.7251 51.316 24.9846 51.243 25.2735L47.5165 40.0925L32.4655 23.4755C32.3132 23.3075 32.1236 23.1776 31.912 23.0962C31.7004 23.0147 31.4726 22.9841 31.247 23.0066C31.0214 23.0292 30.8042 23.1044 30.6129 23.2261C30.4216 23.3478 30.2615 23.5127 30.1455 23.7075L13.05 52.4175C12.9306 52.5816 12.8471 52.7689 12.8047 52.9673C12.7623 53.1657 12.762 53.3708 12.8038 53.5693C12.8456 53.7679 12.9287 53.9554 13.0475 54.1198C13.1664 54.2842 13.3184 54.4219 13.4938 54.5239C13.6692 54.6258 13.8641 54.6899 14.0658 54.7118C14.2675 54.7338 14.4715 54.7131 14.6648 54.6513C14.858 54.5894 15.0361 54.4877 15.1875 54.3527C15.339 54.2177 15.4604 54.0524 15.544 53.8675L31.639 26.8685L47.183 44.051C47.3545 44.2457 47.5751 44.3907 47.8218 44.4711C48.0685 44.5515 48.3322 44.5642 48.5855 44.5079C48.8387 44.4516 49.0723 44.3284 49.2617 44.1511C49.4511 43.9738 49.5895 43.749 49.6625 43.5L53.8095 26.97L69.252 25.52L67.106 27.4775C66.8214 27.7371 66.6516 28.0991 66.6339 28.4838C66.6162 28.8686 66.7521 29.2447 67.0117 29.5292C67.2713 29.8138 67.6333 29.9836 68.0181 30.0013C68.4028 30.019 68.7789 29.8831 69.0635 29.6235L74.414 24.65C74.5791 24.4976 74.7065 24.3089 74.7862 24.0988C74.8659 23.8887 74.8957 23.6629 74.8732 23.4394C74.8507 23.2158 74.7765 23.0005 74.6566 22.8105C74.5366 22.6205 74.3741 22.461 74.182 22.3445L67.9905 18.5745C67.6669 18.4411 67.306 18.4293 66.9744 18.5411C66.6428 18.653 66.3629 18.881 66.1862 19.1831C66.0095 19.4852 65.9481 19.841 66.0132 20.1848C66.0783 20.5287 66.2656 20.8374 66.5405 21.054L66.4825 21.0685Z" fill="#1F384E"/>
<path d="M15.5006 26.6365L13.8621 29C13.6504 29.3174 13.5723 29.7054 13.6447 30.0799C13.7172 30.4545 13.9343 30.7854 14.249 31.0009C14.5638 31.2165 14.9508 31.2993 15.3262 31.2315C15.7016 31.1636 16.0352 30.9506 16.2546 30.6385L17.8931 28.246L20.3001 29.9135C20.4525 30.056 20.6339 30.1638 20.8319 30.2298C21.0299 30.2957 21.2398 30.3181 21.4472 30.2955C21.6547 30.2729 21.8548 30.2057 22.0339 30.0987C22.213 29.9916 22.3669 29.8472 22.4851 29.6752C22.6033 29.5032 22.6829 29.3077 22.7186 29.1021C22.7543 28.8965 22.7452 28.6857 22.692 28.4839C22.6387 28.2822 22.5425 28.0943 22.41 27.9331C22.2775 27.7719 22.1117 27.6412 21.9241 27.55L19.5316 25.9115L21.1701 23.49C21.2804 23.333 21.3585 23.1556 21.3998 22.9682C21.4412 22.7808 21.4449 22.5871 21.4107 22.3982C21.3766 22.2094 21.3053 22.0292 21.201 21.8681C21.0967 21.707 20.9615 21.5682 20.8031 21.4598C20.6448 21.3513 20.4665 21.2754 20.2786 21.2364C20.0907 21.1974 19.8969 21.196 19.7085 21.2325C19.5201 21.2689 19.3408 21.3424 19.181 21.4487C19.0212 21.5549 18.884 21.6918 18.7776 21.8515L17.1391 24.244L14.7466 22.6055C14.4274 22.3805 14.0319 22.2916 13.6471 22.3582C13.2623 22.4248 12.9198 22.6416 12.6948 22.9607C12.4698 23.2799 12.3809 23.6754 12.4475 24.0602C12.5141 24.445 12.7309 24.7875 13.0501 25.0125L15.5006 26.6365Z" fill="#1F384E"/>
<path d="M36.9315 44.95L34.249 46.052L33.1615 43.5C33.0154 43.1443 32.7339 42.8612 32.3791 42.713C32.0242 42.5648 31.625 42.5636 31.2693 42.7098C30.9136 42.8559 30.6305 43.1373 30.4823 43.4922C30.3341 43.8471 30.3329 44.2463 30.479 44.602L31.581 47.2845L28.8985 48.3865C28.5428 48.5326 28.2597 48.8141 28.1115 49.169C27.9633 49.5238 27.9621 49.923 28.1083 50.2787C28.2544 50.6345 28.5359 50.9176 28.8907 51.0658C29.2456 51.214 29.6448 51.2151 30.0005 51.069L32.683 49.967L33.785 52.6495C33.9312 53.0052 34.2126 53.2883 34.5675 53.4365C34.9224 53.5847 35.3216 53.5859 35.6773 53.4397C36.033 53.2936 36.3161 53.0122 36.4643 52.6573C36.6125 52.3024 36.6137 51.9032 36.4675 51.5475L35.3655 48.865L38.048 47.763C38.2327 47.6897 38.4012 47.5807 38.5438 47.4423C38.6864 47.3039 38.8003 47.1387 38.8791 46.9563C38.9578 46.7739 38.9999 46.5777 39.0028 46.379C39.0058 46.1803 38.9696 45.983 38.8963 45.7982C38.823 45.6135 38.714 45.4451 38.5756 45.3025C38.4372 45.1599 38.272 45.046 38.0896 44.9672C37.9071 44.8884 37.711 44.8464 37.5123 44.8434C37.3136 44.8405 37.1162 44.8767 36.9315 44.95Z" fill="#1F384E"/>
<path d="M66.6999 37.1345L64.2929 38.744L62.6834 36.337C62.5768 36.179 62.4401 36.0435 62.2811 35.9382C62.1221 35.833 61.9439 35.7602 61.7568 35.7238C61.5696 35.6875 61.3771 35.6883 61.1903 35.7264C61.0035 35.7644 60.826 35.8389 60.6679 35.9455C60.5099 36.0521 60.3744 36.1889 60.2692 36.3478C60.164 36.5068 60.0911 36.685 60.0548 36.8722C60.0184 37.0593 60.0193 37.2518 60.0573 37.4386C60.0953 37.6255 60.1698 37.803 60.2764 37.961L61.8859 40.368L59.4499 42.05C59.1307 42.2654 58.9102 42.5987 58.8368 42.9767C58.7633 43.3546 58.8431 43.7463 59.0584 44.0655C59.2738 44.3847 59.6071 44.6053 59.9851 44.6787C60.3631 44.7521 60.7547 44.6724 61.0739 44.457L63.5099 42.775L65.1194 45.182C65.3425 45.5031 65.684 45.7225 66.0687 45.7918C66.4535 45.8611 66.8501 45.7748 67.1712 45.5518C67.4923 45.3287 67.7117 44.9872 67.781 44.6025C67.8503 44.2177 67.764 43.8211 67.5409 43.5L65.9314 41.093L68.3384 39.469C68.5317 39.3804 68.7031 39.2503 68.8406 39.088C68.978 38.9257 69.078 38.7352 69.1336 38.5299C69.1892 38.3247 69.1989 38.1097 69.1621 37.9003C69.1254 37.6908 69.043 37.492 68.9208 37.318C68.7987 37.1439 68.6397 36.9989 68.4552 36.8931C68.2708 36.7873 68.0653 36.7234 67.8534 36.7059C67.6414 36.6884 67.4283 36.7177 67.2289 36.7918C67.0296 36.8659 66.849 36.9829 66.6999 37.1345Z" fill="#1F384E"/>
</svg>
