<svg width="189" height="169" viewBox="0 0 189 169" fill="none" xmlns="http://www.w3.org/2000/svg">
<g clip-path="url(#clip0_1_2)">
<rect width="189" height="169" fill="white"/>
<circle cx="94" cy="99" r="37" fill="#1F384E"/>
<circle cx="94" cy="99" r="69" stroke="#1F384E" stroke-width="2" stroke-dasharray="4 4"/>
<path d="M85.4325 94V85.4102H87.1669V94H85.4325ZM88.7051 94V85.4102H95.0742V86.8633H90.4395V88.7676H94.752V90.2148H90.4395V92.5527H95.2383V94H88.7051ZM96.5831 85.4102H99.753C100.468 85.4102 101.013 85.4648 101.388 85.5742C101.892 85.7227 102.323 85.9863 102.683 86.3652C103.042 86.7441 103.316 87.209 103.503 87.7598C103.691 88.3066 103.784 88.9824 103.784 89.7871C103.784 90.4941 103.696 91.1035 103.521 91.6152C103.306 92.2402 102.999 92.7461 102.601 93.1328C102.3 93.4258 101.894 93.6543 101.382 93.8184C100.999 93.9395 100.487 94 99.8468 94H96.5831V85.4102ZM98.3175 86.8633V92.5527H99.6124C100.097 92.5527 100.446 92.5254 100.661 92.4707C100.943 92.4004 101.175 92.2812 101.359 92.1133C101.546 91.9453 101.698 91.6699 101.816 91.2871C101.933 90.9004 101.991 90.375 101.991 89.7109C101.991 89.0469 101.933 88.5371 101.816 88.1816C101.698 87.8262 101.534 87.5488 101.323 87.3496C101.112 87.1504 100.845 87.0156 100.521 86.9453C100.278 86.8906 99.8038 86.8633 99.0968 86.8633H98.3175ZM70.5598 105.205L72.2473 105.041C72.3488 105.607 72.5539 106.023 72.8625 106.289C73.175 106.555 73.5949 106.688 74.1223 106.688C74.6809 106.688 75.1008 106.57 75.382 106.336C75.6672 106.098 75.8098 105.82 75.8098 105.504C75.8098 105.301 75.7492 105.129 75.6281 104.988C75.5109 104.844 75.3039 104.719 75.007 104.613C74.8039 104.543 74.341 104.418 73.6184 104.238C72.6887 104.008 72.0363 103.725 71.6613 103.389C71.134 102.916 70.8703 102.34 70.8703 101.66C70.8703 101.223 70.9934 100.814 71.2395 100.436C71.4895 100.053 71.8469 99.7617 72.3117 99.5625C72.7805 99.3633 73.3449 99.2637 74.0051 99.2637C75.0832 99.2637 75.8937 99.5 76.4367 99.9727C76.9836 100.445 77.2707 101.076 77.298 101.865L75.5637 101.941C75.4895 101.5 75.3293 101.184 75.0832 100.992C74.841 100.797 74.4758 100.699 73.9875 100.699C73.4836 100.699 73.0891 100.803 72.8039 101.01C72.6203 101.143 72.5285 101.32 72.5285 101.543C72.5285 101.746 72.6145 101.92 72.7863 102.064C73.0051 102.248 73.5363 102.439 74.3801 102.639C75.2238 102.838 75.8469 103.045 76.2492 103.26C76.6555 103.471 76.9719 103.762 77.1984 104.133C77.4289 104.5 77.5441 104.955 77.5441 105.498C77.5441 105.99 77.4074 106.451 77.134 106.881C76.8605 107.311 76.4738 107.631 75.9738 107.842C75.4738 108.049 74.8508 108.152 74.1047 108.152C73.0187 108.152 72.1848 107.902 71.6027 107.402C71.0207 106.898 70.673 106.166 70.5598 105.205ZM81.139 108V104.385L77.9925 99.4102H80.0257L82.0472 102.809L84.0277 99.4102H86.0257L82.8675 104.396V108H81.139ZM86.3276 105.205L88.0151 105.041C88.1166 105.607 88.3217 106.023 88.6303 106.289C88.9428 106.555 89.3627 106.688 89.8901 106.688C90.4487 106.688 90.8686 106.57 91.1498 106.336C91.435 106.098 91.5776 105.82 91.5776 105.504C91.5776 105.301 91.517 105.129 91.3959 104.988C91.2787 104.844 91.0717 104.719 90.7748 104.613C90.5717 104.543 90.1088 104.418 89.3862 104.238C88.4565 104.008 87.8041 103.725 87.4291 103.389C86.9018 102.916 86.6381 102.34 86.6381 101.66C86.6381 101.223 86.7612 100.814 87.0073 100.436C87.2573 100.053 87.6147 99.7617 88.0795 99.5625C88.5483 99.3633 89.1127 99.2637 89.7729 99.2637C90.851 99.2637 91.6616 99.5 92.2045 99.9727C92.7514 100.445 93.0385 101.076 93.0659 101.865L91.3315 101.941C91.2573 101.5 91.0971 101.184 90.851 100.992C90.6088 100.797 90.2436 100.699 89.7553 100.699C89.2514 100.699 88.8569 100.803 88.5717 101.01C88.3881 101.143 88.2963 101.32 88.2963 101.543C88.2963 101.746 88.3823 101.92 88.5541 102.064C88.7729 102.248 89.3041 102.439 90.1479 102.639C90.9916 102.838 91.6147 103.045 92.017 103.26C92.4233 103.471 92.7397 103.762 92.9662 104.133C93.1967 104.5 93.312 104.955 93.312 105.498C93.312 105.99 93.1752 106.451 92.9018 106.881C92.6284 107.311 92.2416 107.631 91.7416 107.842C91.2416 108.049 90.6186 108.152 89.8725 108.152C88.7866 108.152 87.9526 107.902 87.3705 107.402C86.7885 106.898 86.4409 106.166 86.3276 105.205ZM96.5845 108V100.863H94.0357V99.4102H100.862V100.863H98.3189V108H96.5845ZM101.867 108V99.4102H108.236V100.863H103.601V102.768H107.914V104.215H103.601V106.553H108.4V108H101.867ZM109.727 108V99.4102H112.323L113.882 105.27L115.423 99.4102H118.024V108H116.413V101.238L114.708 108H113.038L111.339 101.238V108H109.727Z" fill="white"/>
<circle cx="94" cy="29" r="29" fill="#1F384E"/>
<path d="M77.1469 32V24.8418H79.31L80.6088 29.7246L81.893 24.8418H84.0609V32H82.7182V26.3652L81.2973 32H79.9057L78.4896 26.3652V32H77.1469ZM86.4121 28.3965L85.167 28.1719C85.307 27.6706 85.5479 27.2995 85.8896 27.0586C86.2314 26.8177 86.7393 26.6973 87.4131 26.6973C88.0251 26.6973 88.4808 26.7705 88.7803 26.917C89.0798 27.0602 89.2897 27.2441 89.4102 27.4688C89.5339 27.6901 89.5957 28.0986 89.5957 28.6943L89.5811 30.2959C89.5811 30.7516 89.6022 31.0885 89.6445 31.3066C89.6901 31.5215 89.7731 31.7526 89.8936 32H88.5361C88.5003 31.9089 88.4564 31.7738 88.4043 31.5947C88.3815 31.5133 88.3652 31.4596 88.3555 31.4336C88.1211 31.6615 87.8704 31.8324 87.6035 31.9463C87.3366 32.0602 87.0518 32.1172 86.749 32.1172C86.2152 32.1172 85.7936 31.9723 85.4844 31.6826C85.1784 31.3929 85.0254 31.0267 85.0254 30.584C85.0254 30.291 85.0954 30.0306 85.2354 29.8027C85.3753 29.5716 85.5706 29.3958 85.8213 29.2754C86.0752 29.1517 86.4398 29.0443 86.915 28.9531C87.5563 28.8327 88.0007 28.7204 88.248 28.6162V28.4795C88.248 28.2158 88.1829 28.0286 88.0527 27.918C87.9225 27.804 87.6768 27.7471 87.3154 27.7471C87.0713 27.7471 86.8809 27.7959 86.7441 27.8936C86.6074 27.988 86.4967 28.1556 86.4121 28.3965ZM88.248 29.5098C88.0723 29.5684 87.7939 29.6383 87.4131 29.7197C87.0322 29.8011 86.7832 29.8809 86.666 29.959C86.487 30.0859 86.3975 30.2471 86.3975 30.4424C86.3975 30.6344 86.4691 30.8005 86.6123 30.9404C86.7555 31.0804 86.9378 31.1504 87.1592 31.1504C87.4066 31.1504 87.6426 31.069 87.8672 30.9062C88.0332 30.7826 88.1423 30.6312 88.1943 30.4521C88.2301 30.335 88.248 30.112 88.248 29.7832V29.5098ZM93.2311 26.8145V27.9082H92.2936V29.998C92.2936 30.4212 92.3017 30.6686 92.318 30.7402C92.3375 30.8086 92.3782 30.8656 92.44 30.9111C92.5051 30.9567 92.5833 30.9795 92.6744 30.9795C92.8014 30.9795 92.9853 30.9355 93.2262 30.8477L93.3434 31.9121C93.0243 32.0488 92.663 32.1172 92.2594 32.1172C92.012 32.1172 91.789 32.0765 91.5904 31.9951C91.3919 31.9105 91.2454 31.8031 91.151 31.6729C91.0598 31.5394 90.9964 31.3604 90.9605 31.1357C90.9313 30.9762 90.9166 30.654 90.9166 30.1689V27.9082H90.2867V26.8145H90.9166V25.7842L92.2936 24.9834V26.8145H93.2311ZM97.0861 30.3496L98.4533 30.5791C98.2775 31.0804 97.9992 31.4629 97.6184 31.7266C97.2408 31.987 96.7671 32.1172 96.1975 32.1172C95.2958 32.1172 94.6285 31.8226 94.1955 31.2334C93.8537 30.7614 93.6828 30.1657 93.6828 29.4463C93.6828 28.5869 93.9074 27.9147 94.3566 27.4297C94.8059 26.9414 95.3739 26.6973 96.0607 26.6973C96.8322 26.6973 97.441 26.9528 97.8869 27.4639C98.3329 27.9717 98.5461 28.7513 98.5266 29.8027H95.0891C95.0988 30.2096 95.2095 30.527 95.4211 30.7549C95.6327 30.9795 95.8964 31.0918 96.2121 31.0918C96.427 31.0918 96.6076 31.0332 96.7541 30.916C96.9006 30.7988 97.0113 30.61 97.0861 30.3496ZM97.1643 28.9629C97.1545 28.5658 97.052 28.2646 96.8566 28.0596C96.6613 27.8512 96.4237 27.7471 96.1438 27.7471C95.8443 27.7471 95.5969 27.8561 95.4016 28.0742C95.2063 28.2923 95.1102 28.5885 95.1135 28.9629H97.1643ZM100.863 32H99.491V26.8145H100.765V27.5518C100.984 27.2035 101.179 26.974 101.351 26.8633C101.527 26.7526 101.726 26.6973 101.947 26.6973C102.26 26.6973 102.561 26.7835 102.85 26.9561L102.426 28.1523C102.194 28.0026 101.98 27.9277 101.781 27.9277C101.589 27.9277 101.426 27.9814 101.293 28.0889C101.159 28.193 101.054 28.3835 100.975 28.6602C100.901 28.9368 100.863 29.5163 100.863 30.3984V32ZM103.346 26.1113V24.8418H104.718V26.1113H103.346ZM103.346 32V26.8145H104.718V32H103.346ZM107.055 28.3965L105.81 28.1719C105.95 27.6706 106.19 27.2995 106.532 27.0586C106.874 26.8177 107.382 26.6973 108.056 26.6973C108.668 26.6973 109.123 26.7705 109.423 26.917C109.722 27.0602 109.932 27.2441 110.053 27.4688C110.176 27.6901 110.238 28.0986 110.238 28.6943L110.224 30.2959C110.224 30.7516 110.245 31.0885 110.287 31.3066C110.333 31.5215 110.416 31.7526 110.536 32H109.179C109.143 31.9089 109.099 31.7738 109.047 31.5947C109.024 31.5133 109.008 31.4596 108.998 31.4336C108.764 31.6615 108.513 31.8324 108.246 31.9463C107.979 32.0602 107.694 32.1172 107.392 32.1172C106.858 32.1172 106.436 31.9723 106.127 31.6826C105.821 31.3929 105.668 31.0267 105.668 30.584C105.668 30.291 105.738 30.0306 105.878 29.8027C106.018 29.5716 106.213 29.3958 106.464 29.2754C106.718 29.1517 107.082 29.0443 107.558 28.9531C108.199 28.8327 108.643 28.7204 108.891 28.6162V28.4795C108.891 28.2158 108.826 28.0286 108.695 27.918C108.565 27.804 108.319 27.7471 107.958 27.7471C107.714 27.7471 107.523 27.7959 107.387 27.8936C107.25 27.988 107.139 28.1556 107.055 28.3965ZM108.891 29.5098C108.715 29.5684 108.437 29.6383 108.056 29.7197C107.675 29.8011 107.426 29.8809 107.309 29.959C107.13 30.0859 107.04 30.2471 107.04 30.4424C107.04 30.6344 107.112 30.8005 107.255 30.9404C107.398 31.0804 107.58 31.1504 107.802 31.1504C108.049 31.1504 108.285 31.069 108.51 30.9062C108.676 30.7826 108.785 30.6312 108.837 30.4521C108.873 30.335 108.891 30.112 108.891 29.7832V29.5098ZM111.496 32V24.8418H112.868V32H111.496Z" fill="white"/>
<circle cx="160" cy="126" r="29" fill="#1F384E"/>
<path d="M134.838 123V115.842H136.244L139.174 120.622V115.842H140.516V123H139.066L136.18 118.332V123H134.838ZM144.943 121.35L146.31 121.579C146.134 122.08 145.856 122.463 145.475 122.727C145.097 122.987 144.624 123.117 144.054 123.117C143.152 123.117 142.485 122.823 142.052 122.233C141.71 121.761 141.539 121.166 141.539 120.446C141.539 119.587 141.764 118.915 142.213 118.43C142.663 117.941 143.231 117.697 143.917 117.697C144.689 117.697 145.298 117.953 145.744 118.464C146.19 118.972 146.403 119.751 146.383 120.803H142.946C142.955 121.21 143.066 121.527 143.278 121.755C143.489 121.979 143.753 122.092 144.069 122.092C144.284 122.092 144.464 122.033 144.611 121.916C144.757 121.799 144.868 121.61 144.943 121.35ZM145.021 119.963C145.011 119.566 144.909 119.265 144.713 119.06C144.518 118.851 144.28 118.747 144 118.747C143.701 118.747 143.454 118.856 143.258 119.074C143.063 119.292 142.967 119.589 142.97 119.963H145.021ZM149.784 117.814V118.908H148.847V120.998C148.847 121.421 148.855 121.669 148.871 121.74C148.891 121.809 148.931 121.866 148.993 121.911C149.058 121.957 149.136 121.979 149.228 121.979C149.354 121.979 149.538 121.936 149.779 121.848L149.896 122.912C149.577 123.049 149.216 123.117 148.813 123.117C148.565 123.117 148.342 123.076 148.144 122.995C147.945 122.91 147.799 122.803 147.704 122.673C147.613 122.539 147.549 122.36 147.514 122.136C147.484 121.976 147.47 121.654 147.47 121.169V118.908H146.84V117.814H147.47V116.784L148.847 115.983V117.814H149.784ZM151.603 123L149.963 117.814H151.296L152.267 121.213L153.161 117.814H154.484L155.348 121.213L156.339 117.814H157.692L156.027 123H154.709L153.815 119.665L152.936 123H151.603ZM158.002 120.334C158.002 119.878 158.114 119.437 158.339 119.011C158.564 118.584 158.881 118.259 159.291 118.034C159.705 117.81 160.165 117.697 160.673 117.697C161.458 117.697 162.1 117.953 162.602 118.464C163.103 118.972 163.354 119.615 163.354 120.393C163.354 121.177 163.1 121.828 162.592 122.346C162.087 122.86 161.451 123.117 160.683 123.117C160.208 123.117 159.753 123.01 159.321 122.795C158.891 122.58 158.564 122.266 158.339 121.853C158.114 121.436 158.002 120.93 158.002 120.334ZM159.408 120.407C159.408 120.922 159.53 121.315 159.775 121.589C160.019 121.862 160.32 121.999 160.678 121.999C161.036 121.999 161.335 121.862 161.576 121.589C161.821 121.315 161.943 120.918 161.943 120.397C161.943 119.89 161.821 119.499 161.576 119.226C161.335 118.952 161.036 118.815 160.678 118.815C160.32 118.815 160.019 118.952 159.775 119.226C159.53 119.499 159.408 119.893 159.408 120.407ZM165.646 123H164.274V117.814H165.549V118.552C165.767 118.203 165.962 117.974 166.135 117.863C166.31 117.753 166.509 117.697 166.73 117.697C167.043 117.697 167.344 117.784 167.634 117.956L167.209 119.152C166.978 119.003 166.763 118.928 166.564 118.928C166.372 118.928 166.209 118.981 166.076 119.089C165.943 119.193 165.837 119.383 165.759 119.66C165.684 119.937 165.646 120.516 165.646 121.398V123ZM168.08 123V115.842H169.453V119.641L171.059 117.814H172.748L170.976 119.709L172.875 123H171.396L170.092 120.671L169.453 121.34V123H168.08ZM175.962 120.334C175.962 119.878 176.074 119.437 176.298 119.011C176.523 118.584 176.84 118.259 177.251 118.034C177.664 117.81 178.125 117.697 178.632 117.697C179.417 117.697 180.06 117.953 180.561 118.464C181.062 118.972 181.313 119.615 181.313 120.393C181.313 121.177 181.059 121.828 180.551 122.346C180.047 122.86 179.41 123.117 178.642 123.117C178.167 123.117 177.713 123.01 177.28 122.795C176.85 122.58 176.523 122.266 176.298 121.853C176.074 121.436 175.962 120.93 175.962 120.334ZM177.368 120.407C177.368 120.922 177.49 121.315 177.734 121.589C177.978 121.862 178.279 121.999 178.637 121.999C178.995 121.999 179.295 121.862 179.536 121.589C179.78 121.315 179.902 120.918 179.902 120.397C179.902 119.89 179.78 119.499 179.536 119.226C179.295 118.952 178.995 118.815 178.637 118.815C178.279 118.815 177.978 118.952 177.734 119.226C177.49 119.499 177.368 119.893 177.368 120.407ZM181.692 117.814H182.453V117.424C182.453 116.988 182.499 116.662 182.59 116.447C182.684 116.232 182.855 116.058 183.103 115.925C183.353 115.788 183.669 115.72 184.05 115.72C184.441 115.72 184.823 115.778 185.197 115.896L185.012 116.853C184.794 116.8 184.584 116.774 184.382 116.774C184.183 116.774 184.04 116.822 183.952 116.916C183.868 117.007 183.825 117.185 183.825 117.448V117.814H184.851V118.894H183.825V123H182.453V118.894H181.692V117.814ZM136.433 135V127.842H138.753C139.631 127.842 140.204 127.878 140.471 127.949C140.881 128.057 141.225 128.291 141.502 128.652C141.778 129.01 141.917 129.474 141.917 130.044C141.917 130.483 141.837 130.853 141.677 131.152C141.518 131.452 141.314 131.688 141.067 131.86C140.823 132.03 140.574 132.142 140.32 132.197C139.975 132.266 139.475 132.3 138.821 132.3H137.879V135H136.433ZM137.879 129.053V131.084H138.67C139.239 131.084 139.62 131.047 139.812 130.972C140.004 130.897 140.154 130.78 140.261 130.62C140.372 130.461 140.427 130.275 140.427 130.063C140.427 129.803 140.351 129.588 140.198 129.419C140.045 129.25 139.851 129.144 139.617 129.102C139.444 129.069 139.098 129.053 138.577 129.053H137.879ZM145.996 133.35L147.363 133.579C147.188 134.08 146.909 134.463 146.529 134.727C146.151 134.987 145.677 135.117 145.108 135.117C144.206 135.117 143.539 134.823 143.106 134.233C142.764 133.761 142.593 133.166 142.593 132.446C142.593 131.587 142.818 130.915 143.267 130.43C143.716 129.941 144.284 129.697 144.971 129.697C145.742 129.697 146.351 129.953 146.797 130.464C147.243 130.972 147.456 131.751 147.437 132.803H143.999C144.009 133.21 144.12 133.527 144.331 133.755C144.543 133.979 144.807 134.092 145.122 134.092C145.337 134.092 145.518 134.033 145.664 133.916C145.811 133.799 145.921 133.61 145.996 133.35ZM146.074 131.963C146.065 131.566 145.962 131.265 145.767 131.06C145.571 130.851 145.334 130.747 145.054 130.747C144.754 130.747 144.507 130.856 144.312 131.074C144.116 131.292 144.02 131.589 144.024 131.963H146.074ZM149.773 135H148.401V129.814H149.676V130.552C149.894 130.203 150.089 129.974 150.262 129.863C150.437 129.753 150.636 129.697 150.857 129.697C151.17 129.697 151.471 129.784 151.761 129.956L151.336 131.152C151.105 131.003 150.89 130.928 150.691 130.928C150.499 130.928 150.336 130.981 150.203 131.089C150.069 131.193 149.964 131.383 149.886 131.66C149.811 131.937 149.773 132.516 149.773 133.398V135ZM151.773 133.521L153.15 133.311C153.208 133.577 153.327 133.781 153.506 133.921C153.685 134.058 153.936 134.126 154.258 134.126C154.613 134.126 154.88 134.061 155.059 133.931C155.179 133.84 155.24 133.717 155.24 133.564C155.24 133.46 155.207 133.374 155.142 133.306C155.074 133.241 154.921 133.18 154.683 133.125C153.576 132.881 152.875 132.658 152.579 132.456C152.168 132.176 151.963 131.787 151.963 131.289C151.963 130.84 152.141 130.462 152.496 130.156C152.85 129.85 153.4 129.697 154.146 129.697C154.856 129.697 155.383 129.813 155.728 130.044C156.073 130.275 156.311 130.617 156.441 131.069L155.147 131.309C155.092 131.107 154.986 130.952 154.829 130.845C154.676 130.737 154.457 130.684 154.17 130.684C153.809 130.684 153.55 130.734 153.394 130.835C153.29 130.907 153.238 130.999 153.238 131.113C153.238 131.211 153.283 131.294 153.374 131.362C153.498 131.453 153.925 131.582 154.654 131.748C155.386 131.914 155.897 132.118 156.187 132.358C156.473 132.603 156.617 132.943 156.617 133.379C156.617 133.854 156.418 134.263 156.021 134.604C155.624 134.946 155.036 135.117 154.258 135.117C153.552 135.117 152.992 134.974 152.579 134.688C152.168 134.401 151.9 134.012 151.773 133.521ZM157.405 132.334C157.405 131.878 157.518 131.437 157.742 131.011C157.967 130.584 158.284 130.259 158.694 130.034C159.108 129.81 159.568 129.697 160.076 129.697C160.861 129.697 161.504 129.953 162.005 130.464C162.506 130.972 162.757 131.615 162.757 132.393C162.757 133.177 162.503 133.828 161.995 134.346C161.491 134.86 160.854 135.117 160.086 135.117C159.611 135.117 159.157 135.01 158.724 134.795C158.294 134.58 157.967 134.266 157.742 133.853C157.518 133.436 157.405 132.93 157.405 132.334ZM158.812 132.407C158.812 132.922 158.934 133.315 159.178 133.589C159.422 133.862 159.723 133.999 160.081 133.999C160.439 133.999 160.739 133.862 160.979 133.589C161.224 133.315 161.346 132.918 161.346 132.397C161.346 131.89 161.224 131.499 160.979 131.226C160.739 130.952 160.439 130.815 160.081 130.815C159.723 130.815 159.422 130.952 159.178 131.226C158.934 131.499 158.812 131.893 158.812 132.407ZM168.453 135H167.081V132.354C167.081 131.794 167.051 131.432 166.993 131.27C166.934 131.104 166.838 130.975 166.705 130.884C166.574 130.793 166.417 130.747 166.231 130.747C165.993 130.747 165.78 130.812 165.591 130.942C165.403 131.073 165.272 131.245 165.201 131.46C165.132 131.675 165.098 132.072 165.098 132.651V135H163.726V129.814H165.001V130.576C165.453 129.99 166.023 129.697 166.71 129.697C167.012 129.697 167.289 129.753 167.54 129.863C167.79 129.971 167.979 130.109 168.106 130.278C168.236 130.448 168.326 130.64 168.375 130.854C168.427 131.069 168.453 131.377 168.453 131.777V135ZM174.466 135H173.094V132.354C173.094 131.794 173.065 131.432 173.006 131.27C172.947 131.104 172.851 130.975 172.718 130.884C172.588 130.793 172.43 130.747 172.244 130.747C172.007 130.747 171.793 130.812 171.605 130.942C171.416 131.073 171.286 131.245 171.214 131.46C171.146 131.675 171.112 132.072 171.112 132.651V135H169.739V129.814H171.014V130.576C171.466 129.99 172.036 129.697 172.723 129.697C173.026 129.697 173.302 129.753 173.553 129.863C173.804 129.971 173.992 130.109 174.119 130.278C174.25 130.448 174.339 130.64 174.388 130.854C174.44 131.069 174.466 131.377 174.466 131.777V135ZM178.765 133.35L180.133 133.579C179.957 134.08 179.679 134.463 179.298 134.727C178.92 134.987 178.446 135.117 177.877 135.117C176.975 135.117 176.308 134.823 175.875 134.233C175.533 133.761 175.362 133.166 175.362 132.446C175.362 131.587 175.587 130.915 176.036 130.43C176.485 129.941 177.053 129.697 177.74 129.697C178.512 129.697 179.12 129.953 179.566 130.464C180.012 130.972 180.225 131.751 180.206 132.803H176.768C176.778 133.21 176.889 133.527 177.1 133.755C177.312 133.979 177.576 134.092 177.891 134.092C178.106 134.092 178.287 134.033 178.433 133.916C178.58 133.799 178.691 133.61 178.765 133.35ZM178.844 131.963C178.834 131.566 178.731 131.265 178.536 131.06C178.341 130.851 178.103 130.747 177.823 130.747C177.524 130.747 177.276 130.856 177.081 131.074C176.886 131.292 176.79 131.589 176.793 131.963H178.844ZM181.229 135V127.842H182.601V135H181.229Z" fill="white"/>
<circle cx="29" cy="126" r="29" fill="#1F384E"/>
<path d="M5.08848 129V121.842H7.40781C8.28672 121.842 8.85964 121.878 9.12656 121.949C9.53672 122.057 9.88014 122.291 10.1568 122.652C10.4335 123.01 10.5719 123.474 10.5719 124.044C10.5719 124.483 10.4921 124.853 10.3326 125.152C10.1731 125.452 9.96966 125.688 9.72227 125.86C9.47812 126.03 9.2291 126.142 8.97519 126.197C8.63014 126.266 8.13047 126.3 7.47617 126.3H6.53379V129H5.08848ZM6.53379 123.053V125.084H7.3248C7.89447 125.084 8.27533 125.047 8.46738 124.972C8.65944 124.897 8.80918 124.78 8.9166 124.62C9.02728 124.461 9.08262 124.275 9.08262 124.063C9.08262 123.803 9.00612 123.588 8.85312 123.419C8.70013 123.25 8.50644 123.144 8.27207 123.102C8.09954 123.069 7.75286 123.053 7.23203 123.053H6.53379ZM12.9621 129H11.59V123.814H12.8645V124.552C13.0826 124.203 13.2779 123.974 13.4504 123.863C13.6262 123.753 13.8247 123.697 14.0461 123.697C14.3586 123.697 14.6597 123.784 14.9494 123.956L14.5246 125.152C14.2935 125.003 14.0786 124.928 13.8801 124.928C13.688 124.928 13.5253 124.981 13.3918 125.089C13.2583 125.193 13.1525 125.383 13.0744 125.66C12.9995 125.937 12.9621 126.516 12.9621 127.398V129ZM15.1277 126.334C15.1277 125.878 15.24 125.437 15.4646 125.011C15.6893 124.584 16.0066 124.259 16.4168 124.034C16.8302 123.81 17.2908 123.697 17.7986 123.697C18.5831 123.697 19.226 123.953 19.7273 124.464C20.2286 124.972 20.4793 125.615 20.4793 126.393C20.4793 127.177 20.2254 127.828 19.7176 128.346C19.213 128.86 18.5766 129.117 17.8084 129.117C17.3331 129.117 16.879 129.01 16.4461 128.795C16.0164 128.58 15.6893 128.266 15.4646 127.853C15.24 127.436 15.1277 126.93 15.1277 126.334ZM16.534 126.407C16.534 126.922 16.6561 127.315 16.9002 127.589C17.1443 127.862 17.4454 127.999 17.8035 127.999C18.1616 127.999 18.4611 127.862 18.702 127.589C18.9461 127.315 19.0682 126.918 19.0682 126.397C19.0682 125.89 18.9461 125.499 18.702 125.226C18.4611 124.952 18.1616 124.815 17.8035 124.815C17.4454 124.815 17.1443 124.952 16.9002 125.226C16.6561 125.499 16.534 125.893 16.534 126.407ZM25.9799 125.348L24.6273 125.592C24.5818 125.322 24.4776 125.118 24.3148 124.981C24.1553 124.845 23.947 124.776 23.6898 124.776C23.348 124.776 23.0746 124.895 22.8695 125.133C22.6677 125.367 22.5668 125.761 22.5668 126.314C22.5668 126.93 22.6693 127.364 22.8744 127.618C23.0827 127.872 23.3611 127.999 23.7094 127.999C23.9698 127.999 24.183 127.926 24.349 127.779C24.515 127.63 24.6322 127.374 24.7006 127.013L26.0482 127.242C25.9083 127.861 25.6397 128.328 25.2426 128.644C24.8454 128.959 24.3132 129.117 23.6459 129.117C22.8874 129.117 22.282 128.878 21.8295 128.399C21.3803 127.921 21.1557 127.258 21.1557 126.412C21.1557 125.556 21.3819 124.89 21.8344 124.415C22.2868 123.937 22.8988 123.697 23.6703 123.697C24.3018 123.697 24.8031 123.834 25.1742 124.107C25.5486 124.378 25.8171 124.791 25.9799 125.348ZM29.9277 127.35L31.2949 127.579C31.1191 128.08 30.8408 128.463 30.46 128.727C30.0824 128.987 29.6087 129.117 29.0391 129.117C28.1374 129.117 27.4701 128.823 27.0371 128.233C26.6953 127.761 26.5244 127.166 26.5244 126.446C26.5244 125.587 26.749 124.915 27.1982 124.43C27.6475 123.941 28.2155 123.697 28.9023 123.697C29.6738 123.697 30.2826 123.953 30.7285 124.464C31.1745 124.972 31.3877 125.751 31.3682 126.803H27.9307C27.9404 127.21 28.0511 127.527 28.2627 127.755C28.4743 127.979 28.738 128.092 29.0537 128.092C29.2686 128.092 29.4492 128.033 29.5957 127.916C29.7422 127.799 29.8529 127.61 29.9277 127.35ZM30.0059 125.963C29.9961 125.566 29.8936 125.265 29.6982 125.06C29.5029 124.851 29.2653 124.747 28.9854 124.747C28.6859 124.747 28.4385 124.856 28.2432 125.074C28.0479 125.292 27.9518 125.589 27.9551 125.963H30.0059ZM31.9078 127.521L33.2848 127.311C33.3434 127.577 33.4622 127.781 33.6412 127.921C33.8202 128.058 34.0709 128.126 34.3932 128.126C34.748 128.126 35.0149 128.061 35.1939 127.931C35.3144 127.84 35.3746 127.717 35.3746 127.564C35.3746 127.46 35.3421 127.374 35.277 127.306C35.2086 127.241 35.0556 127.18 34.818 127.125C33.7112 126.881 33.0097 126.658 32.7135 126.456C32.3033 126.176 32.0982 125.787 32.0982 125.289C32.0982 124.84 32.2757 124.462 32.6305 124.156C32.9853 123.85 33.5354 123.697 34.2809 123.697C34.9905 123.697 35.5178 123.813 35.8629 124.044C36.2079 124.275 36.4456 124.617 36.5758 125.069L35.2818 125.309C35.2265 125.107 35.1207 124.952 34.9645 124.845C34.8115 124.737 34.5917 124.684 34.3053 124.684C33.9439 124.684 33.6852 124.734 33.5289 124.835C33.4247 124.907 33.3727 124.999 33.3727 125.113C33.3727 125.211 33.4182 125.294 33.5094 125.362C33.6331 125.453 34.0595 125.582 34.7887 125.748C35.5211 125.914 36.0322 126.118 36.3219 126.358C36.6083 126.603 36.7516 126.943 36.7516 127.379C36.7516 127.854 36.553 128.263 36.1559 128.604C35.7587 128.946 35.1712 129.117 34.3932 129.117C33.6868 129.117 33.1269 128.974 32.7135 128.688C32.3033 128.401 32.0348 128.012 31.9078 127.521ZM37.3742 127.521L38.7512 127.311C38.8098 127.577 38.9286 127.781 39.1076 127.921C39.2867 128.058 39.5373 128.126 39.8596 128.126C40.2144 128.126 40.4813 128.061 40.6604 127.931C40.7808 127.84 40.841 127.717 40.841 127.564C40.841 127.46 40.8085 127.374 40.7434 127.306C40.675 127.241 40.522 127.18 40.2844 127.125C39.1776 126.881 38.4761 126.658 38.1799 126.456C37.7697 126.176 37.5647 125.787 37.5647 125.289C37.5647 124.84 37.7421 124.462 38.0969 124.156C38.4517 123.85 39.0018 123.697 39.7473 123.697C40.4569 123.697 40.9842 123.813 41.3293 124.044C41.6744 124.275 41.912 124.617 42.0422 125.069L40.7482 125.309C40.6929 125.107 40.5871 124.952 40.4309 124.845C40.2779 124.737 40.0581 124.684 39.7717 124.684C39.4104 124.684 39.1516 124.734 38.9953 124.835C38.8911 124.907 38.8391 124.999 38.8391 125.113C38.8391 125.211 38.8846 125.294 38.9758 125.362C39.0995 125.453 39.5259 125.582 40.2551 125.748C40.9875 125.914 41.4986 126.118 41.7883 126.358C42.0747 126.603 42.218 126.943 42.218 127.379C42.218 127.854 42.0194 128.263 41.6223 128.604C41.2251 128.946 40.6376 129.117 39.8596 129.117C39.1532 129.117 38.5933 128.974 38.1799 128.688C37.7697 128.401 37.5012 128.012 37.3742 127.521ZM46.327 127.35L47.6941 127.579C47.5184 128.08 47.24 128.463 46.8592 128.727C46.4816 128.987 46.0079 129.117 45.4383 129.117C44.5366 129.117 43.8693 128.823 43.4363 128.233C43.0945 127.761 42.9236 127.166 42.9236 126.446C42.9236 125.587 43.1482 124.915 43.5975 124.43C44.0467 123.941 44.6147 123.697 45.3016 123.697C46.073 123.697 46.6818 123.953 47.1277 124.464C47.5737 124.972 47.7869 125.751 47.7674 126.803H44.3299C44.3396 127.21 44.4503 127.527 44.6619 127.755C44.8735 127.979 45.1372 128.092 45.4529 128.092C45.6678 128.092 45.8484 128.033 45.9949 127.916C46.1414 127.799 46.2521 127.61 46.327 127.35ZM46.4051 125.963C46.3953 125.566 46.2928 125.265 46.0975 125.06C45.9021 124.851 45.6645 124.747 45.3846 124.747C45.0851 124.747 44.8377 124.856 44.6424 125.074C44.4471 125.292 44.351 125.589 44.3543 125.963H46.4051ZM48.307 127.521L49.684 127.311C49.7426 127.577 49.8614 127.781 50.0404 127.921C50.2195 128.058 50.4701 128.126 50.7924 128.126C51.1472 128.126 51.4141 128.061 51.5932 127.931C51.7136 127.84 51.7738 127.717 51.7738 127.564C51.7738 127.46 51.7413 127.374 51.6762 127.306C51.6078 127.241 51.4548 127.18 51.2172 127.125C50.1104 126.881 49.4089 126.658 49.1127 126.456C48.7025 126.176 48.4975 125.787 48.4975 125.289C48.4975 124.84 48.6749 124.462 49.0297 124.156C49.3845 123.85 49.9346 123.697 50.6801 123.697C51.3897 123.697 51.9171 123.813 52.2621 124.044C52.6072 124.275 52.8448 124.617 52.975 125.069L51.6811 125.309C51.6257 125.107 51.5199 124.952 51.3637 124.845C51.2107 124.737 50.9909 124.684 50.7045 124.684C50.3432 124.684 50.0844 124.734 49.9281 124.835C49.824 124.907 49.7719 124.999 49.7719 125.113C49.7719 125.211 49.8174 125.294 49.9086 125.362C50.0323 125.453 50.4587 125.582 51.1879 125.748C51.9203 125.914 52.4314 126.118 52.7211 126.358C53.0076 126.603 53.1508 126.943 53.1508 127.379C53.1508 127.854 52.9522 128.263 52.5551 128.604C52.1579 128.946 51.5704 129.117 50.7924 129.117C50.086 129.117 49.5261 128.974 49.1127 128.688C48.7025 128.401 48.434 128.012 48.307 127.521Z" fill="white"/>
</g>
<defs>
<clipPath id="clip0_1_2">
<rect width="189" height="169" fill="white"/>
</clipPath>
</defs>
</svg>
