<svg width="64" height="93" viewBox="0 0 64 93" fill="none" xmlns="http://www.w3.org/2000/svg">
<rect width="64" height="92" fill="white"/>
<path d="M18.7775 78.4629C21.3922 78.4629 23.5194 76.33 23.5194 73.7081C23.5194 71.5968 22.1229 69.8248 20.21 69.2136V58.2054C20.21 55.8567 24.0817 55.0499 29.5528 54.1639C35.5862 53.1888 43.0952 51.9735 42.7658 45.6266V31.0587L46.0148 34.3076C46.5772 34.87 47.4861 34.87 48.0485 34.3076C48.6108 33.7453 48.6108 32.8363 48.0485 32.274L42.3459 26.5714C41.7835 26.009 40.8746 26.009 40.3122 26.5714L34.6096 32.274C34.0473 32.8363 34.0473 33.7453 34.6096 34.3076C35.172 34.87 36.0809 34.87 36.6433 34.3076L39.8894 31.0616L39.8908 45.7013C40.0763 49.2782 35.7358 50.2505 29.094 51.3248C23.3123 52.2597 17.3335 53.2262 17.3335 58.2054V69.2165C15.4207 69.8306 14.0242 71.6011 14.0242 73.7095C14.0242 76.33 16.1556 78.4629 18.7775 78.4629ZM18.7775 71.8456C19.8059 71.8456 20.6429 72.6826 20.6429 73.7095C20.6429 74.745 19.8059 75.5879 18.7775 75.5879C17.742 75.5879 16.9006 74.745 16.9006 73.7095C16.9006 72.6812 17.742 71.8456 18.7775 71.8456Z" fill="#1F384E"/>
<path d="M37.2115 62.2756C36.6491 61.7132 35.7402 61.7132 35.1778 62.2756L33.0133 64.4401L30.8487 62.2756C30.2864 61.7132 29.3774 61.7132 28.8151 62.2756C28.2527 62.8379 28.2527 63.7469 28.8151 64.3092L30.9796 66.4738L28.8151 68.6383C28.2527 69.2007 28.2527 70.1096 28.8151 70.672C29.3774 71.2343 30.2864 71.2343 30.8487 70.672L33.0133 68.5074L35.1778 70.672C35.7402 71.2343 36.6491 71.2343 37.2115 70.672C37.7738 70.1096 37.7738 69.2007 37.2115 68.6383L35.0469 66.4738L37.2115 64.3092C37.7738 63.7469 37.7738 62.8365 37.2115 62.2756Z" fill="#1F384E"/>
<path d="M45.3547 56.4723L43.1902 54.3077C42.6278 53.7454 41.7189 53.7454 41.1565 54.3077C40.5942 54.8701 40.5942 55.779 41.1565 56.3414L43.321 58.5059L41.1565 60.6705C40.5942 61.2328 40.5942 62.1418 41.1565 62.7041C41.437 62.9846 41.8051 63.1256 42.1733 63.1256C42.5415 63.1256 42.9097 62.9846 43.1902 62.7041L45.3547 60.5396L47.5193 62.7041C47.7997 62.9846 48.1679 63.1256 48.5361 63.1256C48.9043 63.1256 49.2725 62.9846 49.5529 62.7041C50.1153 62.1418 50.1153 61.2328 49.5529 60.6705L47.3884 58.5059L49.5529 56.3414C50.1153 55.779 50.1153 54.8701 49.5529 54.3077C48.9906 53.7454 48.0816 53.7454 47.5193 54.3077L45.3547 56.4723Z" fill="#1F384E"/>
<path d="M17.6414 44.499C18.2038 45.0613 19.1127 45.0613 19.6751 44.499L21.8396 42.3344L24.0042 44.499C24.5665 45.0613 25.4755 45.0613 26.0378 44.499C26.6002 43.9366 26.6002 43.0277 26.0378 42.4653L23.8733 40.3008L26.0378 38.1362C26.6002 37.5739 26.6002 36.6649 26.0378 36.1026C25.4755 35.5402 24.5665 35.5402 24.0042 36.1026L21.8396 38.2671L19.6751 36.1026C19.1127 35.5402 18.2038 35.5402 17.6414 36.1026C17.0791 36.6649 17.0791 37.5739 17.6414 38.1362L19.806 40.3008L17.6414 42.4653C17.0791 43.0277 17.0791 43.9366 17.6414 44.499Z" fill="#1F384E"/>
<path d="M58.6915 9.186H47.7106C47.5984 6.63745 45.5072 4.59372 42.9313 4.59372H37.8687C37.2215 1.95887 34.8355 0 31.9993 0C29.1688 0 26.7886 1.95888 26.1413 4.59228H21.0687C18.4928 4.59228 16.4016 6.63601 16.2894 9.18457H5.30852C2.38172 9.18457 0 11.5663 0 14.4931V86.737C0 89.6638 2.38172 92.0456 5.30852 92.0456H58.6915C61.6183 92.0456 64 89.6638 64 86.737V14.4945C64 11.5663 61.6183 9.186 58.6915 9.186ZM19.1443 9.39455C19.1443 8.33313 20.0087 7.47019 21.0687 7.47019H27.407C28.2023 7.47019 28.8452 6.82586 28.8452 6.03195C28.8452 4.29169 30.2605 2.87647 31.9993 2.87647C33.7453 2.87647 35.1663 4.29169 35.1663 6.03052C35.1663 6.82442 35.8092 7.46875 36.6045 7.46875H42.9299C43.9898 7.46875 44.8542 8.33313 44.8542 9.39311V12.5587H19.1443V9.39455ZM61.1235 86.7385C61.1235 88.0804 60.0319 89.1705 58.6915 89.1705H5.30708C3.96521 89.1705 2.87503 88.0804 2.87503 86.7385V14.4945C2.87503 13.1527 3.96665 12.0625 5.30708 12.0625H16.2664V13.9983C16.2664 14.7922 16.9093 15.4366 17.7047 15.4366H46.2925C47.0878 15.4366 47.7307 14.7922 47.7307 13.9983V12.0625H58.69C60.0319 12.0625 61.1221 13.1527 61.1221 14.4945L61.1235 86.7385Z" fill="#1F384E"/>
<path d="M56.1098 19.0091H7.88867C7.09333 19.0091 6.45044 19.6535 6.45044 20.4474V84.1655C6.45044 84.9594 7.09333 85.6037 7.88867 85.6037H56.1084C56.9037 85.6037 57.5466 84.9594 57.5466 84.1655V20.4474C57.548 19.6535 56.9037 19.0091 56.1098 19.0091ZM54.6716 82.7273H9.32691V21.8856H54.6701L54.6716 82.7273Z" fill="#1F384E"/>
</svg>
