<svg width="127" height="129" viewBox="0 0 127 129" fill="none" xmlns="http://www.w3.org/2000/svg">
<g clip-path="url(#clip0_9_123)">
<rect width="127" height="129" fill="white"/>
<circle cx="63.4782" cy="65" r="64" transform="rotate(-180 63.4782 65)" fill="#1F384E"/>
<mask id="mask0_9_123" style="mask-type:alpha" maskUnits="userSpaceOnUse" x="-13" y="-21" width="154" height="129">
<rect x="66.9782" y="-19.5" width="83" height="7" transform="rotate(90 66.9782 -19.5)" fill="#1F384E" stroke="#1F384E" stroke-width="3"/>
<rect x="-10.951" y="99.8888" width="83" height="7" transform="rotate(-30 -10.951 99.8888)" fill="#1F384E" stroke="#1F384E" stroke-width="3"/>
<rect x="134.929" y="105.951" width="83" height="7" transform="rotate(-150 134.929 105.951)" fill="#1F384E" stroke="#1F384E" stroke-width="3"/>
</mask>
<g mask="url(#mask0_9_123)">
<circle cx="63.4782" cy="65" r="64" transform="rotate(-180 63.4782 65)" fill="white"/>
</g>
<path d="M17.5129 36.3682L18.9143 36.8125C18.6994 37.5938 18.3413 38.1748 17.84 38.5557C17.342 38.9333 16.7089 39.1221 15.9406 39.1221C14.9901 39.1221 14.2089 38.7982 13.5969 38.1504C12.9849 37.4994 12.6789 36.6107 12.6789 35.4844C12.6789 34.293 12.9865 33.3685 13.6018 32.711C14.217 32.0501 15.0259 31.7197 16.0285 31.7197C16.9042 31.7197 17.6154 31.9785 18.1623 32.4961C18.4878 32.8021 18.732 33.2416 18.8947 33.8145L17.4641 34.1563C17.3794 33.7852 17.202 33.4922 16.9318 33.2774C16.6649 33.0625 16.3394 32.9551 15.9553 32.9551C15.4247 32.9551 14.9934 33.1455 14.6613 33.5264C14.3326 33.9072 14.1682 34.5241 14.1682 35.377C14.1682 36.2819 14.3309 36.9264 14.6564 37.3106C14.982 37.6947 15.4051 37.8867 15.926 37.8867C16.3101 37.8867 16.6405 37.7647 16.9172 37.5205C17.1939 37.2764 17.3924 36.8923 17.5129 36.3682ZM19.5322 36.334C19.5322 35.8783 19.6445 35.4372 19.8691 35.0108C20.0937 34.5843 20.4111 34.2588 20.8213 34.0342C21.2347 33.8096 21.6953 33.6973 22.2031 33.6973C22.9876 33.6973 23.6305 33.9528 24.1318 34.4639C24.6331 34.9717 24.8838 35.6146 24.8838 36.3926C24.8838 37.1771 24.6299 37.8281 24.1221 38.3457C23.6175 38.86 22.9811 39.1172 22.2129 39.1172C21.7376 39.1172 21.2835 39.0098 20.8506 38.7949C20.4209 38.5801 20.0937 38.266 19.8691 37.8526C19.6445 37.4359 19.5322 36.9297 19.5322 36.334ZM20.9385 36.4072C20.9385 36.9216 21.0605 37.3154 21.3047 37.5889C21.5488 37.8623 21.8499 37.999 22.208 37.999C22.5661 37.999 22.8656 37.8623 23.1064 37.5889C23.3506 37.3154 23.4727 36.9183 23.4727 36.3975C23.4727 35.8897 23.3506 35.499 23.1064 35.2256C22.8656 34.9522 22.5661 34.8154 22.208 34.8154C21.8499 34.8154 21.5488 34.9522 21.3047 35.2256C21.0605 35.499 20.9385 35.8929 20.9385 36.4072ZM29.076 39V38.2236C28.8872 38.5003 28.6381 38.7184 28.3289 38.8779C28.0229 39.0375 27.699 39.1172 27.3572 39.1172C27.0089 39.1172 26.6964 39.0407 26.4197 38.8877C26.143 38.7347 25.9428 38.5199 25.8191 38.2432C25.6954 37.9665 25.6336 37.584 25.6336 37.0957V33.8145H27.0057V36.1973C27.0057 36.9264 27.0301 37.374 27.0789 37.5401C27.131 37.7028 27.2238 37.833 27.3572 37.9307C27.4907 38.0251 27.66 38.0723 27.865 38.0723C28.0994 38.0723 28.3094 38.0088 28.4949 37.8819C28.6805 37.7516 28.8074 37.5921 28.8758 37.4033C28.9441 37.2113 28.9783 36.7442 28.9783 36.002V33.8145H30.3504V39H29.076ZM36.193 39H34.8209V36.3535C34.8209 35.7936 34.7916 35.4323 34.733 35.2695C34.6744 35.1035 34.5784 34.975 34.4449 34.8838C34.3147 34.7927 34.1568 34.7471 33.9713 34.7471C33.7337 34.7471 33.5204 34.8122 33.3316 34.9424C33.1428 35.0726 33.0126 35.2451 32.941 35.46C32.8727 35.6748 32.8385 36.072 32.8385 36.6514V39H31.4664V33.8145H32.7408V34.5762C33.1933 33.9902 33.763 33.6973 34.4498 33.6973C34.7525 33.6973 35.0292 33.7526 35.2799 33.8633C35.5305 33.9707 35.7193 34.1091 35.8463 34.2783C35.9765 34.4476 36.066 34.6397 36.1148 34.8545C36.1669 35.0694 36.193 35.377 36.193 35.7774V39ZM39.6674 33.8145V34.9082H38.7299V36.9981C38.7299 37.4212 38.738 37.6686 38.7543 37.7402C38.7738 37.8086 38.8145 37.8656 38.8764 37.9111C38.9415 37.9567 39.0196 37.9795 39.1107 37.9795C39.2377 37.9795 39.4216 37.9356 39.6625 37.8477L39.7797 38.9121C39.4607 39.0488 39.0993 39.1172 38.6957 39.1172C38.4483 39.1172 38.2253 39.0765 38.0268 38.9951C37.8282 38.9105 37.6817 38.8031 37.5873 38.6729C37.4962 38.5394 37.4327 38.3604 37.3969 38.1358C37.3676 37.9763 37.3529 37.654 37.3529 37.169V34.9082H36.723V33.8145H37.3529V32.7842L38.7299 31.9834V33.8145H39.6674ZM43.3225 37.3496L44.6896 37.5791C44.5139 38.0804 44.2355 38.4629 43.8547 38.7266C43.4771 38.987 43.0034 39.1172 42.4338 39.1172C41.5321 39.1172 40.8648 38.8226 40.4318 38.2334C40.09 37.7614 39.9191 37.1657 39.9191 36.4463C39.9191 35.5869 40.1437 34.9147 40.593 34.4297C41.0422 33.9414 41.6102 33.6973 42.2971 33.6973C43.0686 33.6973 43.6773 33.9528 44.1232 34.4639C44.5692 34.9717 44.7824 35.7513 44.7629 36.8027H41.3254C41.3352 37.2097 41.4458 37.527 41.6574 37.7549C41.869 37.9795 42.1327 38.0918 42.4484 38.0918C42.6633 38.0918 42.8439 38.0332 42.9904 37.916C43.1369 37.7988 43.2476 37.61 43.3225 37.3496ZM43.4006 35.9629C43.3908 35.5658 43.2883 35.2647 43.093 35.0596C42.8977 34.8513 42.66 34.7471 42.3801 34.7471C42.0806 34.7471 41.8332 34.8561 41.6379 35.0742C41.4426 35.2923 41.3465 35.5886 41.3498 35.9629H43.4006ZM46.8994 39H45.5273V33.8145H46.8018V34.5518C47.0199 34.2035 47.2152 33.974 47.3877 33.8633C47.5635 33.7526 47.762 33.6973 47.9834 33.6973C48.2959 33.6973 48.597 33.7835 48.8867 33.9561L48.4619 35.1524C48.2308 35.0026 48.016 34.9277 47.8174 34.9277C47.6253 34.9277 47.4626 34.9815 47.3291 35.0889C47.1956 35.193 47.0898 35.3835 47.0117 35.6602C46.9368 35.9369 46.8994 36.5163 46.8994 37.3985V39ZM49.0262 37.0908V35.7188H51.7215V37.0908H49.0262ZM19.7568 46.3965L18.5117 46.1719C18.6517 45.6706 18.8926 45.2995 19.2344 45.0586C19.5762 44.8177 20.084 44.6973 20.7578 44.6973C21.3698 44.6973 21.8255 44.7705 22.125 44.917C22.4245 45.0602 22.6344 45.2442 22.7549 45.4688C22.8786 45.6901 22.9404 46.0986 22.9404 46.6944L22.9258 48.2959C22.9258 48.7516 22.9469 49.0886 22.9893 49.3067C23.0348 49.5215 23.1178 49.7526 23.2383 50H21.8809C21.8451 49.9089 21.8011 49.7738 21.749 49.5947C21.7262 49.5134 21.71 49.4597 21.7002 49.4336C21.4658 49.6615 21.2152 49.8324 20.9482 49.9463C20.6813 50.0602 20.3965 50.1172 20.0938 50.1172C19.5599 50.1172 19.1383 49.9723 18.8291 49.6826C18.5231 49.3929 18.3701 49.0267 18.3701 48.584C18.3701 48.291 18.4401 48.0306 18.5801 47.8027C18.7201 47.5716 18.9154 47.3958 19.166 47.2754C19.4199 47.1517 19.7845 47.0443 20.2598 46.9531C20.901 46.8327 21.3454 46.7204 21.5928 46.6162V46.4795C21.5928 46.2158 21.5277 46.0287 21.3975 45.918C21.2673 45.8041 21.0215 45.7471 20.6602 45.7471C20.416 45.7471 20.2256 45.7959 20.0889 45.8936C19.9521 45.988 19.8415 46.1556 19.7568 46.3965ZM21.5928 47.5098C21.417 47.5684 21.1387 47.6384 20.7578 47.7197C20.377 47.8011 20.1279 47.8809 20.0107 47.959C19.8317 48.086 19.7422 48.2471 19.7422 48.4424C19.7422 48.6345 19.8138 48.8005 19.957 48.9404C20.1003 49.0804 20.2826 49.1504 20.5039 49.1504C20.7513 49.1504 20.9873 49.069 21.2119 48.9063C21.3779 48.7826 21.487 48.6312 21.5391 48.4522C21.5749 48.335 21.5928 48.112 21.5928 47.7832V47.5098ZM28.5193 46.3477L27.1668 46.5918C27.1212 46.3216 27.0171 46.1182 26.8543 45.9815C26.6948 45.8447 26.4865 45.7764 26.2293 45.7764C25.8875 45.7764 25.6141 45.8952 25.409 46.1328C25.2072 46.3672 25.1062 46.7611 25.1062 47.3145C25.1062 47.9297 25.2088 48.3643 25.4139 48.6182C25.6222 48.8721 25.9005 48.999 26.2488 48.999C26.5092 48.999 26.7225 48.9258 26.8885 48.7793C27.0545 48.6296 27.1717 48.374 27.24 48.0127L28.5877 48.2422C28.4477 48.8607 28.1792 49.3278 27.782 49.6436C27.3849 49.9593 26.8527 50.1172 26.1854 50.1172C25.4269 50.1172 24.8214 49.8779 24.3689 49.3994C23.9197 48.9209 23.6951 48.2585 23.6951 47.4121C23.6951 46.556 23.9214 45.8903 24.3738 45.4151C24.8263 44.9365 25.4383 44.6973 26.2098 44.6973C26.8413 44.6973 27.3426 44.834 27.7137 45.1074C28.088 45.3776 28.3566 45.791 28.5193 46.3477ZM31.6422 44.8145V45.9082H30.7047V47.9981C30.7047 48.4212 30.7128 48.6686 30.7291 48.7402C30.7486 48.8086 30.7893 48.8656 30.8512 48.9111C30.9163 48.9567 30.9944 48.9795 31.0855 48.9795C31.2125 48.9795 31.3964 48.9356 31.6373 48.8477L31.7545 49.9121C31.4355 50.0488 31.0742 50.1172 30.6705 50.1172C30.4231 50.1172 30.2001 50.0765 30.0016 49.9951C29.803 49.9105 29.6565 49.8031 29.5621 49.6729C29.471 49.5394 29.4075 49.3604 29.3717 49.1358C29.3424 48.9763 29.3277 48.654 29.3277 48.169V45.9082H28.6979V44.8145H29.3277V43.7842L30.7047 42.9834V44.8145H31.6422ZM32.2943 44.1113V42.8418H33.6664V44.1113H32.2943ZM32.2943 50V44.8145H33.6664V50H32.2943ZM34.4602 47.334C34.4602 46.8783 34.5725 46.4372 34.7971 46.0108C35.0217 45.5843 35.3391 45.2588 35.7492 45.0342C36.1626 44.8096 36.6232 44.6973 37.1311 44.6973C37.9156 44.6973 38.5585 44.9528 39.0598 45.4639C39.5611 45.9717 39.8117 46.6146 39.8117 47.3926C39.8117 48.1771 39.5578 48.8281 39.05 49.3457C38.5454 49.86 37.909 50.1172 37.1408 50.1172C36.6656 50.1172 36.2115 50.0098 35.7785 49.7949C35.3488 49.5801 35.0217 49.266 34.7971 48.8526C34.5725 48.4359 34.4602 47.9297 34.4602 47.334ZM35.8664 47.4072C35.8664 47.9216 35.9885 48.3154 36.2326 48.5889C36.4768 48.8623 36.7779 48.999 37.1359 48.999C37.494 48.999 37.7935 48.8623 38.0344 48.5889C38.2785 48.3154 38.4006 47.9183 38.4006 47.3975C38.4006 46.8897 38.2785 46.499 38.0344 46.2256C37.7935 45.9522 37.494 45.8154 37.1359 45.8154C36.7779 45.8154 36.4768 45.9522 36.2326 46.2256C35.9885 46.499 35.8664 46.8929 35.8664 47.4072ZM45.3076 50H43.9355V47.3535C43.9355 46.7936 43.9062 46.4323 43.8477 46.2695C43.7891 46.1035 43.693 45.975 43.5596 45.8838C43.4294 45.7927 43.2715 45.7471 43.0859 45.7471C42.8483 45.7471 42.6351 45.8122 42.4463 45.9424C42.2575 46.0726 42.1273 46.2451 42.0557 46.46C41.9873 46.6748 41.9531 47.072 41.9531 47.6514V50H40.5811V44.8145H41.8555V45.5762C42.3079 44.9902 42.8776 44.6973 43.5645 44.6973C43.8672 44.6973 44.1439 44.7526 44.3945 44.8633C44.6452 44.9707 44.834 45.1091 44.9609 45.2783C45.0911 45.4476 45.1807 45.6397 45.2295 45.8545C45.2816 46.0694 45.3076 46.377 45.3076 46.7774V50Z" fill="white"/>
<path d="M87.4223 44H85.85L85.225 42.374H82.3637L81.7729 44H80.2396L83.0277 36.8418H84.5561L87.4223 44ZM84.7611 41.168L83.7748 38.5117L82.808 41.168H84.7611ZM92.4055 40.3477L91.0529 40.5918C91.0074 40.3216 90.9032 40.1182 90.7404 39.9815C90.5809 39.8447 90.3726 39.7764 90.1154 39.7764C89.7736 39.7764 89.5002 39.8952 89.2951 40.1328C89.0933 40.3672 88.9924 40.7611 88.9924 41.3145C88.9924 41.9297 89.0949 42.3643 89.3 42.6182C89.5083 42.8721 89.7867 42.999 90.135 42.999C90.3954 42.999 90.6086 42.9258 90.7746 42.7793C90.9406 42.6296 91.0578 42.374 91.1262 42.0127L92.4738 42.2422C92.3339 42.8607 92.0653 43.3278 91.6682 43.6436C91.271 43.9593 90.7388 44.1172 90.0715 44.1172C89.313 44.1172 88.7076 43.8779 88.2551 43.3994C87.8059 42.9209 87.5812 42.2585 87.5812 41.4121C87.5812 40.556 87.8075 39.8903 88.26 39.4151C88.7124 38.9365 89.3244 38.6973 90.0959 38.6973C90.7274 38.6973 91.2287 38.834 91.5998 39.1074C91.9742 39.3776 92.2427 39.791 92.4055 40.3477ZM95.5283 38.8145V39.9082H94.5908V41.9981C94.5908 42.4212 94.599 42.6686 94.6152 42.7402C94.6348 42.8086 94.6755 42.8656 94.7373 42.9111C94.8024 42.9567 94.8805 42.9795 94.9717 42.9795C95.0986 42.9795 95.2826 42.9356 95.5234 42.8477L95.6406 43.9121C95.3216 44.0488 94.9603 44.1172 94.5566 44.1172C94.3092 44.1172 94.0863 44.0765 93.8877 43.9951C93.6891 43.9105 93.5426 43.8031 93.4482 43.6729C93.3571 43.5394 93.2936 43.3604 93.2578 43.1358C93.2285 42.9763 93.2139 42.654 93.2139 42.169V39.9082H92.584V38.8145H93.2139V37.7842L94.5908 36.9834V38.8145H95.5283ZM96.1805 38.1113V36.8418H97.5525V38.1113H96.1805ZM96.1805 44V38.8145H97.5525V44H96.1805ZM98.3463 41.334C98.3463 40.8783 98.4586 40.4372 98.6832 40.0108C98.9078 39.5843 99.2252 39.2588 99.6354 39.0342C100.049 38.8096 100.509 38.6973 101.017 38.6973C101.802 38.6973 102.445 38.9528 102.946 39.4639C103.447 39.9717 103.698 40.6146 103.698 41.3926C103.698 42.1771 103.444 42.8281 102.936 43.3457C102.432 43.86 101.795 44.1172 101.027 44.1172C100.552 44.1172 100.098 44.0098 99.6646 43.7949C99.235 43.5801 98.9078 43.266 98.6832 42.8526C98.4586 42.4359 98.3463 41.9297 98.3463 41.334ZM99.7525 41.4072C99.7525 41.9216 99.8746 42.3154 100.119 42.5889C100.363 42.8623 100.664 42.999 101.022 42.999C101.38 42.999 101.68 42.8623 101.921 42.5889C102.165 42.3154 102.287 41.9183 102.287 41.3975C102.287 40.8897 102.165 40.499 101.921 40.2256C101.68 39.9522 101.38 39.8154 101.022 39.8154C100.664 39.8154 100.363 39.9522 100.119 40.2256C99.8746 40.499 99.7525 40.8929 99.7525 41.4072ZM109.194 44H107.822V41.3535C107.822 40.7936 107.792 40.4323 107.734 40.2695C107.675 40.1035 107.579 39.975 107.446 39.8838C107.315 39.7927 107.158 39.7471 106.972 39.7471C106.734 39.7471 106.521 39.8122 106.332 39.9424C106.144 40.0726 106.013 40.2451 105.942 40.46C105.873 40.6748 105.839 41.072 105.839 41.6514V44H104.467V38.8145H105.742V39.5762C106.194 38.9902 106.764 38.6973 107.451 38.6973C107.753 38.6973 108.03 38.7526 108.281 38.8633C108.531 38.9707 108.72 39.1091 108.847 39.2783C108.977 39.4476 109.067 39.6397 109.116 39.8545C109.168 40.0694 109.194 40.377 109.194 40.7774V44Z" fill="white"/>
<path d="M43.6496 103V95.8418H46.6916C47.4566 95.8418 48.0116 95.9069 48.3566 96.0371C48.7049 96.1641 48.9833 96.3919 49.1916 96.7207C49.3999 97.0495 49.5041 97.4255 49.5041 97.8486C49.5041 98.3858 49.3462 98.8301 49.0305 99.1817C48.7147 99.53 48.2427 99.7497 47.6145 99.8408C47.927 100.023 48.1841 100.223 48.3859 100.441C48.591 100.66 48.8661 101.047 49.2111 101.604L50.0852 103H48.3566L47.3117 101.442C46.9406 100.886 46.6867 100.536 46.55 100.393C46.4133 100.246 46.2684 100.147 46.1154 100.095C45.9624 100.039 45.7199 100.012 45.3879 100.012H45.0949V103H43.6496ZM45.0949 98.8692H46.1643C46.8576 98.8692 47.2906 98.8399 47.4631 98.7813C47.6356 98.7227 47.7707 98.6218 47.8684 98.4785C47.966 98.3353 48.0148 98.1563 48.0148 97.9414C48.0148 97.7005 47.9497 97.5069 47.8195 97.3604C47.6926 97.2106 47.5119 97.1162 47.2775 97.0772C47.1604 97.0609 46.8088 97.0527 46.2229 97.0527H45.0949V98.8692ZM53.5645 101.35L54.9316 101.579C54.7559 102.08 54.4775 102.463 54.0967 102.727C53.7191 102.987 53.2454 103.117 52.6758 103.117C51.7741 103.117 51.1068 102.823 50.6738 102.233C50.332 101.761 50.1611 101.166 50.1611 100.446C50.1611 99.5869 50.3857 98.9147 50.835 98.4297C51.2842 97.9414 51.8522 97.6973 52.5391 97.6973C53.3105 97.6973 53.9193 97.9528 54.3652 98.4639C54.8112 98.9717 55.0244 99.7513 55.0049 100.803H51.5674C51.5771 101.21 51.6878 101.527 51.8994 101.755C52.111 101.98 52.3747 102.092 52.6904 102.092C52.9053 102.092 53.0859 102.033 53.2324 101.916C53.3789 101.799 53.4896 101.61 53.5645 101.35ZM53.6426 99.9629C53.6328 99.5658 53.5303 99.2647 53.335 99.0596C53.1396 98.8513 52.902 98.7471 52.6221 98.7471C52.3226 98.7471 52.0752 98.8561 51.8799 99.0742C51.6846 99.2923 51.5885 99.5886 51.5918 99.9629H53.6426ZM56.8533 99.3965L55.6082 99.1719C55.7482 98.6706 55.9891 98.2995 56.3309 98.0586C56.6727 97.8177 57.1805 97.6973 57.8543 97.6973C58.4663 97.6973 58.922 97.7705 59.2215 97.917C59.521 98.0602 59.7309 98.2442 59.8514 98.4688C59.9751 98.6901 60.0369 99.0986 60.0369 99.6944L60.0223 101.296C60.0223 101.752 60.0434 102.089 60.0857 102.307C60.1313 102.521 60.2143 102.753 60.3348 103H58.9773C58.9415 102.909 58.8976 102.774 58.8455 102.595C58.8227 102.513 58.8064 102.46 58.7967 102.434C58.5623 102.661 58.3117 102.832 58.0447 102.946C57.7778 103.06 57.493 103.117 57.1902 103.117C56.6564 103.117 56.2348 102.972 55.9256 102.683C55.6196 102.393 55.4666 102.027 55.4666 101.584C55.4666 101.291 55.5366 101.031 55.6766 100.803C55.8165 100.572 56.0118 100.396 56.2625 100.275C56.5164 100.152 56.881 100.044 57.3562 99.9531C57.9975 99.8327 58.4419 99.7204 58.6893 99.6162V99.4795C58.6893 99.2158 58.6242 99.0287 58.4939 98.918C58.3637 98.8041 58.118 98.7471 57.7566 98.7471C57.5125 98.7471 57.3221 98.7959 57.1854 98.8936C57.0486 98.988 56.938 99.1556 56.8533 99.3965ZM58.6893 100.51C58.5135 100.568 58.2352 100.638 57.8543 100.72C57.4734 100.801 57.2244 100.881 57.1072 100.959C56.9282 101.086 56.8387 101.247 56.8387 101.442C56.8387 101.634 56.9103 101.8 57.0535 101.94C57.1967 102.08 57.379 102.15 57.6004 102.15C57.8478 102.15 58.0838 102.069 58.3084 101.906C58.4744 101.783 58.5835 101.631 58.6355 101.452C58.6714 101.335 58.6893 101.112 58.6893 100.783V100.51ZM65.6158 99.3477L64.2633 99.5918C64.2177 99.3216 64.1135 99.1182 63.9508 98.9815C63.7913 98.8447 63.5829 98.7764 63.3258 98.7764C62.984 98.7764 62.7105 98.8952 62.5055 99.1328C62.3036 99.3672 62.2027 99.7611 62.2027 100.314C62.2027 100.93 62.3053 101.364 62.5104 101.618C62.7187 101.872 62.997 101.999 63.3453 101.999C63.6057 101.999 63.8189 101.926 63.985 101.779C64.151 101.63 64.2682 101.374 64.3365 101.013L65.6842 101.242C65.5442 101.861 65.2757 102.328 64.8785 102.644C64.4814 102.959 63.9492 103.117 63.2818 103.117C62.5234 103.117 61.9179 102.878 61.4654 102.399C61.0162 101.921 60.7916 101.258 60.7916 100.412C60.7916 99.556 61.0178 98.8903 61.4703 98.4151C61.9228 97.9365 62.5348 97.6973 63.3062 97.6973C63.9378 97.6973 64.4391 97.834 64.8102 98.1074C65.1845 98.3776 65.4531 98.791 65.6158 99.3477ZM68.7387 97.8145V98.9082H67.8012V100.998C67.8012 101.421 67.8093 101.669 67.8256 101.74C67.8451 101.809 67.8858 101.866 67.9477 101.911C68.0128 101.957 68.0909 101.98 68.182 101.98C68.309 101.98 68.4929 101.936 68.7338 101.848L68.851 102.912C68.532 103.049 68.1706 103.117 67.767 103.117C67.5196 103.117 67.2966 103.077 67.098 102.995C66.8995 102.91 66.753 102.803 66.6586 102.673C66.5674 102.539 66.504 102.36 66.4682 102.136C66.4389 101.976 66.4242 101.654 66.4242 101.169V98.9082H65.7943V97.8145H66.4242V96.7842L67.8012 95.9834V97.8145H68.7387ZM69.3908 97.1113V95.8418H70.7629V97.1113H69.3908ZM69.3908 103V97.8145H70.7629V103H69.3908ZM71.5566 100.334C71.5566 99.8783 71.6689 99.4372 71.8936 99.0108C72.1182 98.5843 72.4355 98.2588 72.8457 98.0342C73.2591 97.8096 73.7197 97.6973 74.2275 97.6973C75.012 97.6973 75.6549 97.9528 76.1562 98.4639C76.6576 98.9717 76.9082 99.6146 76.9082 100.393C76.9082 101.177 76.6543 101.828 76.1465 102.346C75.6419 102.86 75.0055 103.117 74.2373 103.117C73.762 103.117 73.3079 103.01 72.875 102.795C72.4453 102.58 72.1182 102.266 71.8936 101.853C71.6689 101.436 71.5566 100.93 71.5566 100.334ZM72.9629 100.407C72.9629 100.922 73.085 101.315 73.3291 101.589C73.5732 101.862 73.8743 101.999 74.2324 101.999C74.5905 101.999 74.89 101.862 75.1309 101.589C75.375 101.315 75.4971 100.918 75.4971 100.397C75.4971 99.8897 75.375 99.499 75.1309 99.2256C74.89 98.9522 74.5905 98.8154 74.2324 98.8154C73.8743 98.8154 73.5732 98.9522 73.3291 99.2256C73.085 99.499 72.9629 99.8929 72.9629 100.407ZM82.4041 103H81.032V100.354C81.032 99.7936 81.0027 99.4323 80.9441 99.2695C80.8855 99.1035 80.7895 98.975 80.6561 98.8838C80.5258 98.7927 80.368 98.7471 80.1824 98.7471C79.9448 98.7471 79.7316 98.8122 79.5428 98.9424C79.354 99.0726 79.2238 99.2451 79.1521 99.46C79.0838 99.6748 79.0496 100.072 79.0496 100.651V103H77.6775V97.8145H78.952V98.5762C79.4044 97.9902 79.9741 97.6973 80.6609 97.6973C80.9637 97.6973 81.2404 97.7526 81.491 97.8633C81.7417 97.9707 81.9305 98.1091 82.0574 98.2783C82.1876 98.4476 82.2771 98.6397 82.326 98.8545C82.3781 99.0694 82.4041 99.377 82.4041 99.7774V103Z" fill="white"/>
</g>
<defs>
<clipPath id="clip0_9_123">
<rect width="127" height="129" fill="white"/>
</clipPath>
</defs>
</svg>
